{"glyphs":{"0":{"ha":1346,"x_min":97,"x_max":1249,"o":"m 1103 849 q 1211 692 1174 782 q 1249 497 1249 601 q 1211 303 1249 393 q 1103 144 1174 213 q 926 38 1028 74 q 701 1 825 1 l 643 1 q 418 38 519 1 q 242 144 317 74 q 134 303 171 213 q 97 497 97 393 q 134 692 97 601 q 242 849 171 782 q 418 956 317 919 q 643 993 519 993 l 701 993 q 926 956 825 993 q 1103 849 1028 919 m 701 178 q 855 200 786 178 q 972 264 924 222 q 1045 365 1019 306 q 1071 497 1071 424 q 1045 630 1071 571 q 972 731 1019 689 q 855 794 924 772 q 701 817 786 817 l 643 817 q 489 794 557 817 q 373 731 421 772 q 299 630 325 689 q 274 497 274 571 q 299 365 274 424 q 373 264 325 306 q 489 200 421 222 q 643 178 557 178 l 701 178 z "},"1":{"ha":1003,"x_min":90,"x_max":906,"o":"m 817 178 q 879 152 853 178 q 906 90 906 126 q 879 27 906 53 q 817 1 853 1 l 186 1 q 124 27 150 1 q 97 90 97 53 q 124 152 97 126 q 186 178 150 178 l 414 178 l 414 778 l 217 704 q 186 699 204 699 q 136 714 158 699 q 103 756 114 729 q 106 824 90 790 q 156 869 121 857 l 471 988 q 551 976 514 1003 q 590 904 590 950 l 590 178 l 817 178 l 817 178 z "},"2":{"ha":1238,"x_min":97,"x_max":1140,"o":"m 390 406 q 308 372 342 406 q 274 289 274 338 l 274 178 l 1053 178 q 1115 152 1089 178 q 1140 90 1140 126 q 1115 27 1140 53 q 1053 1 1089 1 l 186 1 q 124 27 150 1 q 97 90 97 53 l 97 289 q 120 402 97 349 q 183 496 143 456 q 276 559 224 536 q 390 582 329 582 l 847 582 q 930 616 896 582 q 964 699 964 650 q 955 745 964 724 q 930 783 946 767 q 892 808 914 799 q 847 817 871 817 l 244 817 q 183 842 208 817 q 157 904 157 868 q 183 967 157 940 q 244 993 208 993 l 847 993 q 960 970 907 993 q 1054 907 1014 947 q 1117 813 1094 867 q 1140 699 1140 760 q 1117 585 1140 638 q 1054 492 1094 532 q 960 428 1014 451 q 847 406 907 406 l 390 406 l 390 406 z "},"3":{"ha":1239,"x_min":97,"x_max":1140,"o":"m 947 569 q 1024 527 989 554 q 1085 464 1060 500 q 1126 385 1111 428 q 1140 294 1140 342 l 1140 293 q 1117 179 1140 232 q 1055 87 1094 126 q 962 24 1015 47 q 849 1 908 1 l 186 1 q 124 27 150 1 q 97 90 97 53 q 124 152 97 126 q 186 178 150 178 l 849 178 q 931 211 897 178 q 964 293 964 244 l 964 294 q 931 376 964 343 q 849 410 897 410 l 274 410 q 212 435 238 410 q 186 497 186 461 q 212 560 186 535 q 274 586 238 586 l 750 586 l 893 817 l 186 817 q 124 842 150 817 q 97 904 97 868 q 124 967 97 940 q 186 993 150 993 l 1051 993 q 1097 981 1076 993 q 1129 947 1118 968 q 1140 902 1140 926 q 1126 857 1140 878 l 947 569 l 947 569 z "},"4":{"ha":1238,"x_min":93,"x_max":1140,"o":"m 908 993 q 998 975 956 993 q 1072 925 1040 957 q 1122 851 1104 893 q 1140 760 1140 808 l 1140 90 q 1115 27 1140 53 q 1053 1 1089 1 q 990 27 1017 1 q 964 90 964 53 l 964 207 l 186 207 q 136 222 158 207 q 104 264 114 238 q 100 315 93 289 q 126 360 107 342 l 751 932 q 824 977 783 961 q 908 993 864 993 m 964 760 q 948 800 964 783 q 908 817 932 817 q 871 801 886 817 l 414 383 l 964 383 l 964 760 z "},"5":{"ha":1238,"x_min":97,"x_max":1140,"o":"m 849 586 q 962 563 908 586 q 1055 501 1015 540 q 1117 408 1094 461 q 1140 294 1140 354 l 1140 293 q 1117 179 1140 232 q 1055 87 1094 126 q 962 24 1015 47 q 849 1 908 1 l 186 1 q 124 27 150 1 q 97 90 97 53 q 124 152 97 126 q 186 178 150 178 l 849 178 q 931 211 897 178 q 964 293 964 244 l 964 294 q 931 376 964 343 q 849 410 897 410 l 200 410 q 136 438 161 410 q 117 468 124 451 q 113 504 110 485 l 142 911 q 169 969 144 946 q 229 993 194 993 l 993 993 q 1056 967 1029 993 q 1082 904 1082 940 q 1056 842 1082 868 q 993 817 1029 817 l 311 817 l 294 586 l 849 586 l 849 586 z "},"6":{"ha":1238,"x_min":97,"x_max":1140,"o":"m 849 585 q 962 562 908 585 q 1055 499 1015 539 q 1117 406 1094 460 q 1140 293 1140 353 q 1117 179 1140 232 q 1055 87 1094 126 q 962 24 1015 47 q 849 1 908 1 l 442 1 q 310 28 372 1 q 199 103 247 54 q 124 214 150 151 q 97 346 97 276 l 97 651 q 123 782 97 719 q 197 893 149 844 q 308 967 246 942 q 439 993 369 993 l 979 993 q 1041 967 1015 993 q 1067 904 1067 940 q 1041 842 1067 868 q 979 817 1015 817 l 439 817 q 375 803 406 817 q 322 768 344 790 q 287 715 300 746 q 274 651 274 685 l 274 585 l 849 585 m 849 178 q 931 211 897 178 q 964 293 964 244 q 931 375 964 342 q 849 408 897 408 l 274 408 l 274 346 q 287 281 274 311 q 323 227 300 250 q 376 191 346 204 q 442 178 407 178 l 849 178 z "},"7":{"ha":1239,"x_min":97,"x_max":1144,"o":"m 1051 993 q 1101 978 1079 993 q 1133 940 1122 964 q 1140 890 1144 917 q 1117 844 1135 864 l 368 31 q 338 8 356 15 q 303 1 321 1 q 243 25 269 1 q 215 86 215 50 q 238 150 214 122 l 851 817 l 186 817 q 123 842 149 817 q 97 904 97 868 q 123 967 97 940 q 186 993 149 993 l 1051 993 l 1051 993 z "},"8":{"ha":1238,"x_min":97,"x_max":1140,"o":"m 854 993 q 965 970 913 993 q 1056 908 1017 947 q 1117 817 1094 869 q 1140 706 1140 765 l 1140 696 q 1118 586 1140 638 q 1058 496 1096 535 q 1119 404 1097 456 q 1140 293 1140 353 q 1117 179 1140 232 q 1055 87 1094 126 q 962 24 1015 47 q 849 1 908 1 l 389 1 q 275 24 328 1 q 183 87 222 47 q 120 179 143 126 q 97 293 97 232 q 119 404 97 353 q 179 496 140 456 q 119 586 140 535 q 97 696 97 638 l 97 706 q 119 817 97 765 q 181 908 142 869 q 272 970 219 947 q 383 993 324 993 l 854 993 m 274 696 q 306 617 274 650 q 383 585 339 585 l 854 585 q 931 617 899 585 q 964 696 964 650 l 964 706 q 931 784 964 751 q 854 817 899 817 l 383 817 q 306 784 339 817 q 274 706 274 751 l 274 696 m 849 178 q 930 211 896 178 q 964 293 964 244 q 930 375 964 342 q 849 408 896 408 l 389 408 q 307 375 340 408 q 274 293 274 342 q 307 211 274 244 q 389 178 340 178 l 849 178 z "},"9":{"ha":1236,"x_min":97,"x_max":1139,"o":"m 796 993 q 928 967 865 993 q 1039 892 990 940 q 1113 781 1088 843 q 1139 649 1139 718 l 1139 343 q 1113 212 1139 274 q 1039 101 1088 150 q 928 27 990 53 q 799 1 867 1 l 258 1 q 197 27 222 1 q 171 90 171 53 q 197 152 171 126 q 258 178 222 178 l 799 178 q 862 191 832 178 q 914 226 892 204 q 949 278 936 249 q 963 343 963 308 l 963 408 l 389 408 q 275 431 328 408 q 183 494 222 454 q 120 587 143 533 q 97 700 97 640 q 120 813 97 760 q 183 907 143 867 q 275 970 222 947 q 389 993 328 993 l 796 993 m 963 649 q 949 714 963 683 q 913 767 936 744 q 860 803 890 790 q 796 817 831 817 l 389 817 q 307 783 340 817 q 274 700 274 749 q 307 619 274 653 q 389 585 340 585 l 963 585 l 963 649 z "},"\u0000":{"ha":0,"x_min":0,"x_max":0,"o":""},"\r":{"ha":556,"x_min":0,"x_max":0,"o":""}," ":{"ha":521,"x_min":0,"x_max":0,"o":""},"E":{"ha":1238,"x_min":97,"x_max":1140,"o":"m 1051 993 q 1114 967 1088 993 q 1140 904 1140 940 q 1114 842 1140 868 q 1051 817 1088 817 l 185 817 q 123 842 149 817 q 97 904 97 868 q 123 967 97 940 q 185 993 149 993 l 1051 993 m 1051 178 q 1114 152 1088 178 q 1140 90 1140 126 q 1114 27 1140 53 q 1051 1 1088 1 l 185 1 q 123 27 149 1 q 97 90 97 53 q 123 152 97 126 q 185 178 149 178 l 1051 178 m 1051 585 q 1114 559 1088 585 q 1140 497 1140 533 q 1114 435 1140 461 q 1051 408 1088 408 l 185 408 q 123 435 149 408 q 97 497 97 461 q 123 559 97 533 q 185 585 149 585 l 1051 585 z "},"F":{"ha":1238,"x_min":97,"x_max":1140,"o":"m 1053 993 q 1115 967 1089 993 q 1140 904 1140 940 q 1115 842 1140 868 q 1053 817 1089 817 l 186 817 q 124 842 150 817 q 97 904 97 868 q 124 967 97 940 q 186 993 150 993 l 1053 993 m 1053 585 q 1115 559 1089 585 q 1140 497 1140 533 q 1115 435 1140 461 q 1053 408 1089 408 l 274 408 l 274 90 q 248 27 274 53 q 186 1 222 1 q 124 27 150 1 q 97 90 97 53 l 97 497 q 124 559 97 533 q 186 585 150 585 l 1053 585 z "},"G":{"ha":1226,"x_min":97,"x_max":1129,"o":"m 1042 547 q 1103 521 1078 547 q 1129 458 1129 494 l 1129 207 q 1103 143 1129 169 q 929 37 1029 72 q 707 1 829 1 l 636 1 q 413 38 514 1 q 239 146 313 75 q 132 306 168 213 q 97 497 97 393 q 106 595 97 547 q 132 688 114 643 q 239 849 168 779 q 413 956 313 919 q 636 993 514 993 l 707 993 q 903 965 811 993 q 987 932 947 951 q 1061 885 1026 913 q 1095 826 1090 863 q 1078 761 1100 790 q 1019 727 1056 732 q 954 744 983 722 q 845 799 908 781 q 707 817 782 817 l 636 817 q 485 794 553 817 q 371 731 418 772 q 299 630 324 689 q 274 497 274 571 q 299 365 274 424 q 371 264 324 306 q 485 200 418 222 q 636 178 553 178 l 707 178 q 844 196 782 178 q 953 249 906 214 l 953 369 l 614 369 q 551 396 578 369 q 525 458 525 422 q 551 521 525 494 q 614 547 578 547 l 1042 547 l 1042 547 z "},"H":{"ha":1238,"x_min":97,"x_max":1140,"o":"m 1053 993 q 1115 967 1089 993 q 1140 904 1140 940 l 1140 90 q 1115 27 1140 53 q 1053 1 1089 1 q 990 27 1017 1 q 964 90 964 53 l 964 397 l 274 397 l 274 90 q 248 27 274 53 q 186 1 222 1 q 124 27 150 1 q 97 90 97 53 l 97 904 q 124 967 97 940 q 186 993 150 993 q 248 967 222 993 q 274 904 274 940 l 274 574 l 964 574 l 964 904 q 990 967 964 940 q 1053 993 1017 993 z "},"I":{"ha":371,"x_min":97,"x_max":274,"o":"m 185 993 q 247 967 221 993 q 274 904 274 940 l 274 90 q 247 27 274 53 q 185 1 221 1 q 123 27 149 1 q 97 90 97 53 l 97 904 q 123 967 97 940 q 185 993 149 993 z "},"J":{"ha":1228,"x_min":97,"x_max":1131,"o":"m 1043 993 q 1105 967 1079 993 q 1131 904 1131 940 l 1131 497 q 1096 306 1131 393 q 1051 219 1076 260 q 989 146 1025 179 q 815 38 915 75 q 592 1 714 1 l 521 1 q 299 37 399 1 q 125 143 199 72 q 98 206 99 169 q 122 268 97 242 q 185 296 149 296 q 247 271 221 296 q 521 178 344 178 l 592 178 q 742 200 675 178 q 857 264 810 222 q 929 365 904 306 q 954 497 954 424 l 954 904 q 980 967 954 940 q 1043 993 1006 993 z "},"K":{"ha":1238,"x_min":97,"x_max":1143,"o":"m 1119 147 q 1140 83 1143 119 q 1108 22 1136 46 q 1051 1 1083 1 q 1015 10 1032 1 q 985 33 997 18 l 667 408 l 274 408 l 274 90 q 247 27 274 53 q 185 1 221 1 q 123 27 149 1 q 97 90 97 53 l 97 904 q 123 967 97 940 q 185 993 149 993 q 247 967 221 993 q 274 904 274 940 l 274 585 l 615 585 q 738 609 679 585 q 840 679 796 633 q 910 782 886 724 q 933 904 933 840 q 960 967 933 940 q 1022 993 986 993 q 1085 967 1058 993 q 1111 904 1111 940 q 1071 711 1111 804 q 965 554 1032 621 q 849 467 913 501 l 1119 147 z "},"L":{"ha":1119,"x_min":97,"x_max":1022,"o":"m 933 178 q 996 152 969 178 q 1022 90 1022 126 q 996 27 1022 53 q 933 1 969 1 l 185 1 q 123 27 149 1 q 97 90 97 53 l 97 904 q 123 967 97 940 q 185 993 149 993 q 247 967 221 993 q 274 904 274 940 l 274 178 l 933 178 l 933 178 z "},"M":{"ha":1550,"x_min":97,"x_max":1453,"o":"m 1400 986 q 1438 953 1424 975 q 1453 904 1453 932 l 1453 90 q 1427 27 1453 53 q 1365 1 1401 1 q 1303 27 1329 1 q 1276 90 1276 53 l 1276 697 l 836 274 q 775 250 813 250 q 714 274 738 250 l 274 697 l 274 90 q 247 27 274 53 q 185 1 221 1 q 123 27 149 1 q 97 90 97 53 l 97 904 q 112 953 97 932 q 150 986 126 975 q 201 992 175 997 q 246 968 226 988 l 775 460 l 1304 968 q 1349 992 1324 988 q 1400 986 1375 997 z "},"N":{"ha":1238,"x_min":97,"x_max":1140,"o":"m 1053 993 q 1115 967 1089 993 q 1140 904 1140 940 l 1140 90 q 1126 41 1140 63 q 1088 8 1111 19 q 1053 1 1069 1 q 992 25 1018 1 l 274 700 l 274 90 q 248 27 274 53 q 186 1 222 1 q 124 27 150 1 q 97 90 97 53 l 97 904 q 112 952 97 931 q 151 985 126 974 q 201 992 175 996 q 246 968 226 988 l 964 294 l 964 904 q 990 967 964 940 q 1053 993 1015 993 z "},"O":{"ha":1344,"x_min":97,"x_max":1247,"o":"m 1106 849 q 1211 688 1176 778 q 1247 497 1247 599 q 1211 306 1247 397 q 1106 146 1175 214 q 931 38 1032 75 q 707 1 831 1 l 638 1 q 413 38 514 1 q 239 146 313 75 q 132 306 169 213 q 97 497 97 399 q 106 595 97 547 q 132 688 115 643 q 239 849 169 779 q 413 956 313 919 q 638 993 514 993 l 707 993 q 931 956 831 993 q 1106 849 1032 919 m 707 178 q 858 200 790 178 q 972 264 925 222 q 1045 365 1019 306 q 1071 497 1071 424 q 1045 630 1071 571 q 972 731 1019 689 q 858 794 925 772 q 707 817 790 817 l 638 817 q 485 794 553 817 q 371 731 418 772 q 299 630 324 689 q 274 497 274 571 q 299 365 274 424 q 371 264 324 306 q 485 200 418 222 q 638 178 553 178 l 707 178 z "},"P":{"ha":1238,"x_min":97,"x_max":1140,"o":"m 1042 894 q 1140 657 1140 796 q 1042 419 1140 518 q 933 347 994 372 q 804 321 872 321 l 274 321 l 274 90 q 248 27 274 53 q 186 1 222 1 q 123 27 149 1 q 97 90 97 53 l 97 410 q 123 472 97 446 q 186 499 149 499 l 804 499 q 866 511 838 499 q 917 545 894 524 q 951 595 939 567 q 964 657 964 624 q 951 719 964 690 q 917 769 939 747 q 866 804 894 792 q 804 817 838 817 l 186 817 q 123 842 149 817 q 97 904 97 868 q 123 967 97 940 q 186 993 149 993 l 804 993 q 933 967 872 993 q 1042 894 994 942 z "},"Q":{"ha":1346,"x_min":97,"x_max":1254,"o":"m 1181 57 q 1235 17 1217 47 q 1244 -50 1254 -14 q 1212 -99 1236 -81 q 1158 -117 1188 -117 q 1148 -116 1153 -117 q 1136 -114 1143 -115 l 696 1 l 638 1 q 413 38 514 1 q 239 146 313 75 q 133 306 169 214 q 97 497 97 397 q 133 688 97 599 q 239 849 168 778 q 413 956 313 919 q 638 993 514 993 l 707 993 q 931 956 831 993 q 1106 849 1032 919 q 1211 688 1176 778 q 1247 497 1247 599 q 1211 306 1247 397 q 1106 146 1175 214 q 1042 94 1075 118 l 1181 57 m 274 497 q 299 365 274 424 q 371 264 324 306 q 485 200 418 222 q 638 178 553 178 l 707 178 l 708 178 q 859 200 792 178 q 974 264 926 222 q 1046 365 1021 306 q 1071 497 1071 424 q 1045 630 1071 571 q 972 731 1019 689 q 858 794 925 772 q 707 817 790 817 l 638 817 q 485 794 553 817 q 371 731 418 772 q 299 630 324 689 q 274 497 274 571 z "},"R":{"ha":1317,"x_min":97,"x_max":1219,"o":"m 1131 178 q 1193 152 1167 178 q 1219 90 1219 126 q 1193 27 1219 53 q 1131 1 1167 1 l 989 1 q 924 29 949 1 l 654 321 l 274 321 l 274 90 q 247 27 274 53 q 185 1 221 1 q 123 27 149 1 q 97 90 97 53 l 97 410 q 123 472 97 446 q 185 499 149 499 l 804 499 q 866 511 838 499 q 917 545 894 524 q 951 595 939 567 q 964 657 964 624 q 951 719 964 690 q 917 769 939 747 q 866 804 894 792 q 804 817 838 817 l 185 817 q 123 842 149 817 q 97 904 97 868 q 123 967 97 940 q 185 993 149 993 l 804 993 q 933 967 872 993 q 1042 894 993 942 q 1140 657 1140 796 q 1042 419 1140 518 q 886 332 975 353 l 1028 178 l 1131 178 l 1131 178 z "},"S":{"ha":1238,"x_min":97,"x_max":1140,"o":"m 849 585 q 962 562 908 585 q 1055 499 1015 539 q 1117 406 1094 460 q 1140 293 1140 353 q 1117 179 1140 232 q 1055 87 1094 126 q 962 24 1015 47 q 849 1 908 1 l 244 1 q 182 27 208 1 q 156 90 156 53 q 182 152 156 126 q 244 178 208 178 l 849 178 q 931 211 897 178 q 964 293 964 244 q 931 375 964 342 q 849 408 897 408 l 389 408 q 275 431 328 408 q 183 494 222 454 q 120 587 143 533 q 97 700 97 640 q 120 813 97 760 q 183 907 143 867 q 275 970 222 947 q 389 993 328 993 l 993 993 q 1056 967 1029 993 q 1082 904 1082 940 q 1056 842 1082 868 q 993 817 1029 817 l 389 817 q 307 783 340 817 q 274 700 274 749 q 307 619 274 653 q 389 585 340 585 l 849 585 l 849 585 z "},"T":{"ha":1126,"x_min":42,"x_max":1085,"o":"m 997 993 q 1059 967 1033 993 q 1085 904 1085 940 q 1059 842 1085 868 q 997 817 1033 817 l 651 817 l 651 90 q 626 27 651 53 q 564 1 600 1 q 501 27 528 1 q 475 90 475 53 l 475 817 l 131 817 q 68 842 94 817 q 42 904 42 868 q 68 967 42 940 q 131 993 94 993 l 997 993 l 997 993 z "},"U":{"ha":1238,"x_min":97,"x_max":1140,"o":"m 1053 993 q 1115 967 1089 993 q 1140 904 1140 940 l 1140 497 q 1133 400 1140 447 q 1110 310 1125 353 q 1015 149 1079 218 q 856 39 949 76 q 650 1 763 1 l 588 1 q 383 39 475 1 q 224 149 290 76 q 129 310 160 218 q 97 497 97 397 l 97 904 q 124 967 97 940 q 186 993 150 993 q 249 967 222 993 q 275 904 275 940 l 275 497 q 292 382 275 439 q 345 280 308 325 q 442 206 382 235 q 588 178 501 178 l 650 178 q 797 206 738 178 q 894 280 857 235 q 947 382 931 325 q 964 497 964 439 l 964 904 q 990 967 964 940 q 1053 993 1017 993 z "},"V":{"ha":1304,"x_min":35,"x_max":1269,"o":"m 1210 985 q 1256 935 1243 969 q 1254 868 1269 901 l 944 189 q 826 52 906 103 q 653 1 747 1 q 478 52 557 1 q 360 189 400 103 l 50 868 q 48 935 35 901 q 94 985 61 969 q 162 987 128 1000 q 211 940 196 974 l 521 263 q 574 201 539 224 q 653 178 610 178 q 730 201 694 178 q 783 263 765 224 l 1093 940 q 1142 987 1108 974 q 1210 985 1176 1000 z "},"W":{"ha":2111,"x_min":36,"x_max":2076,"o":"m 2017 985 q 2063 935 2050 969 q 2061 868 2076 901 l 1726 136 q 1642 38 1699 74 q 1518 1 1586 1 q 1394 38 1450 1 q 1310 136 1338 74 l 1056 692 l 803 136 q 718 38 775 74 q 593 1 661 1 q 469 38 526 1 q 385 136 413 74 l 51 868 q 49 935 36 901 q 94 985 61 969 q 162 987 128 1000 q 211 940 196 974 l 546 208 q 593 178 560 178 q 642 208 628 178 l 975 940 q 1008 978 986 964 q 1056 993 1029 993 q 1103 978 1082 993 q 1136 940 1125 964 l 1469 208 q 1518 178 1483 178 q 1567 208 1553 178 l 1900 940 q 1949 987 1915 974 q 2017 985 1983 1000 z "},"X":{"ha":1239,"x_min":90,"x_max":1147,"o":"m 1010 642 q 955 561 986 597 q 885 497 924 525 q 1010 353 963 440 l 1131 132 q 1137 65 1147 100 q 1094 13 1126 29 q 1053 1 1076 1 q 1008 13 1029 1 q 975 47 986 25 l 856 268 q 757 371 819 333 q 619 408 694 408 q 482 371 544 408 q 383 268 419 333 l 264 47 q 231 13 251 25 q 186 1 210 1 q 165 3 175 1 q 144 13 154 6 q 101 65 113 29 q 108 132 90 100 l 228 353 q 353 497 276 440 q 228 642 275 556 l 108 863 q 101 929 90 894 q 144 982 113 964 q 211 989 176 1000 q 264 946 246 978 l 383 726 q 482 622 419 660 q 619 585 544 585 q 757 622 694 585 q 856 726 819 660 l 975 946 q 1028 989 993 978 q 1094 982 1063 1000 q 1137 929 1126 964 q 1131 863 1147 894 l 1010 642 l 1010 642 z "},"Y":{"ha":1128,"x_min":35,"x_max":1092,"o":"m 1036 983 q 1081 932 1069 967 q 1075 864 1092 897 l 951 618 q 883 521 924 565 q 790 444 843 476 q 651 390 725 404 l 651 90 q 626 27 651 53 q 564 1 600 1 q 501 27 528 1 q 475 90 475 53 l 475 390 q 336 444 400 406 q 244 521 285 476 q 176 618 204 565 l 51 864 q 47 932 35 897 q 90 983 58 967 q 158 988 122 1000 q 210 944 193 976 l 333 699 q 428 594 367 632 q 564 557 490 557 q 699 594 638 557 q 793 699 760 632 l 918 944 q 969 988 935 976 q 1036 983 1004 1000 z "},"Z":{"ha":1238,"x_min":97,"x_max":1140,"o":"m 1024 178 q 1085 152 1060 178 q 1111 90 1111 126 q 1085 27 1111 53 q 1024 1 1060 1 l 358 1 q 256 22 304 1 q 173 77 208 42 q 117 160 138 113 q 97 261 97 207 q 112 347 97 306 q 154 424 126 389 q 219 482 182 458 q 300 515 257 506 l 899 651 q 946 681 928 658 q 964 732 964 703 q 940 792 964 768 q 881 817 915 817 l 215 817 q 153 842 179 817 q 128 904 128 868 q 153 967 128 940 q 215 993 179 993 l 881 993 q 982 972 935 993 q 1065 916 1029 951 q 1120 833 1100 881 q 1140 732 1140 786 q 1083 569 1140 642 q 938 479 1028 499 l 339 343 q 292 314 311 336 q 274 261 274 292 q 298 202 274 226 q 358 178 322 178 l 1024 178 l 1024 178 z "},"D":{"ha":1238,"x_min":97,"x_max":1140,"o":"m 994 847 q 1101 690 1064 778 q 1140 497 1140 596 q 1101 304 1140 399 q 994 146 1064 215 q 838 40 928 79 q 644 1 747 1 l 185 1 q 123 27 149 1 q 97 90 97 53 q 123 152 97 126 q 185 178 149 178 l 644 178 q 769 203 711 178 q 870 272 826 228 q 939 373 914 315 q 964 497 964 431 q 939 621 964 563 q 870 723 914 679 q 769 792 826 767 q 644 817 711 817 l 274 817 l 274 497 q 248 435 274 461 q 185 408 222 408 q 123 435 149 408 q 97 497 97 461 l 97 904 q 123 967 97 940 q 185 993 149 993 l 644 993 q 838 954 743 993 q 922 908 882 935 q 994 847 961 882 z "},"a":{"ha":1238,"x_min":97,"x_max":1140,"o":"m 810 993 q 937 968 876 993 q 1044 896 997 943 q 1116 788 1092 849 q 1140 661 1140 728 l 1140 90 q 1115 27 1140 53 q 1053 1 1089 1 q 990 27 1017 1 q 964 90 964 53 l 964 408 l 390 408 q 308 375 342 408 q 275 293 275 342 q 308 211 275 244 q 390 178 342 178 l 619 178 q 682 152 656 178 q 708 90 708 126 q 682 27 708 53 q 619 1 656 1 l 390 1 q 276 24 329 1 q 183 87 224 47 q 120 179 143 126 q 97 293 97 232 q 120 406 97 353 q 183 499 143 460 q 276 562 224 539 q 390 585 329 585 l 964 585 l 964 661 q 951 722 964 693 q 918 771 939 750 q 869 804 897 792 q 810 817 842 817 l 260 817 q 197 842 224 817 q 171 904 171 868 q 197 967 171 940 q 260 993 224 993 l 810 993 l 810 993 z "},"b":{"ha":1238,"x_min":97,"x_max":1140,"o":"m 849 993 q 962 970 908 993 q 1055 908 1015 947 q 1117 815 1094 868 q 1140 701 1140 761 q 1118 590 1140 642 q 1057 497 1096 538 q 1118 406 1096 458 q 1140 294 1140 354 l 1140 293 q 1117 179 1140 232 q 1055 87 1094 126 q 962 24 1015 47 q 849 1 908 1 l 186 1 q 124 27 150 1 q 97 90 97 53 l 97 497 q 124 560 97 535 q 186 586 150 586 l 849 586 q 931 619 897 586 q 964 701 964 653 q 931 783 964 749 q 849 817 897 817 l 186 817 q 124 842 150 817 q 97 904 97 868 q 124 967 97 940 q 186 993 150 993 l 849 993 m 964 294 q 931 376 964 343 q 849 410 897 410 l 274 410 l 274 178 l 849 178 q 931 211 897 178 q 964 293 964 244 l 964 294 z "},"c":{"ha":1238,"x_min":97,"x_max":1140,"o":"m 593 817 q 469 792 526 817 q 367 723 411 767 q 299 621 324 679 q 274 497 274 563 q 299 373 274 431 q 367 272 324 315 q 469 203 411 228 q 593 178 526 178 l 1051 178 q 1114 152 1088 178 q 1140 90 1140 126 q 1114 27 1140 53 q 1051 1 1088 1 l 593 1 q 400 40 490 1 q 243 146 311 78 q 136 304 174 215 q 97 497 97 394 q 136 690 97 600 q 243 847 174 778 q 400 954 310 917 q 593 993 494 993 l 1051 993 q 1114 967 1088 993 q 1140 904 1140 940 q 1114 842 1140 868 q 1051 817 1088 817 l 593 817 l 593 817 z "},"d":{"ha":1239,"x_min":94,"x_max":1142,"o":"m 996 847 q 1101 690 1067 776 q 1142 497 1142 597 q 1101 304 1142 397 q 996 146 1067 217 q 839 40 925 78 q 646 1 749 1 l 186 1 q 124 27 150 1 q 99 90 99 53 l 99 393 q 124 455 99 429 q 186 481 150 481 q 249 455 222 481 q 275 393 275 429 l 275 178 l 646 178 q 674 179 660 178 q 701 183 688 181 l 119 846 q 99 891 103 865 q 106 940 94 917 q 138 978 117 964 q 186 993 160 993 l 646 993 q 839 954 744 993 q 996 847 926 917 m 864 264 q 938 368 911 308 q 964 497 964 428 q 939 621 964 563 q 871 723 914 679 q 769 792 828 767 q 646 817 711 817 l 381 817 l 864 264 z "},"e":{"ha":1238,"x_min":97,"x_max":1140,"o":"m 274 408 l 274 343 q 287 278 274 308 q 322 226 300 249 q 375 191 344 204 q 439 178 406 178 l 979 178 q 1041 152 1015 178 q 1067 90 1067 126 q 1041 27 1067 53 q 979 1 1015 1 l 439 1 q 308 27 369 1 q 197 101 246 53 q 123 212 149 150 q 97 343 97 274 l 97 649 q 124 781 97 718 q 199 892 150 843 q 310 967 247 940 q 442 993 372 993 l 849 993 q 962 970 908 993 q 1055 907 1015 947 q 1117 813 1094 867 q 1140 700 1140 760 q 1117 587 1140 640 q 1055 494 1094 533 q 962 431 1015 454 q 849 408 908 408 l 274 408 m 274 585 l 849 585 q 931 619 897 585 q 964 700 964 653 q 931 783 964 749 q 849 817 897 817 l 442 817 q 376 803 407 817 q 323 767 346 790 q 287 714 300 744 q 274 649 274 683 l 274 585 z "},"f":{"ha":1238,"x_min":97,"x_max":1140,"o":"m 1053 585 q 1115 559 1089 585 q 1140 497 1140 533 q 1115 435 1140 461 q 1053 408 1089 408 l 528 408 q 465 435 492 408 q 439 497 439 461 q 465 559 439 533 q 528 585 492 585 l 1053 585 m 274 817 l 274 90 q 248 27 274 53 q 186 1 222 1 q 124 27 150 1 q 97 90 97 53 l 97 904 q 124 967 97 940 q 186 993 150 993 l 1053 993 q 1115 967 1089 993 q 1140 904 1140 940 q 1115 842 1140 868 q 1053 817 1089 817 l 274 817 z "},"g":{"ha":1228,"x_min":97,"x_max":1131,"o":"m 1043 547 q 1105 521 1079 547 q 1131 458 1131 494 l 1131 178 q 1093 106 1131 132 q 1063 87 1090 103 q 985 51 1035 71 q 851 14 921 26 q 707 1 781 1 l 638 1 q 415 38 515 1 q 240 146 314 75 q 133 306 169 213 q 97 497 97 397 q 133 688 97 599 q 240 849 169 779 q 415 956 314 919 q 638 993 515 993 l 707 993 q 904 965 813 993 q 988 932 949 951 q 1063 885 1028 913 q 1097 826 1092 863 q 1079 761 1101 790 q 1021 727 1057 732 q 956 744 985 722 q 707 817 863 817 l 638 817 q 487 794 554 817 q 372 731 419 772 q 300 630 325 689 q 275 497 275 571 q 300 365 275 424 q 372 264 325 306 q 487 200 419 222 q 638 178 554 178 l 707 178 q 829 190 776 178 q 915 214 882 201 q 954 231 936 221 l 954 369 l 615 369 q 553 396 579 369 q 526 458 526 422 q 553 521 526 494 q 615 547 579 547 l 1043 547 l 1043 547 z "},"h":{"ha":1238,"x_min":97,"x_max":1140,"o":"m 1051 993 q 1114 967 1088 993 q 1140 904 1140 940 l 1140 90 q 1114 27 1140 53 q 1051 1 1088 1 q 990 27 1015 1 q 964 90 964 53 l 964 397 l 274 397 l 274 90 q 248 27 274 53 q 186 1 222 1 q 123 27 149 1 q 97 90 97 53 l 97 904 q 123 967 97 940 q 186 993 149 993 q 248 967 222 993 q 274 904 274 940 l 274 574 l 964 574 l 964 904 q 990 967 964 940 q 1051 993 1015 993 z "},"i":{"ha":871,"x_min":97,"x_max":774,"o":"m 524 817 l 524 178 l 685 178 q 748 152 722 178 q 774 90 774 126 q 748 27 774 53 q 685 1 722 1 l 186 1 q 124 27 150 1 q 97 90 97 53 q 124 152 97 126 q 186 178 150 178 l 347 178 l 347 817 l 186 817 q 124 842 150 817 q 97 904 97 868 q 124 967 97 940 q 186 993 150 993 l 685 993 q 748 967 722 993 q 774 904 774 940 q 748 842 774 868 q 685 817 722 817 l 524 817 z "},"j":{"ha":1228,"x_min":97,"x_max":1131,"o":"m 1043 993 q 1105 967 1079 993 q 1131 904 1131 940 l 1131 497 q 1096 306 1131 393 q 989 146 1060 213 q 815 38 915 75 q 592 1 714 1 l 521 1 q 299 37 399 1 q 125 143 199 72 q 98 206 99 169 q 124 268 97 242 q 185 296 149 296 q 247 271 221 296 q 521 178 344 178 l 592 178 q 742 200 675 178 q 857 264 810 222 q 929 365 904 306 q 954 497 954 424 l 954 817 l 615 817 q 553 842 579 817 q 526 904 526 868 q 553 967 526 940 q 615 993 579 993 l 1043 993 l 1043 993 z "},"k":{"ha":1208,"x_min":97,"x_max":1111,"o":"m 1072 711 q 965 554 1035 624 q 933 524 950 539 q 897 497 917 510 q 933 470 917 485 q 965 440 950 456 q 1072 282 1035 371 q 1111 90 1111 188 q 1085 27 1111 53 q 1022 1 1058 1 q 960 27 986 1 q 935 90 935 53 q 910 213 935 154 q 840 315 886 271 q 738 384 796 360 q 615 408 679 408 l 274 408 l 274 90 q 248 27 274 53 q 186 1 222 1 q 124 27 150 1 q 97 90 97 53 l 97 904 q 124 967 97 940 q 186 993 150 993 q 248 967 222 993 q 274 904 274 940 l 274 585 l 615 585 q 738 609 679 585 q 840 679 796 633 q 910 782 886 724 q 935 904 935 840 q 960 967 935 940 q 1022 993 986 993 q 1085 967 1058 993 q 1111 904 1111 940 q 1072 711 1111 806 z "},"l":{"ha":1119,"x_min":97,"x_max":1022,"o":"m 933 178 q 996 152 969 178 q 1022 90 1022 126 q 996 27 1022 53 q 933 1 969 1 l 499 1 q 345 31 418 1 q 214 119 272 61 q 127 249 157 176 q 97 403 97 322 l 97 904 q 123 967 97 940 q 185 993 149 993 q 247 967 221 993 q 274 904 274 940 l 274 403 q 292 316 274 357 q 340 244 310 275 q 412 196 371 214 q 499 178 453 178 l 933 178 l 933 178 z "},"m":{"ha":1532,"x_min":83,"x_max":1449,"o":"m 1154 993 q 1269 970 1215 993 q 1363 907 1322 947 q 1426 813 1403 867 q 1449 699 1449 760 l 1449 90 q 1423 27 1449 53 q 1360 1 1397 1 q 1298 27 1324 1 q 1272 90 1272 53 l 1272 699 q 1263 744 1272 722 q 1238 781 1254 765 q 1201 807 1222 797 q 1154 817 1179 817 q 1038 793 1092 817 q 942 728 983 769 q 878 633 901 688 q 854 515 854 578 l 854 90 q 828 27 854 53 q 767 1 803 1 q 703 27 729 1 q 678 90 678 53 l 678 515 q 654 633 678 578 q 590 728 631 688 q 494 793 549 769 q 378 817 440 817 q 331 807 353 817 q 294 781 310 797 q 269 744 278 765 q 260 699 260 722 l 260 90 q 234 27 260 53 q 172 1 208 1 q 110 27 136 1 q 83 90 83 53 l 83 699 q 106 813 83 760 q 169 907 129 867 q 263 970 210 947 q 378 993 317 993 q 564 956 474 993 q 644 911 606 936 q 715 853 682 886 q 767 793 743 824 q 790 824 778 808 q 818 853 803 839 q 888 911 850 886 q 969 956 926 936 q 1154 993 1057 993 z "},"n":{"ha":1238,"x_min":97,"x_max":1140,"o":"m 1011 864 q 1106 724 1072 800 q 1140 551 1140 642 l 1140 90 q 1115 27 1140 53 q 1053 1 1089 1 q 990 27 1015 1 q 964 90 964 53 l 964 551 q 943 654 964 606 q 886 739 922 703 q 801 796 850 775 q 699 817 753 817 l 539 817 q 436 796 485 817 q 351 739 388 775 q 294 654 315 703 q 274 551 274 606 l 274 90 q 248 27 274 53 q 186 1 222 1 q 124 27 150 1 q 97 90 97 53 l 97 551 q 106 639 97 596 q 132 724 115 682 q 226 864 165 800 q 367 958 288 925 q 539 993 451 993 l 699 993 q 871 958 786 993 q 1011 864 950 925 z "},"o":{"ha":1343,"x_min":97,"x_max":1246,"o":"m 1104 849 q 1211 688 1172 782 q 1238 595 1229 643 q 1246 497 1246 547 q 1211 306 1246 393 q 1166 219 1192 260 q 1104 146 1140 179 q 930 38 1031 75 q 707 1 829 1 l 636 1 q 413 38 514 1 q 239 146 313 75 q 132 306 168 213 q 97 497 97 393 q 106 595 97 547 q 132 688 114 643 q 239 849 168 779 q 413 956 313 919 q 636 993 514 993 l 707 993 q 930 956 829 993 q 1104 849 1031 919 m 707 178 q 858 200 790 178 q 972 264 925 222 q 1044 365 1019 306 q 1069 497 1069 424 q 1044 630 1069 571 q 972 731 1019 689 q 858 794 925 772 q 707 817 790 817 l 636 817 q 485 794 553 817 q 371 731 418 772 q 299 630 324 689 q 274 497 274 571 q 299 365 274 424 q 371 264 324 306 q 485 200 418 222 q 636 178 553 178 l 707 178 z "},"p":{"ha":1238,"x_min":97,"x_max":1140,"o":"m 1043 894 q 1115 785 1090 846 q 1140 657 1140 725 q 1115 528 1140 589 q 1043 419 1090 468 q 933 347 994 372 q 806 321 872 321 l 535 321 q 473 347 499 321 q 447 410 447 374 q 473 472 447 446 q 535 499 499 499 l 806 499 q 867 511 839 499 q 917 545 896 524 q 951 595 939 567 q 964 657 964 624 q 951 719 964 690 q 917 769 939 747 q 867 804 896 792 q 806 817 839 817 l 275 817 l 275 90 q 249 27 275 53 q 186 1 222 1 q 124 27 150 1 q 97 90 97 53 l 97 904 q 124 967 97 940 q 186 993 150 993 l 806 993 q 933 967 872 993 q 1043 894 994 942 z "},"q":{"ha":1344,"x_min":97,"x_max":1253,"o":"m 1181 57 q 1235 17 1217 47 q 1244 -50 1253 -14 q 1212 -99 1236 -81 q 1158 -117 1188 -117 q 1136 -114 1150 -117 l 696 1 l 638 1 q 413 38 514 1 q 239 146 313 75 q 132 306 169 213 q 97 497 97 399 q 106 595 97 547 q 132 688 115 643 q 239 849 169 779 q 413 956 313 919 q 638 993 514 993 l 707 993 q 931 956 829 993 q 1106 849 1032 919 q 1211 688 1176 778 q 1247 497 1247 599 q 1211 306 1247 397 q 1106 146 1175 214 q 1040 94 1074 117 l 1181 57 m 274 497 q 299 365 274 424 q 371 264 324 306 q 485 200 418 222 q 638 178 553 178 l 706 178 l 708 178 q 859 200 792 178 q 973 264 926 222 q 1044 365 1019 306 q 1069 497 1069 424 q 1044 630 1069 571 q 972 731 1019 689 q 858 794 925 772 q 707 817 790 817 l 638 817 q 485 794 553 817 q 371 731 418 772 q 299 630 324 689 q 274 497 274 571 z "},"r":{"ha":1315,"x_min":97,"x_max":1218,"o":"m 1131 178 q 1192 152 1167 178 q 1218 90 1218 126 q 1192 27 1218 53 q 1131 1 1167 1 q 895 24 1003 1 q 706 90 788 46 q 553 222 608 143 q 488 400 499 300 l 488 401 l 488 403 l 488 406 l 488 408 l 488 410 q 490 432 488 418 q 492 435 490 433 l 492 436 l 492 438 q 510 468 499 457 l 510 469 l 511 469 q 540 490 526 485 q 542 492 540 490 l 543 492 q 546 493 544 492 q 550 494 549 493 q 556 496 553 496 q 563 497 560 496 l 567 497 l 568 497 l 571 497 l 575 497 l 575 499 l 576 499 l 804 499 q 866 511 838 499 q 916 545 894 524 q 950 595 938 567 q 963 657 963 624 q 950 719 963 690 q 916 769 938 747 q 866 804 894 792 q 804 817 838 817 l 274 817 l 274 90 q 247 27 274 53 q 185 1 221 1 q 123 27 149 1 q 97 90 97 53 l 97 904 q 123 967 97 940 q 185 993 149 993 l 804 993 q 933 967 872 993 q 1042 894 993 942 q 1115 785 1089 846 q 1140 657 1140 725 q 1115 528 1140 589 q 1042 419 1089 468 q 933 347 993 372 q 804 321 872 321 l 699 321 q 789 246 729 278 q 1131 178 917 178 z "},"s":{"ha":1238,"x_min":97,"x_max":1140,"o":"m 849 585 q 962 562 908 585 q 1055 499 1015 539 q 1117 406 1094 460 q 1140 293 1140 353 q 1117 179 1140 232 q 1055 87 1094 126 q 962 24 1015 47 q 849 1 908 1 l 244 1 q 182 27 208 1 q 156 90 156 53 q 182 152 156 126 q 244 178 208 178 l 849 178 q 930 211 896 178 q 964 293 964 244 q 930 375 964 342 q 849 408 896 408 l 389 408 q 275 431 328 408 q 183 494 222 454 q 120 587 143 533 q 97 700 97 640 q 120 813 97 760 q 183 907 143 867 q 275 970 222 947 q 389 993 328 993 l 993 993 q 1055 967 1029 993 q 1081 904 1081 940 q 1055 842 1081 868 q 993 817 1029 817 l 389 817 q 307 783 340 817 q 274 700 274 749 q 307 619 274 653 q 389 585 340 585 l 849 585 l 849 585 z "},"t":{"ha":1238,"x_min":97,"x_max":1140,"o":"m 1053 993 q 1115 967 1089 993 q 1140 904 1140 940 q 1115 842 1140 868 q 1053 817 1089 817 l 707 817 l 707 90 q 681 27 707 53 q 619 1 656 1 q 557 27 583 1 q 531 90 531 53 l 531 817 l 186 817 q 124 842 150 817 q 97 904 97 868 q 124 967 97 940 q 186 993 150 993 l 1053 993 l 1053 993 z "},"u":{"ha":1238,"x_min":97,"x_max":1140,"o":"m 1053 993 q 1115 967 1089 993 q 1140 904 1140 940 l 1140 497 q 1133 400 1140 447 q 1110 310 1125 353 q 1015 149 1079 218 q 856 39 949 76 q 650 1 763 1 l 588 1 q 383 39 475 1 q 224 149 290 76 q 128 310 161 217 q 97 497 97 399 l 97 904 q 124 967 97 940 q 186 993 150 993 q 248 967 222 993 q 274 904 274 940 l 274 497 q 290 382 274 439 q 344 280 307 325 q 442 206 382 235 q 588 178 501 178 l 650 178 q 797 206 738 178 q 894 280 857 235 q 947 382 931 325 q 964 497 964 439 l 964 904 q 990 967 964 940 q 1053 993 1017 993 z "},"v":{"ha":1304,"x_min":35,"x_max":1269,"o":"m 1210 985 q 1256 935 1243 969 q 1254 868 1269 901 l 944 189 q 826 52 904 103 q 651 1 747 1 q 478 52 557 1 q 360 189 400 103 l 50 868 q 48 935 35 901 q 94 985 61 969 q 162 987 128 1000 q 211 940 196 974 l 521 263 q 574 201 539 224 q 651 178 610 178 q 730 201 694 178 q 783 263 765 224 l 1093 940 q 1142 987 1108 974 q 1210 985 1176 1000 z "},"w":{"ha":1763,"x_min":97,"x_max":1665,"o":"m 1576 993 q 1639 967 1613 993 q 1665 904 1665 940 l 1665 424 q 1658 341 1665 381 q 1639 264 1651 301 q 1560 128 1611 186 q 1426 33 1503 65 q 1254 1 1349 1 l 1204 1 q 897 128 1011 1 q 889 138 893 133 q 881 147 885 142 q 872 138 876 142 q 864 128 868 133 q 731 33 808 65 q 558 1 653 1 l 508 1 q 335 33 413 1 q 203 128 258 65 q 122 264 150 185 q 97 424 97 339 l 97 904 q 123 967 97 940 q 186 993 149 993 q 248 967 222 993 q 274 904 274 940 l 274 424 q 280 360 274 401 q 310 278 286 319 q 380 208 333 238 q 508 178 426 178 l 558 178 q 687 208 640 178 q 757 278 733 238 q 787 360 781 319 q 793 424 793 401 l 793 904 q 819 967 793 940 q 881 993 844 993 q 943 967 917 993 q 969 904 969 940 l 969 424 q 976 360 969 401 q 1006 278 982 319 q 1076 208 1029 238 q 1204 178 1122 178 l 1254 178 q 1382 208 1335 178 q 1452 278 1429 238 q 1481 360 1475 319 q 1488 424 1488 401 l 1488 904 q 1514 967 1488 940 q 1576 993 1540 993 z "},"x":{"ha":1239,"x_min":90,"x_max":1147,"o":"m 1010 642 q 955 561 986 597 q 885 497 924 525 q 1010 353 963 440 l 1131 132 q 1137 65 1147 100 q 1094 13 1126 29 q 1053 1 1076 1 q 1008 13 1029 1 q 975 47 986 25 l 856 268 q 757 371 819 333 q 619 408 694 408 q 482 371 544 408 q 383 268 419 333 l 264 47 q 231 13 251 25 q 186 1 210 1 q 165 3 175 1 q 144 13 154 6 q 101 65 113 29 q 108 132 90 100 l 228 353 q 353 497 276 440 q 228 642 275 556 l 108 863 q 101 929 90 894 q 144 982 113 964 q 211 989 176 1000 q 264 946 246 978 l 383 726 q 482 622 419 660 q 619 585 544 585 q 757 622 694 585 q 856 726 819 660 l 975 946 q 1027 989 992 978 q 1094 982 1063 1000 q 1137 929 1126 964 q 1131 863 1147 894 l 1010 642 l 1010 642 z "},"y":{"ha":1238,"x_min":96,"x_max":1140,"o":"m 1053 993 q 1115 967 1089 993 q 1140 904 1140 940 l 1140 443 q 1046 136 1140 250 q 699 1 931 1 l 449 1 q 269 40 354 1 q 119 149 183 78 q 97 213 96 176 q 126 274 99 249 q 191 296 154 297 q 251 267 228 294 q 340 201 289 224 q 449 178 392 178 l 699 178 q 911 250 850 178 q 964 443 964 314 l 964 474 q 699 408 858 408 l 539 408 q 193 543 307 408 q 97 850 97 656 l 97 904 q 124 967 97 940 q 186 993 150 993 q 248 967 222 993 q 274 904 274 940 l 274 850 q 328 657 274 719 q 539 585 389 585 l 699 585 q 911 657 850 585 q 964 850 964 721 l 964 904 q 990 967 964 940 q 1053 993 1017 993 z "},"z":{"ha":1238,"x_min":97,"x_max":1140,"o":"m 1024 178 q 1085 152 1060 178 q 1111 90 1111 126 q 1085 27 1111 53 q 1024 1 1060 1 l 358 1 q 256 22 304 1 q 173 77 208 42 q 117 160 138 113 q 97 261 97 207 q 112 347 97 306 q 154 424 126 389 q 219 482 182 458 q 300 515 257 506 l 899 651 q 946 681 928 658 q 964 732 964 703 q 940 792 964 768 q 881 817 915 817 l 215 817 q 153 842 179 817 q 128 904 128 868 q 153 967 128 940 q 215 993 179 993 l 881 993 q 982 972 935 993 q 1065 916 1029 951 q 1120 833 1100 881 q 1140 732 1140 786 q 1083 569 1140 642 q 938 479 1028 499 l 339 343 q 292 314 311 336 q 274 261 274 292 q 298 202 274 226 q 358 178 322 178 l 1024 178 l 1024 178 z "},"~":{"ha":1107,"x_min":92,"x_max":1015,"o":"m 835 604 q 879 657 847 643 q 942 664 911 671 q 994 631 974 657 q 1007 564 1015 604 q 995 526 1006 560 q 957 451 985 492 q 862 358 918 390 q 739 326 806 326 q 668 335 701 326 q 606 359 635 344 q 551 392 576 374 q 503 426 525 410 q 426 477 458 458 q 358 496 394 496 q 326 489 343 496 q 293 454 310 482 q 276 417 282 435 q 272 400 274 408 q 237 342 267 364 q 171 326 207 321 q 113 363 135 333 q 99 428 92 392 q 108 468 99 433 q 142 544 117 503 q 233 640 178 607 q 358 672 289 672 q 435 663 400 672 q 501 638 471 653 q 558 603 532 622 q 608 568 585 585 q 678 520 649 538 q 739 503 707 503 q 770 510 753 503 q 807 544 788 517 q 819 566 814 556 q 828 585 825 576 q 835 604 832 594 z "},"`":{"ha":529,"x_min":97,"x_max":432,"o":"m 406 946 q 432 883 432 919 q 406 821 432 847 q 343 796 378 796 q 310 802 326 796 q 281 821 293 808 l 124 978 q 97 1041 97 1004 q 124 1103 97 1078 q 186 1129 150 1129 q 249 1103 222 1129 l 406 946 z "},"!":{"ha":429,"x_min":97,"x_max":332,"o":"m 214 207 q 260 198 239 207 q 298 173 282 189 q 323 135 314 157 q 332 90 332 114 q 297 7 332 42 q 214 -28 263 -28 q 169 -19 190 -28 q 131 6 147 -10 q 106 44 115 22 q 97 90 97 65 q 131 173 97 139 q 214 207 165 207 m 126 933 q 131 968 125 951 q 149 998 138 985 q 175 1019 160 1011 q 210 1028 190 1026 q 273 1005 246 1029 q 303 944 300 981 l 303 933 l 268 369 q 250 333 267 347 q 211 319 233 318 q 176 335 190 321 q 161 369 163 350 l 126 933 z "},"@":{"ha":1182,"x_min":97,"x_max":1085,"o":"m 786 993 q 903 969 849 993 q 997 905 957 946 q 1061 810 1038 864 q 1085 693 1085 756 l 1085 404 q 1072 339 1085 369 q 1035 285 1058 308 q 983 249 1013 263 q 918 236 953 236 q 853 249 883 236 q 799 285 822 263 q 763 339 776 308 q 750 404 750 369 l 750 440 l 474 440 q 441 427 454 440 q 428 394 428 414 q 441 363 428 375 q 474 350 454 350 l 589 350 q 629 333 613 350 q 646 293 646 317 q 629 253 646 269 q 589 236 613 236 l 474 236 q 412 249 440 236 q 362 283 383 261 q 328 333 340 304 q 315 394 315 361 q 328 456 315 428 q 362 506 340 485 q 412 540 383 528 q 474 553 440 553 l 750 553 l 750 579 q 731 626 750 607 q 685 644 713 644 l 408 644 q 369 661 385 644 q 353 701 353 678 q 369 741 353 725 q 408 757 385 757 l 685 757 q 753 743 721 757 q 810 705 786 729 q 849 649 835 681 q 863 579 863 617 l 863 404 q 878 365 863 381 q 918 350 894 350 q 956 365 940 350 q 972 404 972 381 l 972 693 q 958 766 972 732 q 918 825 943 800 q 859 865 893 850 q 786 879 825 879 l 396 879 q 323 865 357 879 q 264 825 289 850 q 224 766 239 800 q 210 693 210 732 l 210 300 q 224 227 210 261 q 264 168 239 193 q 323 128 289 143 q 396 114 357 114 l 929 114 q 969 98 953 114 q 986 58 986 82 q 969 18 986 35 q 929 1 953 1 l 396 1 q 280 25 335 1 q 185 89 225 49 q 121 184 144 129 q 97 300 97 239 l 97 693 q 121 810 97 756 q 185 905 144 864 q 280 969 225 946 q 396 993 335 993 l 786 993 l 786 993 z "},"#":{"ha":1229,"x_min":97,"x_max":1132,"o":"m 1049 756 q 1108 732 1083 756 q 1132 674 1132 708 q 1108 615 1132 639 q 1049 590 1083 590 l 897 590 l 865 390 l 992 390 q 1051 366 1026 390 q 1075 307 1075 342 q 1051 248 1075 272 q 992 224 1026 224 l 840 224 l 817 71 q 788 21 811 40 q 735 1 765 1 q 721 3 726 1 q 667 35 688 8 q 653 97 647 63 l 672 224 l 474 224 l 450 71 q 422 21 444 40 q 368 1 399 1 q 356 3 360 1 q 301 35 321 8 q 286 97 281 63 l 306 224 l 181 224 q 122 248 146 224 q 97 307 97 272 q 122 366 97 342 q 181 390 146 390 l 332 390 l 363 590 l 238 590 q 178 615 203 590 q 154 674 154 639 q 178 732 154 708 q 238 756 203 756 l 389 756 l 413 908 q 446 963 418 943 q 507 978 474 983 q 562 945 542 972 q 576 883 582 918 l 557 756 l 756 756 l 779 908 q 812 963 785 943 q 874 978 839 983 q 928 945 908 972 q 943 883 949 918 l 924 756 l 1049 756 m 729 590 l 531 590 l 500 390 l 699 390 l 729 590 z "},"$":{"ha":1238,"x_min":97,"x_max":1140,"o":"m 849 585 q 962 562 908 585 q 1055 499 1015 539 q 1117 406 1094 460 q 1140 293 1140 353 q 1117 179 1140 232 q 1055 87 1094 126 q 962 24 1015 47 q 849 1 908 1 l 707 1 l 707 -186 q 681 -248 707 -222 q 619 -274 656 -274 q 557 -248 583 -274 q 531 -186 531 -222 l 531 1 l 244 1 q 183 27 208 1 q 157 90 157 53 q 183 152 157 126 q 244 178 208 178 l 531 178 l 531 408 l 389 408 q 276 431 329 408 q 183 494 222 454 q 120 587 143 533 q 97 700 97 640 q 120 813 97 760 q 183 907 143 867 q 276 970 222 947 q 389 993 329 993 l 531 993 l 531 1126 q 557 1189 531 1163 q 619 1215 583 1215 q 681 1189 656 1215 q 707 1126 707 1163 l 707 993 l 993 993 q 1056 967 1029 993 q 1082 904 1082 940 q 1056 842 1082 868 q 993 817 1029 817 l 707 817 l 707 585 l 849 585 m 531 585 l 531 817 l 389 817 q 308 783 342 817 q 274 700 274 749 q 308 619 274 653 q 389 585 342 585 l 531 585 m 849 178 q 931 211 897 178 q 964 293 964 244 q 931 375 964 342 q 849 408 897 408 l 707 408 l 707 178 l 849 178 z "},"%":{"ha":1121,"x_min":97,"x_max":1025,"o":"m 994 969 q 1024 908 1022 944 q 1000 844 1025 872 l 251 31 q 186 1 224 1 q 126 25 153 1 q 98 86 99 50 q 121 150 97 122 l 869 964 q 931 993 894 992 q 994 969 967 994 m 843 372 q 913 358 881 372 q 971 319 946 344 q 1010 262 996 294 q 1024 192 1024 229 q 1010 122 1024 154 q 971 64 996 89 q 913 25 946 39 q 843 11 881 11 q 773 25 806 11 q 715 64 740 39 q 676 122 690 89 q 663 192 663 154 q 676 262 663 229 q 715 319 690 294 q 773 358 740 344 q 843 372 806 372 m 449 801 q 435 733 449 765 q 397 678 421 701 q 342 640 374 654 q 274 626 310 626 q 206 640 238 626 q 150 678 174 654 q 113 733 126 701 q 99 801 99 765 q 113 869 99 838 q 150 926 126 901 q 206 964 174 950 q 274 978 238 978 q 342 964 310 978 q 397 926 374 950 q 435 869 421 901 q 449 801 449 838 z "},"^":{"ha":1043,"x_min":94,"x_max":949,"o":"m 929 519 q 944 466 949 496 q 917 417 940 436 q 872 401 894 401 q 815 429 836 401 l 521 803 l 228 429 q 171 401 207 401 q 126 417 146 401 q 99 466 103 436 q 114 519 94 496 l 464 964 q 489 985 474 978 q 521 992 504 992 q 553 985 538 992 q 579 964 568 978 l 929 519 l 929 519 z "},"&":{"ha":1385,"x_min":97,"x_max":1288,"o":"m 1199 586 q 1261 560 1235 586 q 1288 497 1288 535 q 1261 435 1288 461 q 1199 410 1235 410 l 1104 410 l 1104 90 q 1078 27 1104 53 q 1017 1 1053 1 l 389 1 q 275 24 328 1 q 183 87 222 47 q 120 179 143 126 q 97 293 97 232 l 97 294 q 140 447 97 378 q 251 551 182 515 q 221 622 232 585 q 210 701 210 660 q 232 813 210 760 q 296 907 254 867 q 390 971 336 949 q 501 993 443 993 l 1017 993 q 1078 967 1053 993 q 1104 904 1104 940 q 1078 842 1104 868 q 1017 817 1053 817 l 501 817 q 421 782 453 817 q 386 701 386 750 q 420 619 386 653 q 501 586 454 586 l 1199 586 m 928 410 l 389 410 q 307 376 340 410 q 274 294 274 343 l 274 293 q 307 211 274 244 q 389 178 340 178 l 928 178 l 928 410 z "},"*":{"ha":693,"x_min":94,"x_max":599,"o":"m 521 836 q 564 833 543 843 q 592 800 585 822 q 588 758 599 778 q 556 731 578 738 l 436 692 l 510 590 q 520 549 524 571 q 497 513 517 526 q 465 501 482 501 q 419 525 436 501 l 346 626 l 272 525 q 226 501 256 501 q 194 513 210 501 q 172 549 175 526 q 182 590 168 571 l 256 692 l 136 731 q 104 758 114 738 q 101 800 94 778 q 128 833 108 822 q 171 836 149 843 l 290 797 l 290 924 q 306 963 290 947 q 346 979 322 979 q 385 963 369 979 q 401 924 401 947 l 401 797 l 521 836 l 521 836 z "},"(":{"ha":582,"x_min":97,"x_max":489,"o":"m 421 82 q 477 25 465 57 q 478 -33 489 -7 q 438 -74 467 -60 q 372 -78 408 -89 q 353 -70 368 -76 q 318 -51 339 -64 q 272 -17 297 -39 q 222 38 247 4 q 135 214 167 110 q 97 497 97 336 q 135 781 97 657 q 222 957 167 885 q 272 1010 247 989 q 318 1045 297 1032 q 353 1065 339 1058 q 372 1072 368 1071 q 438 1069 408 1083 q 478 1028 467 1054 q 477 969 489 1001 q 421 913 465 938 q 399 899 411 907 q 374 878 388 892 q 347 844 361 864 q 319 794 333 824 q 292 722 304 764 q 272 624 279 679 q 264 497 264 568 q 272 371 264 426 q 292 273 279 315 q 319 201 304 231 q 347 150 333 171 q 374 116 361 129 q 399 96 388 103 q 421 82 411 88 z "},")":{"ha":582,"x_min":93,"x_max":485,"o":"m 161 913 q 105 969 117 938 q 104 1028 93 1001 q 144 1069 115 1054 q 210 1072 172 1083 q 228 1065 214 1071 q 264 1045 243 1058 q 309 1010 285 1032 q 358 957 333 989 q 447 781 417 882 q 485 497 485 657 q 447 214 485 336 q 358 38 417 113 q 309 -17 333 4 q 264 -51 285 -39 q 228 -70 243 -64 q 210 -78 214 -76 q 144 -74 172 -89 q 104 -33 115 -60 q 105 25 93 -7 q 161 82 117 57 q 183 96 171 88 q 207 116 194 103 q 235 150 219 129 q 263 201 249 171 q 290 273 278 231 q 310 371 303 315 q 318 497 318 426 q 310 624 318 568 q 290 722 303 679 q 263 794 278 764 q 235 844 249 824 q 183 899 207 882 q 161 913 171 907 z "},"_":{"ha":1033,"x_min":97,"x_max":936,"o":"m 853 85 q 912 60 888 85 q 936 1 936 36 q 912 -58 936 -33 q 853 -82 888 -82 l 181 -82 q 122 -58 146 -82 q 97 1 97 -33 q 122 60 97 36 q 181 85 146 85 l 853 85 l 853 85 z "},"-":{"ha":844,"x_min":97,"x_max":747,"o":"m 664 581 q 723 556 699 581 q 747 497 747 532 q 723 438 747 463 q 664 414 699 414 l 181 414 q 122 438 146 414 q 97 497 97 463 q 122 556 97 532 q 181 581 146 581 l 664 581 l 664 581 z "},"+":{"ha":1021,"x_min":97,"x_max":924,"o":"m 840 581 q 900 556 876 581 q 924 497 924 532 q 900 438 924 463 q 840 414 876 414 l 594 414 l 594 167 q 570 108 594 132 q 511 83 546 83 q 452 108 476 83 q 428 167 428 132 l 428 414 l 181 414 q 122 438 146 414 q 97 497 97 463 q 122 556 97 532 q 181 581 146 581 l 428 581 l 428 826 q 452 885 428 861 q 511 910 476 910 q 570 885 546 910 q 594 826 594 861 l 594 581 l 840 581 l 840 581 z "},"=":{"ha":989,"x_min":97,"x_max":892,"o":"m 808 772 q 867 748 843 772 q 892 689 892 724 q 867 630 892 654 q 808 606 843 606 l 181 606 q 122 630 146 606 q 97 689 97 654 q 122 748 97 724 q 181 772 146 772 l 808 772 m 808 394 q 867 370 843 394 q 892 311 892 346 q 867 251 892 275 q 808 228 843 228 l 181 228 q 122 251 146 228 q 97 311 97 275 q 122 370 97 346 q 181 394 146 394 l 808 394 z "},"[":{"ha":667,"x_min":139,"x_max":569,"o":"m 306 910 l 306 85 l 486 85 q 545 60 521 85 q 569 1 569 36 q 545 -58 569 -33 q 486 -82 521 -82 l 222 -82 q 163 -58 188 -82 q 139 1 139 -33 l 139 993 q 163 1052 139 1028 q 222 1076 188 1076 l 486 1076 q 545 1052 521 1076 q 569 993 569 1028 q 545 933 569 957 q 486 910 521 910 l 306 910 z "},"]":{"ha":667,"x_min":97,"x_max":528,"o":"m 444 1076 q 503 1052 479 1076 q 528 993 528 1028 l 528 1 q 503 -58 528 -33 q 444 -82 479 -82 l 181 -82 q 122 -58 146 -82 q 97 1 97 -33 q 122 60 97 36 q 181 85 146 85 l 361 85 l 361 910 l 181 910 q 122 933 146 910 q 97 993 97 957 q 122 1052 97 1028 q 181 1076 146 1076 l 444 1076 l 444 1076 z "},"{":{"ha":814,"x_min":97,"x_max":717,"o":"m 453 149 q 472 103 453 122 q 517 85 490 85 l 633 85 q 692 60 668 85 q 717 1 717 36 q 692 -58 717 -33 q 633 -82 668 -82 l 517 -82 q 426 -64 468 -82 q 353 -15 385 -46 q 304 59 322 17 q 286 149 286 101 l 286 414 l 181 414 q 122 438 146 414 q 97 497 97 463 q 122 556 97 532 q 181 581 146 581 l 286 581 l 286 846 q 304 935 286 893 q 353 1009 322 978 q 426 1058 385 1040 q 517 1076 468 1076 l 633 1076 q 692 1052 668 1076 q 717 993 717 1028 q 692 933 717 957 q 633 910 668 910 l 517 910 q 472 891 490 910 q 453 846 453 872 l 453 149 z "},"}":{"ha":814,"x_min":97,"x_max":717,"o":"m 633 581 q 692 556 668 581 q 717 497 717 532 q 692 438 717 463 q 633 414 668 414 l 528 414 l 528 149 q 510 59 528 101 q 460 -15 492 17 q 387 -64 429 -46 q 297 -82 344 -82 l 181 -82 q 121 -58 144 -82 q 97 1 97 -33 q 121 60 97 36 q 181 85 144 85 l 297 85 q 342 103 324 85 q 361 149 361 122 l 361 846 q 342 891 361 872 q 297 910 324 910 l 181 910 q 121 933 144 910 q 97 993 97 957 q 121 1052 97 1028 q 181 1076 144 1076 l 297 1076 q 387 1058 344 1076 q 460 1009 429 1040 q 510 935 492 978 q 528 846 528 893 l 528 581 l 633 581 l 633 581 z "},"|":{"ha":371,"x_min":97,"x_max":274,"o":"m 185 1060 q 247 1033 221 1060 q 274 971 274 1007 l 274 -204 q 247 -267 274 -242 q 185 -293 221 -293 q 123 -267 149 -293 q 97 -204 97 -242 l 97 971 q 123 1033 97 1007 q 185 1060 149 1060 z "},"/":{"ha":794,"x_min":92,"x_max":704,"o":"m 649 983 q 692 931 681 965 q 686 864 704 896 l 265 49 q 232 14 254 26 q 186 1 210 1 q 146 11 165 1 q 103 63 114 28 q 108 131 92 99 l 529 944 q 582 988 547 976 q 649 983 617 1000 z "},"<":{"ha":651,"x_min":97,"x_max":556,"o":"m 278 528 q 266 511 268 519 q 264 497 264 503 q 266 483 264 492 q 278 467 268 475 l 528 233 q 554 175 553 210 q 532 115 556 140 q 471 89 506 89 q 414 111 436 89 l 164 344 q 115 413 132 374 q 97 497 97 453 q 115 580 97 540 q 164 649 132 619 l 414 882 q 474 905 439 906 q 532 878 508 904 q 554 819 556 853 q 528 761 553 785 l 278 528 l 278 528 z "},">":{"ha":653,"x_min":97,"x_max":556,"o":"m 489 649 q 538 580 521 619 q 556 497 556 540 q 538 413 556 453 q 489 344 521 374 l 239 111 q 182 89 215 89 q 121 115 147 89 q 99 175 97 140 q 125 233 100 210 l 375 467 q 386 483 383 475 q 389 497 389 492 q 386 511 389 503 q 375 528 383 519 l 125 761 q 99 819 100 785 q 121 878 97 853 q 179 905 144 904 q 239 882 214 906 l 489 649 l 489 649 z "},"?":{"ha":986,"x_min":97,"x_max":889,"o":"m 599 993 q 711 970 658 993 q 803 908 764 947 q 866 815 843 868 q 889 701 889 761 q 866 588 889 640 q 803 495 843 535 q 711 433 764 456 q 599 410 658 410 l 274 410 l 274 378 q 248 316 274 342 q 186 290 222 290 q 124 316 150 290 q 97 378 97 342 l 97 497 q 124 560 97 535 q 186 586 150 586 l 599 586 q 679 619 646 586 q 713 701 713 653 q 679 782 713 749 q 599 815 646 815 l 186 815 q 124 842 150 815 q 97 904 97 868 q 124 967 97 940 q 186 993 150 993 l 599 993 m 208 224 q 287 191 254 224 q 319 113 319 158 q 287 34 319 67 q 208 1 254 1 q 130 34 163 1 q 97 113 97 67 q 130 191 97 158 q 208 224 163 224 z "},":":{"ha":417,"x_min":97,"x_max":319,"o":"m 208 224 q 287 191 254 224 q 319 113 319 158 q 287 34 319 67 q 208 1 254 1 q 130 34 163 1 q 97 113 97 67 q 130 191 97 158 q 208 224 163 224 m 208 882 q 287 849 254 882 q 319 771 319 817 q 287 692 319 724 q 208 660 254 660 q 130 692 163 660 q 97 771 97 724 q 130 849 97 817 q 208 882 163 882 z "},";":{"ha":450,"x_min":97,"x_max":356,"o":"m 301 157 q 332 103 318 135 q 351 -14 356 44 q 342 -72 350 -44 q 321 -126 335 -100 q 286 -174 306 -151 q 265 -194 276 -185 q 242 -211 254 -204 q 199 -219 222 -224 q 164 -194 176 -214 q 155 -156 153 -176 q 172 -122 157 -136 l 175 -119 q 206 -72 197 -100 q 213 -14 215 -46 q 194 36 208 13 q 157 71 181 58 q 119 122 128 89 q 128 186 110 156 q 179 225 146 217 q 243 215 213 233 l 256 207 l 260 203 q 301 157 282 182 m 208 660 q 130 692 163 660 q 97 771 97 724 q 130 849 97 817 q 208 882 163 882 q 287 849 254 882 q 319 771 319 817 q 287 692 319 724 q 208 660 254 660 z "},".":{"ha":417,"x_min":97,"x_max":319,"o":"m 208 224 q 287 191 254 224 q 319 113 319 158 q 287 34 319 67 q 208 1 254 1 q 130 34 163 1 q 97 113 97 67 q 130 191 97 158 q 208 224 163 224 z "},",":{"ha":432,"x_min":92,"x_max":339,"o":"m 283 157 q 327 63 315 115 q 331 -40 339 11 q 297 -137 324 -92 q 224 -211 269 -182 q 182 -219 203 -225 q 149 -198 161 -214 q 137 -160 138 -182 q 156 -122 136 -139 q 189 -72 178 -101 q 194 -15 197 -44 q 176 36 192 14 q 140 71 163 57 q 101 122 110 89 q 110 186 92 156 q 154 224 131 215 q 201 225 178 232 q 246 199 225 218 q 283 157 267 181 z "},"'":{"ha":361,"x_min":97,"x_max":264,"o":"m 181 1154 q 240 1130 215 1154 q 264 1071 264 1106 l 264 850 q 240 790 264 814 q 181 767 215 767 q 122 790 146 767 q 97 850 97 814 l 97 1071 q 122 1130 97 1106 q 181 1154 146 1154 z "},"\"":{"ha":688,"x_min":97,"x_max":590,"o":"m 590 850 q 566 790 590 814 q 507 767 542 767 q 448 790 472 767 q 424 850 424 814 l 424 1071 q 448 1130 424 1106 q 507 1154 472 1154 q 566 1130 542 1154 q 590 1071 590 1106 l 590 850 m 264 850 q 240 790 264 814 q 181 767 215 767 q 122 790 146 767 q 97 850 97 814 l 97 1071 q 122 1130 97 1106 q 181 1154 146 1154 q 240 1130 215 1154 q 264 1071 264 1106 l 264 850 z "},"":{"ha":874,"x_min":97,"x_max":776,"o":"m 186 539 q 124 565 150 539 q 97 628 97 592 q 124 690 97 664 q 186 717 150 717 l 349 717 l 349 879 q 375 941 349 915 q 438 967 401 967 q 499 941 474 967 q 525 879 525 915 l 525 717 l 688 717 q 751 690 725 717 q 776 628 776 664 q 751 565 776 592 q 688 539 725 539 l 525 539 l 525 376 q 499 315 525 340 q 438 289 474 289 q 375 315 401 289 q 349 376 349 340 l 349 539 l 186 539 m 688 178 q 751 152 725 178 q 776 90 776 126 q 751 27 776 53 q 688 1 725 1 l 186 1 q 124 27 150 1 q 97 90 97 53 q 124 152 97 126 q 186 178 150 178 l 688 178 z "},"\\":{"ha":794,"x_min":92,"x_max":703,"o":"m 686 131 q 692 63 703 99 q 649 11 681 28 q 608 1 629 1 q 563 14 585 1 q 529 49 540 26 l 108 864 q 103 931 92 896 q 146 983 114 965 q 213 988 178 1000 q 265 944 247 976 l 686 131 z "},"":{"ha":361,"x_min":97,"x_max":264,"o":"m 181 1154 q 240 1130 215 1154 q 264 1071 264 1106 l 264 850 q 240 790 264 814 q 181 767 215 767 q 122 790 146 767 q 97 850 97 814 l 97 1071 q 122 1130 97 1106 q 181 1154 146 1154 z "},"":{"ha":361,"x_min":97,"x_max":264,"o":"m 181 1154 q 240 1130 215 1154 q 264 1071 264 1106 l 264 850 q 240 790 264 814 q 181 767 215 767 q 122 790 146 767 q 97 850 97 814 l 97 1071 q 122 1130 97 1106 q 181 1154 146 1154 z "},"":{"ha":686,"x_min":97,"x_max":589,"o":"m 181 1154 q 240 1130 215 1154 q 264 1071 264 1106 l 264 850 q 240 790 264 814 q 181 767 215 767 q 121 790 144 767 q 97 850 97 814 l 97 1071 q 121 1130 97 1106 q 181 1154 144 1154 m 506 1154 q 565 1130 542 1154 q 589 1071 589 1106 l 589 850 q 565 790 589 814 q 506 767 542 767 q 447 790 471 767 q 422 850 422 814 l 422 1071 q 447 1130 422 1106 q 506 1154 471 1154 z "},"":{"ha":686,"x_min":97,"x_max":589,"o":"m 181 1154 q 240 1130 215 1154 q 264 1071 264 1106 l 264 850 q 240 790 264 814 q 181 767 215 767 q 121 790 144 767 q 97 850 97 814 l 97 1071 q 121 1130 97 1106 q 181 1154 144 1154 m 506 1154 q 565 1130 542 1154 q 589 1071 589 1106 l 589 850 q 565 790 589 814 q 506 767 542 767 q 447 790 471 767 q 422 850 422 814 l 422 1071 q 447 1130 422 1106 q 506 1154 471 1154 z "},"":{"ha":361,"x_min":97,"x_max":264,"o":"m 181 224 q 240 199 215 224 q 264 140 264 175 l 264 -81 q 240 -140 264 -115 q 181 -164 215 -164 q 122 -140 146 -164 q 97 -81 97 -115 l 97 140 q 122 199 97 175 q 181 224 146 224 z "},"":{"ha":686,"x_min":97,"x_max":589,"o":"m 181 224 q 240 199 215 224 q 264 140 264 175 l 264 -81 q 240 -140 264 -115 q 181 -164 215 -164 q 121 -140 144 -164 q 97 -81 97 -115 l 97 140 q 121 199 97 175 q 181 224 144 224 m 506 224 q 565 199 542 224 q 589 140 589 175 l 589 -81 q 565 -140 589 -115 q 506 -164 542 -164 q 447 -140 471 -164 q 422 -81 422 -115 l 422 140 q 447 199 422 175 q 506 224 471 224 z "},"":{"ha":2071,"x_min":35,"x_max":1974,"o":"m 772 815 q 626 774 693 815 q 522 663 558 733 l 482 585 l 1886 585 q 1948 559 1922 585 q 1974 497 1974 533 q 1948 435 1974 461 q 1886 408 1922 408 l 1108 408 l 1108 178 l 1886 178 q 1948 152 1922 178 q 1974 90 1974 126 q 1948 27 1974 53 q 1886 1 1922 1 l 1019 1 q 957 27 983 1 q 931 90 931 53 l 931 408 l 392 408 l 210 50 q 176 14 197 26 q 131 1 154 1 q 90 11 108 1 q 47 63 58 28 q 51 129 35 97 l 364 742 q 533 925 422 857 q 772 993 644 993 l 1019 993 l 1886 993 q 1948 967 1922 993 q 1974 904 1974 940 q 1948 842 1974 868 q 1886 815 1922 815 l 1019 815 l 772 815 l 772 815 z "},"":{"ha":2211,"x_min":97,"x_max":2114,"o":"m 2114 904 q 2088 842 2114 868 q 2025 815 2061 815 l 1136 815 q 1213 688 1182 761 q 1240 585 1232 638 l 2025 585 q 2088 559 2061 585 q 2114 497 2114 533 q 2088 435 2114 461 q 2025 408 2061 408 l 1240 408 q 1213 306 1232 358 q 1136 178 1182 232 l 2025 178 q 2088 152 2061 178 q 2114 90 2114 126 q 2088 27 2114 53 q 2025 1 2061 1 l 638 1 q 414 38 515 1 q 239 146 313 75 q 133 306 169 214 q 97 497 97 397 q 133 688 97 599 q 239 849 168 778 q 414 956 313 919 q 638 993 515 993 l 2025 993 q 2088 967 2061 993 q 2114 904 2114 940 m 707 178 q 859 200 792 178 q 974 264 926 222 q 1046 365 1021 306 q 1071 497 1071 424 q 1046 630 1071 571 q 974 730 1021 689 q 859 793 926 771 q 707 815 792 815 l 638 815 q 487 793 554 815 q 372 730 419 771 q 300 630 325 689 q 275 497 275 571 q 300 365 275 424 q 372 264 325 306 q 487 200 419 222 q 638 178 554 178 l 707 178 z "},"":{"ha":2103,"x_min":97,"x_max":2006,"o":"m 1140 408 l 1140 343 q 1153 278 1140 308 q 1189 226 1167 249 q 1241 191 1211 204 q 1304 178 1271 178 l 1844 178 q 1906 152 1881 178 q 1932 90 1932 126 q 1906 27 1932 53 q 1844 1 1881 1 l 1304 1 q 1174 27 1236 1 q 1064 101 1113 53 q 990 212 1015 150 q 964 343 964 274 l 964 408 l 389 408 q 307 375 340 408 q 274 293 274 342 q 307 211 274 244 q 389 178 340 178 l 699 178 q 761 152 735 178 q 788 90 788 126 q 761 27 788 53 q 699 1 735 1 l 389 1 q 275 24 328 1 q 183 87 222 47 q 120 179 143 126 q 97 293 97 232 q 120 406 97 353 q 183 499 143 460 q 275 562 222 539 q 389 585 328 585 l 964 585 l 964 661 q 951 722 964 693 q 918 771 939 750 q 869 803 897 792 q 808 815 840 815 l 258 815 q 197 842 222 815 q 171 904 171 868 q 197 967 171 940 q 258 993 222 993 l 808 993 q 935 968 875 993 q 1043 896 996 943 q 1056 882 1051 888 q 1064 892 1058 886 q 1175 967 1113 940 q 1307 993 1238 993 l 1714 993 q 1827 970 1774 993 q 1920 907 1881 947 q 1983 813 1960 867 q 2006 700 2006 760 q 1983 587 2006 640 q 1920 494 1960 533 q 1827 431 1881 454 q 1714 408 1774 408 l 1140 408 m 1140 585 l 1714 585 q 1796 619 1763 585 q 1829 700 1829 653 q 1796 782 1829 749 q 1714 815 1763 815 l 1307 815 q 1242 802 1272 815 q 1190 766 1213 789 q 1153 713 1167 743 q 1140 649 1140 683 l 1140 585 z "},"":{"ha":2210,"x_min":97,"x_max":2113,"o":"m 1246 408 l 1246 343 q 1259 278 1246 308 q 1294 226 1272 249 q 1347 191 1317 204 q 1411 178 1376 178 l 1950 178 q 2013 152 1986 178 q 2039 90 2039 126 q 2013 27 2039 53 q 1950 1 1986 1 l 1411 1 q 1280 27 1342 1 q 1169 101 1218 53 q 1121 163 1142 129 l 1104 146 q 930 38 1031 75 q 707 1 829 1 l 636 1 q 413 38 514 1 q 239 146 313 75 q 132 306 168 213 q 97 497 97 393 q 106 595 97 547 q 132 688 114 643 q 239 849 168 779 q 413 956 313 919 q 636 993 514 993 l 707 993 q 930 956 829 993 q 1104 849 1031 919 q 1113 840 1108 844 q 1121 831 1117 835 q 1171 892 1143 865 q 1282 967 1219 940 q 1414 993 1344 993 l 1821 993 q 1934 970 1881 993 q 2027 907 1988 947 q 2090 813 2067 867 q 2113 700 2113 760 q 2090 587 2113 640 q 2027 494 2067 533 q 1934 431 1988 454 q 1821 408 1881 408 l 1246 408 m 1246 585 l 1821 585 q 1903 619 1869 585 q 1936 700 1936 653 q 1903 782 1936 749 q 1821 815 1869 815 l 1414 815 q 1349 802 1379 815 q 1295 766 1318 789 q 1259 713 1272 743 q 1246 649 1246 683 l 1246 585 m 707 178 q 858 200 790 178 q 972 264 925 222 q 1044 365 1019 306 q 1069 497 1069 424 q 1044 630 1069 571 q 972 730 1019 689 q 858 793 925 771 q 707 815 790 815 l 636 815 q 485 793 553 815 q 371 730 418 771 q 299 630 324 689 q 274 497 274 571 q 299 365 274 424 q 371 264 324 306 q 485 200 418 222 q 636 178 553 178 l 707 178 z "},"":{"ha":1238,"x_min":97,"x_max":1140,"o":"m 800 838 q 930 812 868 838 q 1040 738 992 786 q 1115 627 1089 689 q 1140 497 1140 565 q 1115 367 1140 428 q 1040 257 1089 306 q 930 183 992 208 q 800 157 868 157 l 274 157 l 274 90 q 247 27 274 53 q 185 1 221 1 q 123 27 149 1 q 97 90 97 53 l 97 904 q 123 967 97 940 q 185 993 149 993 q 247 967 221 993 q 274 904 274 940 l 274 838 l 800 838 m 800 333 q 863 347 833 333 q 915 382 893 360 q 951 434 938 404 q 964 497 964 464 q 951 560 964 531 q 915 613 938 590 q 863 648 893 635 q 800 661 833 661 l 274 661 l 274 333 l 800 333 z "},"":{"ha":1238,"x_min":97,"x_max":1140,"o":"m 982 553 q 1097 447 1053 517 q 1140 293 1140 378 q 1117 179 1140 232 q 1055 87 1094 126 q 962 24 1015 47 q 849 1 908 1 l 521 1 q 459 27 485 1 q 433 90 433 53 q 459 152 433 126 q 521 178 485 178 l 849 178 q 931 211 897 178 q 964 293 964 244 q 931 375 964 342 q 849 408 897 408 l 556 408 q 494 435 519 408 q 468 497 468 461 q 494 559 468 533 q 556 585 519 585 l 731 585 q 813 619 779 585 q 846 700 846 653 q 813 782 846 749 q 731 815 779 815 l 472 815 q 396 800 432 815 q 333 758 360 785 q 290 694 306 731 q 274 617 274 658 l 274 -28 q 248 -90 274 -64 q 186 -117 222 -117 q 124 -90 150 -117 q 97 -28 97 -64 l 97 617 q 126 761 97 693 q 207 882 154 829 q 328 965 260 936 q 472 993 397 993 l 731 993 q 844 970 790 993 q 937 907 897 947 q 999 813 976 867 q 1022 700 1022 760 q 982 553 1022 618 z "},"":{"ha":1238,"x_min":97,"x_max":1140,"o":"m 800 838 q 930 812 868 838 q 1040 738 992 786 q 1115 627 1089 689 q 1140 497 1140 565 q 1115 367 1140 428 q 1040 257 1089 306 q 930 183 992 208 q 800 157 868 157 l 274 157 l 274 90 q 247 27 274 53 q 185 1 221 1 q 123 27 149 1 q 97 90 97 53 l 97 904 q 123 967 97 940 q 185 993 149 993 q 247 967 221 993 q 274 904 274 940 l 274 838 l 800 838 m 800 333 q 863 347 833 333 q 915 382 893 360 q 950 434 938 404 q 963 497 963 464 q 950 560 963 531 q 915 613 938 590 q 863 648 893 635 q 800 661 833 661 l 274 661 l 274 333 l 800 333 z "},"":{"ha":1475,"x_min":97,"x_max":1378,"o":"m 829 815 q 700 788 760 815 q 596 714 640 761 l 1238 714 q 1301 688 1275 714 q 1326 626 1326 663 q 1301 563 1326 589 q 1238 538 1275 538 l 514 538 q 511 517 511 526 q 511 497 511 508 q 511 483 511 490 q 513 468 511 475 l 1238 468 q 1301 442 1275 468 q 1326 379 1326 415 q 1301 317 1326 343 q 1238 292 1275 292 l 586 292 q 693 208 631 239 q 829 178 756 178 l 1289 178 q 1351 152 1325 178 q 1378 90 1378 126 q 1351 27 1378 53 q 1289 1 1325 1 l 829 1 q 638 40 728 1 q 479 147 549 78 q 379 292 417 210 l 186 292 q 124 317 150 292 q 97 379 97 343 q 124 442 97 415 q 186 468 150 468 l 335 468 l 335 497 q 335 517 335 508 q 336 538 335 526 l 186 538 q 124 563 150 538 q 97 626 97 589 q 124 688 97 663 q 186 714 150 714 l 385 714 q 479 847 419 788 q 638 954 549 917 q 829 993 732 993 l 1289 993 q 1351 967 1325 993 q 1378 904 1378 940 q 1351 842 1378 868 q 1289 815 1325 815 l 829 815 l 829 815 z "},"":{"ha":1238,"x_min":97,"x_max":1140,"o":"m 781 815 l 781 178 l 1053 178 q 1115 152 1089 178 q 1140 90 1140 126 q 1115 27 1140 53 q 1053 1 1089 1 l 781 1 l 781 -186 q 755 -248 781 -222 q 693 -274 729 -274 q 631 -248 657 -274 q 604 -186 604 -222 l 604 1 l 593 1 q 400 40 490 1 q 243 147 313 78 q 136 304 174 214 q 97 497 97 399 q 136 690 97 596 q 243 847 174 778 q 400 954 313 917 q 593 993 494 993 l 604 993 l 604 1126 q 631 1189 604 1163 q 693 1215 657 1215 q 755 1189 729 1215 q 781 1126 781 1163 l 781 993 l 1053 993 q 1115 967 1089 993 q 1140 904 1140 940 q 1115 842 1140 868 q 1053 815 1089 815 l 781 815 m 604 815 l 593 815 q 469 790 526 815 q 367 722 411 765 q 299 621 324 679 q 274 497 274 563 q 299 373 274 431 q 367 272 324 315 q 469 203 411 228 q 593 178 526 178 l 604 178 l 604 815 z "},"":{"ha":1504,"x_min":97,"x_max":1407,"o":"m 1318 178 q 1381 152 1354 178 q 1407 90 1407 126 q 1381 27 1407 53 q 1318 1 1354 1 l 606 1 l 604 1 l 186 1 q 124 27 150 1 q 97 90 97 53 q 124 152 97 126 q 186 178 150 178 l 468 178 q 457 203 463 190 q 446 231 451 217 q 381 444 401 350 l 186 444 q 124 470 150 444 q 97 532 97 496 q 124 595 97 569 q 186 621 150 621 l 365 621 q 403 762 372 696 q 488 876 433 828 q 637 964 550 935 q 828 993 724 993 l 1318 993 q 1381 967 1354 993 q 1407 904 1407 940 q 1381 842 1407 868 q 1318 815 1354 815 l 828 815 q 607 746 683 815 q 543 621 554 699 l 1238 621 q 1300 595 1274 621 q 1326 532 1326 569 q 1300 470 1326 496 q 1238 444 1274 444 l 563 444 q 609 299 582 371 q 660 178 636 228 l 1318 178 l 1318 178 z "},"":{"ha":1239,"x_min":92,"x_max":1149,"o":"m 1053 369 q 1115 343 1089 369 q 1142 281 1142 317 q 1115 219 1142 244 q 1053 193 1089 193 l 708 193 l 708 90 q 682 27 708 53 q 619 1 656 1 q 558 27 583 1 q 532 90 532 53 l 532 193 l 186 193 q 124 219 150 193 q 99 281 99 244 q 124 343 99 317 q 186 369 150 369 l 532 369 l 532 390 q 393 444 457 406 q 301 521 342 476 q 233 618 261 565 l 108 864 q 103 932 92 897 q 147 983 114 967 q 214 988 179 1000 q 265 944 249 976 l 390 699 q 485 594 424 632 q 619 557 546 557 q 756 594 694 557 q 850 699 817 632 l 975 944 q 1026 988 990 976 q 1093 983 1061 1000 q 1137 932 1125 967 q 1132 864 1149 897 l 1007 618 q 939 521 979 565 q 847 444 899 476 q 708 390 783 406 l 708 369 l 1053 369 l 1053 369 z "},"":{"ha":1554,"x_min":97,"x_max":1457,"o":"m 1369 178 q 1431 152 1406 178 q 1457 90 1457 126 q 1431 27 1457 53 q 1369 1 1406 1 l 656 1 l 236 1 q 174 27 200 1 q 149 90 149 53 q 174 152 149 126 q 236 178 200 178 l 518 178 q 508 203 513 190 q 497 231 503 217 q 475 292 486 258 l 185 292 q 123 317 149 292 q 97 379 97 343 q 123 442 97 415 q 185 468 149 468 l 426 468 q 422 503 424 486 q 417 538 419 521 l 185 538 q 123 563 149 538 q 97 626 97 589 q 123 688 97 663 q 185 714 149 714 l 425 714 q 447 791 432 753 q 489 865 463 829 q 618 961 542 931 q 703 985 658 976 q 803 993 749 993 l 1369 993 q 1431 967 1406 993 q 1457 904 1457 940 q 1431 842 1457 868 q 1369 815 1406 815 l 803 815 q 723 808 754 815 q 672 792 692 801 q 643 772 653 782 q 629 757 633 763 q 607 714 618 742 l 1238 714 q 1300 688 1274 714 q 1326 626 1326 663 q 1300 563 1326 589 q 1238 538 1274 538 l 594 538 q 607 468 599 503 l 1238 468 q 1300 442 1274 468 q 1326 379 1326 415 q 1300 317 1326 343 q 1238 292 1274 292 l 663 292 q 711 178 688 228 l 1369 178 l 1369 178 z "},"":{"ha":714,"x_min":88,"x_max":617,"o":"m 493 993 q 581 957 544 993 q 617 869 617 921 l 617 553 q 601 513 617 529 q 561 497 585 497 q 522 513 538 497 q 506 553 506 529 l 506 594 l 153 594 q 101 629 115 594 q 115 690 88 665 l 410 960 q 493 993 447 993 m 506 869 q 493 882 506 882 q 485 878 489 882 l 296 706 l 506 706 l 506 869 z "},"":{"ha":715,"x_min":97,"x_max":618,"o":"m 467 801 q 525 790 497 801 q 574 757 553 778 q 606 708 594 736 q 618 649 618 681 q 606 590 618 617 q 574 542 594 563 q 525 509 553 521 q 467 497 497 497 l 153 497 q 113 513 129 497 q 97 553 97 529 q 113 592 97 576 q 153 608 129 608 l 467 608 q 495 620 483 608 q 507 649 507 632 q 495 678 507 667 q 467 690 483 690 l 160 690 q 119 707 136 690 q 104 749 104 722 l 118 942 q 136 978 121 963 q 174 993 151 993 l 535 993 q 574 977 558 993 q 590 938 590 961 q 574 898 590 914 q 535 882 558 882 l 226 882 l 219 801 l 467 801 l 467 801 z "},"":{"ha":715,"x_min":97,"x_max":618,"o":"m 465 800 q 525 788 497 800 q 574 756 553 776 q 606 707 594 735 q 618 649 618 679 q 606 590 618 617 q 574 542 594 563 q 525 509 553 521 q 465 497 497 497 l 274 497 q 205 511 238 497 q 149 549 172 525 q 111 605 125 572 q 97 674 97 638 l 97 818 q 111 886 97 854 q 149 942 125 918 q 204 979 172 965 q 272 993 236 993 l 528 993 q 567 977 551 993 q 583 938 583 961 q 567 898 583 914 q 528 882 551 882 l 272 882 q 227 863 246 882 q 208 818 208 844 l 208 800 l 465 800 m 465 608 q 494 620 482 608 q 507 649 507 632 q 494 677 507 665 q 465 689 482 689 l 208 689 l 208 674 q 227 627 208 646 q 274 608 246 608 l 465 608 z "},"":{"ha":715,"x_min":97,"x_max":626,"o":"m 561 993 q 592 984 578 993 q 613 960 606 975 q 603 900 626 925 l 249 515 q 208 497 232 497 q 171 511 185 497 q 152 550 153 526 q 167 590 151 574 l 435 882 l 153 882 q 113 898 129 882 q 97 938 97 914 q 113 977 97 961 q 153 993 129 993 l 561 993 l 561 993 z "},"":{"ha":714,"x_min":97,"x_max":617,"o":"m 468 993 q 526 981 499 993 q 573 949 553 969 q 605 901 593 928 q 617 843 617 874 l 617 839 q 583 744 617 785 q 617 649 617 703 q 605 590 617 617 q 572 542 593 563 q 524 509 551 521 q 465 497 496 497 l 249 497 q 190 509 217 497 q 142 542 163 521 q 109 590 121 563 q 97 649 97 617 q 131 744 97 703 q 97 839 97 785 l 97 843 q 109 901 97 874 q 141 949 121 928 q 188 981 161 969 q 246 993 215 993 l 468 993 m 208 839 q 219 812 208 824 q 246 800 231 800 l 468 800 q 494 812 483 800 q 506 839 506 824 l 506 843 q 494 870 506 858 q 468 882 483 882 l 246 882 q 219 870 231 882 q 208 843 208 858 l 208 839 m 465 608 q 494 620 482 608 q 506 649 506 632 q 494 677 506 665 q 465 689 482 689 l 249 689 q 220 677 232 689 q 208 649 208 665 q 220 620 208 632 q 249 608 232 608 l 465 608 z "},"":{"ha":715,"x_min":97,"x_max":618,"o":"m 442 993 q 510 979 478 993 q 566 941 542 965 q 604 885 590 917 q 618 817 618 853 l 618 672 q 604 604 618 636 q 567 549 590 572 q 511 511 543 525 q 443 497 479 497 l 188 497 q 148 513 164 497 q 132 553 132 529 q 148 592 132 576 q 188 608 164 608 l 443 608 q 488 626 469 608 q 507 672 507 644 l 507 689 l 249 689 q 190 701 217 689 q 142 733 163 713 q 109 781 121 754 q 97 840 97 808 q 109 900 97 872 q 142 949 121 928 q 190 981 163 969 q 249 993 217 993 l 442 993 m 507 817 q 488 863 507 844 q 442 882 469 882 l 249 882 q 220 870 232 882 q 208 840 208 858 q 220 812 208 824 q 249 800 232 800 l 507 800 l 507 817 z "},"":{"ha":765,"x_min":97,"x_max":668,"o":"m 596 921 q 650 842 632 888 q 668 744 668 797 q 650 648 668 693 q 596 568 632 603 q 396 497 518 497 l 369 497 q 169 568 247 497 q 116 648 135 603 q 97 744 97 693 q 116 842 97 797 q 169 921 135 888 q 369 993 246 993 l 396 993 q 596 921 519 993 m 396 608 q 514 645 471 608 q 557 744 557 682 q 514 845 557 808 q 396 882 471 882 l 369 882 q 251 845 294 882 q 208 744 208 808 q 251 645 208 682 q 369 608 294 608 l 396 608 z "},"":{"ha":715,"x_min":97,"x_max":625,"o":"m 532 785 q 593 730 569 767 q 617 649 617 693 q 605 590 617 617 q 572 542 593 563 q 524 509 551 521 q 465 497 496 497 l 153 497 q 113 513 129 497 q 97 553 97 529 q 113 592 97 576 q 153 608 129 608 l 465 608 q 494 620 482 608 q 506 649 506 632 q 494 678 506 667 q 465 690 482 690 l 194 690 q 155 706 171 690 q 139 746 139 722 q 155 785 139 769 q 194 801 171 801 l 411 801 l 461 882 l 153 882 q 113 898 129 882 q 97 938 97 914 q 113 977 97 961 q 153 993 129 993 l 561 993 q 610 964 594 993 q 608 908 625 935 l 532 785 l 532 785 z "},"":{"ha":714,"x_min":97,"x_max":617,"o":"m 249 688 q 220 676 232 688 q 208 647 208 664 l 208 608 l 561 608 q 601 592 585 608 q 617 553 617 576 q 601 513 617 529 q 561 497 585 497 l 153 497 q 113 513 129 497 q 97 553 97 529 l 97 647 q 109 706 97 678 q 142 754 121 733 q 190 787 163 775 q 249 799 217 799 l 464 799 q 494 811 482 799 q 506 840 506 824 q 494 869 506 857 q 464 882 482 882 l 181 882 q 141 898 157 882 q 125 938 125 914 q 141 977 125 961 q 181 993 157 993 l 464 993 q 524 981 496 993 q 572 947 551 968 q 605 899 593 926 q 617 840 617 871 q 605 781 617 808 q 572 732 593 753 q 524 699 551 711 q 464 688 496 688 l 249 688 l 249 688 z "},"":{"ha":604,"x_min":93,"x_max":507,"o":"m 451 608 q 491 592 475 608 q 507 553 507 576 q 491 513 507 529 q 451 497 475 497 l 154 497 q 115 513 131 497 q 99 553 99 529 q 115 592 99 576 q 154 608 131 608 l 247 608 l 247 857 l 174 829 q 131 831 151 821 q 101 863 110 840 q 103 904 93 883 q 135 933 113 925 l 283 989 q 335 983 310 1000 q 352 963 346 975 q 358 938 358 951 l 358 608 l 451 608 l 451 608 z "},"":{"ha":715,"x_min":97,"x_max":618,"o":"m 358 1221 q 460 1201 413 1221 q 542 1145 507 1181 q 598 1063 578 1110 q 618 961 618 1015 q 598 860 618 907 q 542 777 578 813 q 460 722 507 742 q 358 701 413 701 q 256 722 304 701 q 173 777 208 742 q 117 860 138 813 q 97 961 97 907 q 117 1063 97 1015 q 173 1145 138 1110 q 256 1201 208 1181 q 358 1221 304 1221 m 358 840 q 444 876 408 840 q 479 961 479 911 q 444 1047 479 1011 q 358 1082 408 1082 q 272 1047 307 1082 q 236 961 236 1011 q 272 876 236 911 q 358 840 307 840 z "},"":{"ha":1081,"x_min":99,"x_max":982,"o":"m 958 897 q 982 838 982 872 q 958 779 982 803 l 840 661 q 883 497 883 588 q 840 333 883 407 l 958 215 q 982 157 982 192 q 958 97 982 122 q 899 74 935 74 q 840 97 864 74 l 718 219 q 540 179 642 179 q 363 219 439 179 l 240 97 q 182 74 217 74 q 122 97 146 74 q 99 157 99 122 q 122 215 99 192 l 240 333 q 197 497 197 407 q 240 661 197 588 l 122 779 q 99 838 99 803 q 122 897 99 872 q 182 921 147 921 q 240 897 217 921 l 363 775 q 540 815 439 815 q 718 775 642 815 l 840 897 q 899 921 864 921 q 958 897 933 921 m 364 497 q 410 386 364 426 q 540 346 457 346 q 670 386 624 346 q 717 497 717 426 q 670 608 717 568 q 540 649 624 649 q 410 608 457 649 q 364 497 364 568 z "},"":{"ha":1026,"x_min":97,"x_max":929,"o":"m 528 233 q 554 175 553 210 q 532 115 556 140 q 471 89 506 89 q 414 111 436 89 l 164 344 q 115 413 132 374 q 97 497 97 453 q 115 580 97 540 q 164 649 132 619 l 414 882 q 474 905 439 906 q 532 878 508 904 q 554 819 556 853 q 528 761 553 785 l 278 528 q 266 511 268 519 q 264 497 264 503 q 266 483 264 492 q 278 467 268 475 l 528 233 m 901 233 q 928 175 926 210 q 906 115 929 140 q 844 89 879 89 q 788 111 811 89 l 538 344 q 489 413 506 374 q 472 497 472 453 q 489 580 472 540 q 538 649 506 619 l 788 882 q 847 905 813 906 q 906 878 882 904 q 928 819 929 853 q 901 761 926 785 l 651 528 q 641 511 643 519 q 639 497 639 503 q 641 483 639 492 q 651 467 643 475 l 901 233 z "},"":{"ha":1025,"x_min":96,"x_max":928,"o":"m 861 649 q 910 580 893 619 q 928 497 928 540 q 910 413 928 453 q 861 344 893 374 l 611 111 q 554 89 589 89 q 494 115 518 89 q 472 175 471 140 q 497 233 472 210 l 747 467 q 759 483 757 475 q 761 497 761 492 q 759 511 761 503 q 747 528 757 519 l 497 761 q 472 819 472 785 q 494 878 471 853 q 552 905 518 904 q 611 882 586 906 l 861 649 m 554 497 q 537 413 554 453 q 488 344 519 374 l 238 111 q 181 89 214 89 q 119 115 146 89 q 97 175 96 140 q 124 233 99 210 l 374 467 q 385 483 382 475 q 388 497 388 492 q 385 511 388 503 q 374 528 382 519 l 124 761 q 97 819 99 785 q 119 878 96 853 q 178 905 143 904 q 238 882 213 906 l 488 649 q 537 580 519 619 q 554 497 554 540 z "},"":{"ha":651,"x_min":97,"x_max":556,"o":"m 528 233 q 554 175 553 210 q 532 115 556 140 q 471 89 506 89 q 414 111 438 89 l 164 344 q 115 413 132 374 q 97 497 97 453 q 115 580 97 540 q 164 649 132 619 l 414 882 q 474 905 439 906 q 532 878 508 904 q 554 819 556 853 q 528 761 553 785 l 278 528 q 267 511 269 519 q 264 497 264 503 q 267 483 264 492 q 278 467 269 475 l 528 233 l 528 233 z "},"":{"ha":651,"x_min":97,"x_max":554,"o":"m 489 649 q 538 580 521 619 q 554 497 554 540 q 538 413 554 453 q 489 344 521 374 l 239 111 q 212 94 226 100 q 182 89 197 89 q 121 115 147 89 q 99 175 97 140 q 125 233 100 210 l 375 467 q 385 483 383 475 q 388 497 388 492 q 385 511 388 503 q 375 528 383 519 l 125 761 q 99 819 100 785 q 121 878 97 853 q 179 905 144 904 q 239 882 214 906 l 489 649 l 489 649 z "},"":{"ha":875,"x_min":92,"x_max":783,"o":"m 739 951 q 776 898 768 932 q 764 836 783 864 q 733 808 751 817 q 694 799 714 799 q 649 811 669 799 l 438 950 l 226 811 q 181 799 206 799 q 142 808 161 799 q 111 836 122 817 q 99 898 92 864 q 135 951 106 932 l 390 1118 q 438 1133 411 1133 q 485 1118 464 1133 l 739 951 l 739 951 z "},"":{"ha":978,"x_min":92,"x_max":888,"o":"m 832 894 q 749 823 797 847 q 644 799 701 799 q 531 824 579 799 q 444 874 483 849 q 383 910 408 897 q 326 924 357 924 q 281 901 297 924 q 273 888 275 894 q 268 876 271 882 q 264 865 265 871 l 264 867 q 217 806 249 821 q 157 799 186 792 q 110 833 128 807 q 100 896 92 860 q 109 931 101 903 q 139 990 117 958 q 219 1065 171 1039 q 326 1090 268 1090 q 447 1065 396 1090 q 538 1013 497 1039 q 594 978 571 990 q 644 965 618 965 q 669 969 656 965 q 696 990 682 974 q 705 1004 701 997 q 711 1017 708 1011 q 715 1029 714 1022 l 715 1028 q 759 1081 728 1065 q 820 1090 790 1096 q 869 1057 850 1083 q 876 986 888 1031 q 865 953 875 979 q 832 894 856 926 z "},"":{"ha":547,"x_min":97,"x_max":450,"o":"m 274 674 q 343 660 311 674 q 399 622 375 646 q 436 565 422 597 q 450 497 450 533 q 436 428 450 461 q 399 372 422 396 q 343 335 375 349 q 274 321 311 321 q 205 335 238 321 q 149 372 172 349 q 111 428 125 396 q 97 497 97 461 q 111 565 97 533 q 149 622 125 597 q 205 660 172 646 q 274 674 238 674 z "},"":{"ha":460,"x_min":97,"x_max":363,"o":"m 231 629 q 324 591 286 629 q 363 497 363 553 q 324 403 363 442 q 231 364 286 364 q 136 403 175 364 q 97 497 97 442 q 136 591 97 553 q 231 629 175 629 z "},"":{"ha":542,"x_min":92,"x_max":449,"o":"m 208 164 q 305 110 260 146 q 383 26 350 75 q 434 -78 419 -24 q 442 -182 449 -132 q 363 -317 429 -267 q 192 -372 299 -365 l 188 -372 q 131 -350 154 -372 q 104 -294 107 -328 q 125 -234 101 -260 q 183 -207 149 -208 q 261 -185 239 -203 q 276 -160 275 -175 q 271 -116 279 -140 q 246 -68 263 -92 q 203 -22 228 -42 q 154 6 179 -3 q 107 48 122 17 q 103 111 92 79 q 145 160 114 144 q 208 164 176 175 z "},"":{"ha":511,"x_min":99,"x_max":413,"o":"m 271 1089 q 329 1113 294 1113 q 389 1089 364 1113 q 413 1029 413 1064 q 389 971 413 994 l 240 822 q 182 799 214 799 q 122 822 146 799 q 99 882 99 847 q 122 940 99 917 l 271 1089 l 271 1089 z "},"":{"ha":875,"x_min":92,"x_max":783,"o":"m 649 1119 q 711 1131 678 1139 q 764 1096 744 1124 q 776 1033 783 1067 q 740 981 768 1000 l 483 811 q 438 797 463 797 q 392 811 413 797 l 135 981 q 99 1033 107 1000 q 111 1096 92 1067 q 165 1131 131 1124 q 226 1119 199 1139 l 438 981 l 649 1119 l 649 1119 z "},"":{"ha":742,"x_min":97,"x_max":644,"o":"m 371 1346 q 478 1324 428 1346 q 565 1266 528 1303 q 623 1179 601 1229 q 644 1072 644 1129 q 623 965 644 1015 q 565 878 601 915 q 478 820 528 842 q 371 799 428 799 q 264 820 314 799 q 177 878 214 842 q 119 965 140 915 q 97 1072 97 1015 q 119 1179 97 1129 q 177 1266 140 1229 q 264 1324 214 1303 q 371 1346 314 1346 m 371 965 q 447 997 415 965 q 478 1072 478 1028 q 447 1148 478 1117 q 371 1179 415 1179 q 295 1148 326 1179 q 264 1072 264 1117 q 295 997 264 1028 q 371 965 326 965 z "},"":{"ha":471,"x_min":97,"x_max":374,"o":"m 236 1075 q 334 1035 294 1075 q 374 936 374 994 q 334 838 374 878 q 236 799 294 799 q 138 838 178 799 q 97 936 97 878 q 138 1035 97 994 q 236 1075 178 1075 z "},"":{"ha":697,"x_min":97,"x_max":600,"o":"m 208 1021 q 288 988 256 1021 q 319 910 319 956 q 288 831 319 863 q 208 799 256 799 q 130 831 163 799 q 97 910 97 863 q 130 988 97 956 q 208 1021 163 1021 m 489 1021 q 567 988 535 1021 q 600 910 600 956 q 567 831 600 863 q 489 799 535 799 q 410 831 443 799 q 378 910 378 863 q 410 988 378 956 q 489 1021 443 1021 z "},"":{"ha":1246,"x_min":93,"x_max":1149,"o":"m 1025 497 q 1113 461 1076 497 q 1149 374 1149 425 l 1149 57 q 1133 17 1149 33 q 1093 1 1117 1 q 1053 17 1069 1 q 1038 57 1038 33 l 1038 99 l 683 99 q 653 108 667 99 q 632 133 639 118 q 646 194 618 169 l 942 464 q 980 489 958 481 q 1025 497 1001 497 m 1038 374 q 1025 386 1038 386 q 1017 382 1018 386 l 826 210 l 1038 210 l 1038 374 m 507 543 q 491 503 507 519 q 451 488 475 488 l 154 488 q 115 503 131 488 q 99 543 99 519 q 115 583 99 567 q 154 599 131 599 l 247 599 l 247 847 l 174 819 q 131 822 151 813 q 101 853 110 831 q 103 894 93 874 q 135 924 113 915 l 283 979 q 335 974 310 990 q 352 953 346 965 q 358 928 358 942 l 358 599 l 451 599 q 491 583 475 599 q 507 543 507 567 m 957 978 q 982 943 976 965 q 975 901 988 921 l 429 33 q 383 8 414 8 q 353 17 367 8 q 328 51 333 28 q 336 93 324 74 l 881 960 q 915 985 893 979 q 957 978 938 990 z "},"":{"ha":1401,"x_min":93,"x_max":1304,"o":"m 506 543 q 490 503 506 519 q 450 488 474 488 l 153 488 q 113 503 129 488 q 97 543 97 519 q 113 583 97 567 q 153 599 129 599 l 246 599 l 246 847 l 172 819 q 129 822 150 813 q 101 853 108 831 q 102 894 93 874 q 133 924 111 915 l 282 979 q 333 974 308 989 q 357 928 357 957 l 357 599 l 450 599 q 490 583 474 599 q 506 543 506 567 m 936 192 q 906 180 918 192 q 894 151 894 168 l 894 113 l 1249 113 q 1288 97 1272 113 q 1304 57 1304 81 q 1288 17 1304 33 q 1249 1 1272 1 l 839 1 q 799 17 815 1 q 783 57 783 33 l 783 151 q 795 210 783 182 q 828 258 807 238 q 876 291 849 279 q 936 303 904 303 l 1151 303 q 1181 315 1168 303 q 1193 344 1193 328 q 1181 374 1193 361 q 1151 386 1168 386 l 867 386 q 827 402 843 386 q 811 442 811 418 q 827 481 811 465 q 867 497 843 497 l 1151 497 q 1210 485 1182 497 q 1258 453 1238 474 q 1292 404 1279 432 q 1304 344 1304 376 q 1292 285 1304 313 q 1258 236 1279 257 q 1210 203 1238 215 q 1151 192 1182 192 l 936 192 m 957 978 q 981 943 976 965 q 974 901 986 921 l 429 33 q 382 8 413 8 q 353 17 365 8 q 328 51 333 28 q 335 93 322 74 l 881 960 q 915 985 892 979 q 957 978 938 990 z "},"":{"ha":1328,"x_min":97,"x_max":1231,"o":"m 1107 497 q 1194 461 1158 497 q 1231 374 1231 425 l 1231 57 q 1215 17 1231 33 q 1175 1 1199 1 q 1135 17 1151 1 q 1119 57 1119 33 l 1119 99 l 765 99 q 735 108 749 99 q 714 133 721 118 q 728 194 700 169 l 1024 464 q 1107 497 1057 497 m 1119 374 q 1107 386 1119 386 q 1099 382 1100 386 l 908 210 l 1119 210 l 1119 374 m 1039 978 q 1064 943 1058 965 q 1057 901 1069 921 l 511 33 q 464 8 496 8 q 435 17 449 8 q 410 51 415 28 q 418 93 406 74 l 963 960 q 997 985 975 979 q 1039 978 1019 990 m 618 639 q 606 580 618 607 q 574 532 594 553 q 525 499 553 511 q 467 488 497 488 l 153 488 q 113 503 129 488 q 97 543 97 519 q 113 583 97 567 q 153 599 129 599 l 467 599 q 495 610 483 599 q 507 639 507 622 l 507 640 q 495 669 507 657 q 467 681 483 681 l 194 681 q 155 697 171 681 q 139 736 139 713 q 155 776 139 760 q 194 792 171 792 l 413 792 l 463 872 l 153 872 q 113 888 129 872 q 97 928 97 904 q 113 967 97 951 q 153 983 129 983 l 563 983 q 591 976 578 983 q 611 954 604 968 q 610 899 626 926 l 533 775 q 594 721 571 757 q 618 640 618 685 l 618 639 z "},"":{"ha":1008,"x_min":97,"x_max":911,"o":"m 824 993 q 885 967 860 993 q 911 904 911 940 l 911 282 q 885 220 911 246 q 824 194 860 194 q 761 220 788 194 q 735 282 735 246 l 735 414 q 626 360 685 378 q 504 342 567 342 q 274 414 378 342 l 274 90 q 248 27 274 53 q 186 1 222 1 q 123 27 149 1 q 97 90 97 53 l 97 904 q 123 967 97 940 q 186 993 149 993 q 248 967 222 993 q 274 904 274 940 l 274 749 q 292 659 274 701 q 341 585 310 617 q 415 536 372 554 q 504 518 457 518 q 594 536 551 518 q 667 585 636 554 q 717 659 699 617 q 735 749 735 701 l 735 904 q 761 967 735 940 q 824 993 788 993 z "},"":{"ha":829,"x_min":99,"x_max":732,"o":"m 707 322 q 732 264 732 299 q 707 204 732 229 q 649 181 683 181 q 590 204 614 181 l 415 379 l 240 204 q 182 181 217 181 q 122 204 147 181 q 99 264 99 229 q 122 322 99 299 l 297 497 l 122 671 q 99 731 99 696 q 122 789 99 765 q 182 814 147 814 q 240 789 217 814 l 415 615 l 590 789 q 649 814 614 814 q 707 789 683 814 q 732 731 732 765 q 707 671 732 696 l 533 497 l 707 322 l 707 322 z "},"":{"ha":1399,"x_min":96,"x_max":1304,"o":"m 1192 1003 q 1240 1018 1213 1021 q 1285 994 1267 1015 q 1301 947 1304 974 q 1278 901 1299 919 l 1169 808 q 1239 688 1214 753 q 1275 497 1275 599 q 1239 306 1275 397 q 1133 146 1203 214 q 958 38 1060 75 q 735 1 857 1 l 665 1 q 329 94 467 1 l 207 -8 q 165 -24 190 -24 q 114 -1 135 -24 q 99 47 96 19 q 122 93 101 75 l 231 185 q 160 306 186 239 q 125 497 125 399 q 134 595 125 547 q 160 688 143 643 q 267 849 197 779 q 441 956 340 919 q 665 993 542 993 l 735 993 q 918 969 833 993 q 1071 899 1003 944 l 1192 1003 m 301 497 q 365 300 301 379 l 928 778 q 735 817 843 817 l 665 817 q 513 794 581 817 q 399 731 446 772 q 326 630 351 689 q 301 497 301 571 m 1099 497 q 1082 606 1099 557 q 1035 694 1065 656 l 472 217 q 560 188 513 197 q 665 178 608 178 l 735 178 q 885 200 818 178 q 1000 264 953 222 q 1073 365 1047 306 q 1099 497 1099 424 z "},"":{"ha":1399,"x_min":96,"x_max":1303,"o":"m 1192 1003 q 1240 1018 1213 1021 q 1285 994 1267 1015 q 1301 947 1303 974 q 1278 901 1299 919 l 1169 808 q 1239 688 1214 753 q 1275 497 1275 599 q 1239 306 1275 397 q 1132 146 1203 213 q 958 38 1058 75 q 735 1 857 1 l 665 1 q 329 94 467 1 l 207 -8 q 187 -20 197 -17 q 165 -24 176 -24 q 114 -1 135 -24 q 99 47 96 19 q 122 93 101 75 l 231 185 q 160 306 186 239 q 125 497 125 399 q 134 595 125 547 q 160 688 143 643 q 267 849 197 779 q 441 956 340 919 q 665 993 542 993 l 735 993 q 918 969 833 993 q 1071 899 1003 944 l 1192 1003 m 301 497 q 365 300 301 379 l 928 778 q 735 817 843 817 l 665 817 q 513 794 581 817 q 399 731 446 772 q 326 630 351 689 q 301 497 301 571 m 1097 497 q 1035 694 1097 615 l 472 217 q 665 178 554 178 l 735 178 q 885 200 818 178 q 1000 264 953 222 q 1072 365 1047 306 q 1097 497 1097 424 z "},"":{"ha":1344,"x_min":97,"x_max":1247,"o":"m 961 1240 q 1164 911 1090 1093 q 1247 497 1247 708 q 1211 306 1247 397 q 1106 146 1175 214 q 931 38 1032 75 q 707 1 831 1 l 638 1 q 413 38 514 1 q 239 146 313 75 q 132 306 169 213 q 97 497 97 399 q 106 595 97 547 q 132 688 115 643 q 239 849 169 779 q 413 956 313 919 q 638 993 514 993 l 707 993 q 951 949 842 993 q 888 1049 919 1006 q 828 1125 856 1093 q 790 1167 808 1147 q 750 1204 771 1186 l 574 1076 q 522 1058 551 1058 q 483 1067 501 1058 q 450 1096 464 1076 q 435 1161 429 1125 q 469 1218 440 1197 l 601 1315 q 505 1358 551 1343 q 421 1372 458 1372 q 358 1398 385 1372 q 332 1461 332 1424 q 358 1523 332 1497 q 421 1549 385 1549 q 584 1517 499 1549 q 756 1426 669 1485 l 914 1543 q 979 1558 943 1564 q 1038 1524 1015 1553 q 1053 1458 1060 1493 q 1018 1400 1047 1422 l 896 1311 q 929 1277 913 1294 q 961 1240 946 1260 m 707 178 q 858 200 790 178 q 972 264 925 222 q 1045 365 1019 306 q 1071 497 1071 424 q 1045 630 1071 571 q 972 731 1019 689 q 858 794 925 772 q 707 817 790 817 l 638 817 q 485 794 553 817 q 371 731 418 772 q 299 630 324 689 q 274 497 274 571 q 299 365 274 424 q 371 264 324 306 q 485 200 418 222 q 638 178 553 178 l 707 178 z "},"":{"ha":954,"x_min":97,"x_max":857,"o":"m 774 525 q 833 501 810 525 q 857 442 857 476 q 833 383 857 407 q 774 358 810 358 l 181 358 q 121 383 144 358 q 97 442 97 407 q 121 501 97 476 q 181 525 144 525 l 774 525 m 476 224 q 556 191 524 224 q 588 113 588 158 q 556 34 588 67 q 476 1 524 1 q 398 34 431 1 q 365 113 365 67 q 398 191 365 158 q 476 224 431 224 m 476 660 q 398 692 431 660 q 365 771 365 724 q 398 849 365 817 q 476 882 431 882 q 556 849 524 882 q 588 771 588 817 q 556 692 588 724 q 476 660 524 660 z "},"":{"ha":872,"x_min":97,"x_max":775,"o":"m 692 581 q 751 556 726 581 q 775 497 775 532 q 751 438 775 463 q 692 414 726 414 l 181 414 q 122 438 146 414 q 97 497 97 463 q 122 556 97 532 q 181 581 146 581 l 692 581 l 692 581 z "},"":{"ha":1011,"x_min":97,"x_max":914,"o":"m 831 581 q 890 556 865 581 q 914 497 914 532 q 890 438 914 463 q 831 414 865 414 l 181 414 q 122 438 146 414 q 97 497 97 463 q 122 556 97 532 q 181 581 146 581 l 831 581 l 831 581 z "},"":{"ha":1238,"x_min":97,"x_max":1140,"o":"m 1011 864 q 1106 724 1072 800 q 1140 551 1140 642 l 1140 90 q 1115 27 1140 53 q 1051 1 1089 1 q 990 27 1015 1 q 964 90 964 53 l 964 314 l 496 314 q 433 340 460 314 q 407 403 407 367 q 433 465 407 439 q 496 490 460 490 l 964 490 l 964 551 q 943 654 964 606 q 886 739 922 703 q 801 796 850 775 q 699 817 753 817 l 539 817 q 436 796 485 817 q 351 739 388 775 q 294 654 315 703 q 274 551 274 606 l 274 90 q 248 27 274 53 q 186 1 222 1 q 123 27 149 1 q 97 90 97 53 l 97 551 q 132 724 97 642 q 226 864 165 800 q 367 958 288 925 q 539 993 451 993 l 699 993 q 871 958 786 993 q 1011 864 950 925 z "},"":{"ha":1238,"x_min":97,"x_max":1140,"o":"m 849 993 q 962 970 908 993 q 1055 908 1015 947 q 1117 815 1094 868 q 1140 701 1140 761 q 1119 590 1140 642 q 1058 497 1097 538 q 1119 406 1097 458 q 1140 294 1140 354 l 1140 293 q 1117 179 1140 232 q 1055 87 1094 126 q 962 24 1015 47 q 849 1 908 1 l 186 1 q 124 27 150 1 q 97 90 97 53 l 97 904 q 124 967 97 940 q 186 993 150 993 l 849 993 m 551 410 q 490 435 515 410 q 464 497 464 461 q 490 560 464 535 q 551 586 515 586 l 849 586 q 931 619 897 586 q 964 701 964 653 q 931 783 964 749 q 849 817 897 817 l 274 817 l 274 178 l 849 178 q 931 211 897 178 q 964 293 964 244 l 964 294 q 931 376 964 343 q 849 410 897 410 l 551 410 z "},"":{"ha":1238,"x_min":97,"x_max":1140,"o":"m 994 847 q 1101 690 1064 778 q 1140 497 1140 596 q 1101 304 1140 399 q 994 146 1064 215 q 838 40 928 79 q 644 1 747 1 l 507 1 q 445 27 471 1 q 419 90 419 53 q 445 152 419 126 q 507 178 471 178 l 644 178 q 769 203 711 178 q 870 272 826 228 q 939 373 914 315 q 964 497 964 431 q 939 621 964 563 q 870 723 914 679 q 769 792 826 767 q 644 817 711 817 l 274 817 l 274 90 q 248 27 274 53 q 185 1 222 1 q 123 27 149 1 q 97 90 97 53 l 97 904 q 123 967 97 940 q 185 993 149 993 l 644 993 q 838 954 743 993 q 922 908 882 935 q 994 847 961 882 z "},"":{"ha":1238,"x_min":97,"x_max":1140,"o":"m 1051 993 q 1114 967 1088 993 q 1140 904 1140 940 q 1114 842 1140 868 q 1051 817 1088 817 l 185 817 q 123 842 149 817 q 97 904 97 868 q 123 967 97 940 q 185 993 149 993 l 1051 993 m 274 408 l 274 178 l 1051 178 q 1114 152 1088 178 q 1140 90 1140 126 q 1114 27 1140 53 q 1051 1 1088 1 l 185 1 q 123 27 149 1 q 97 90 97 53 l 97 497 q 123 559 97 533 q 185 585 149 585 l 1051 585 q 1114 559 1088 585 q 1140 497 1140 533 q 1114 435 1140 461 q 1051 408 1088 408 l 274 408 z "},"":{"ha":1238,"x_min":97,"x_max":1140,"o":"m 274 817 l 274 585 l 1051 585 q 1115 559 1089 585 q 1140 497 1140 533 q 1115 435 1140 461 q 1051 408 1089 408 l 274 408 l 274 90 q 248 27 274 53 q 186 1 222 1 q 124 27 150 1 q 97 90 97 53 l 97 904 q 124 967 97 940 q 186 993 150 993 l 1051 993 q 1115 967 1089 993 q 1140 904 1140 940 q 1115 842 1140 868 q 1051 817 1089 817 l 274 817 z "},"":{"ha":1239,"x_min":97,"x_max":1142,"o":"m 1118 150 q 1141 85 1142 122 q 1113 25 1140 49 q 1053 1 1085 1 q 1017 8 1035 1 q 988 31 1000 15 l 640 408 l 274 408 l 274 90 q 248 27 274 53 q 186 1 222 1 q 124 27 150 1 q 97 90 97 53 l 97 904 q 124 967 97 940 q 186 993 150 993 q 248 967 222 993 q 274 904 274 940 l 274 585 l 638 585 l 956 961 q 1016 992 979 989 q 1081 972 1053 996 q 1111 912 1108 949 q 1090 847 1114 875 l 796 500 l 1118 150 z "},"":{"ha":1238,"x_min":97,"x_max":1140,"o":"m 804 993 q 933 967 872 993 q 1042 894 994 942 q 1140 657 1140 796 q 1042 419 1140 518 q 933 347 994 372 q 804 321 872 321 l 510 321 q 447 347 474 321 q 421 410 421 374 q 447 472 421 446 q 510 499 474 499 l 804 499 q 867 511 838 499 q 917 545 896 524 q 951 595 939 567 q 964 657 964 624 q 951 719 964 690 q 917 769 939 747 q 867 804 896 792 q 804 817 838 817 l 274 817 l 274 90 q 248 27 274 53 q 186 1 222 1 q 124 27 150 1 q 97 90 97 53 l 97 904 q 124 967 97 940 q 186 993 150 993 l 804 993 l 804 993 z "},"":{"ha":1263,"x_min":97,"x_max":1165,"o":"m 1140 151 q 1165 89 1165 125 q 1139 26 1165 53 q 1110 8 1126 14 q 1076 1 1093 1 q 1014 28 1040 1 l 725 321 l 510 321 q 447 347 474 321 q 421 410 421 374 q 447 472 421 446 q 510 499 474 499 l 806 499 q 867 511 839 499 q 917 545 896 524 q 951 595 939 567 q 964 657 964 624 q 951 719 964 690 q 917 769 939 747 q 867 804 896 792 q 806 817 839 817 l 274 817 l 274 90 q 248 27 274 53 q 186 1 222 1 q 124 27 150 1 q 97 90 97 53 l 97 904 q 124 967 97 940 q 186 993 150 993 l 806 993 q 933 967 872 993 q 1042 894 994 942 q 1140 657 1140 796 q 1042 419 1140 518 q 943 351 1000 378 l 1140 151 z "},"":{"ha":2046,"x_min":36,"x_max":2011,"o":"m 1951 985 q 1998 935 1985 969 q 1996 868 2011 901 l 1708 239 q 1560 65 1660 132 q 1340 1 1457 1 q 1185 31 1258 1 q 1054 119 1113 61 q 1024 154 1038 135 q 993 119 1008 135 q 862 31 935 61 q 707 1 789 1 q 488 65 588 1 q 338 239 389 131 l 51 868 q 49 935 36 901 q 94 985 61 969 q 163 987 128 1000 q 213 940 197 974 l 499 311 q 583 214 526 250 q 707 178 640 178 q 795 196 754 178 q 867 245 836 214 q 917 318 899 276 q 935 407 935 360 l 935 904 q 961 967 935 940 q 1024 993 988 993 q 1085 967 1060 993 q 1111 904 1111 940 l 1111 407 q 1129 318 1111 360 q 1178 245 1147 276 q 1251 196 1210 214 q 1340 178 1293 178 q 1464 214 1407 178 q 1549 311 1521 250 l 1835 940 q 1884 987 1850 974 q 1951 985 1918 1000 z "},"":{"ha":1239,"x_min":96,"x_max":1142,"o":"m 1113 154 q 1141 93 1140 129 q 1117 29 1142 57 q 1051 1 1089 1 q 992 25 1018 1 l 622 374 l 257 25 q 196 1 231 1 q 132 29 157 1 q 108 92 107 56 q 135 154 108 128 l 493 494 l 125 840 q 97 901 99 865 q 121 965 96 938 q 183 992 146 992 q 246 968 219 993 l 621 617 l 992 968 q 1054 992 1018 993 q 1115 965 1090 992 q 1141 901 1142 938 q 1113 840 1140 865 l 750 494 l 1113 154 l 1113 154 z "},"":{"ha":1238,"x_min":97,"x_max":1140,"o":"m 810 993 q 936 968 876 993 q 1043 896 996 943 q 1115 788 1090 849 q 1140 661 1140 728 l 1140 90 q 1115 27 1140 53 q 1053 1 1089 1 l 389 1 q 275 24 328 1 q 183 87 222 47 q 120 179 143 126 q 97 293 97 232 q 120 406 97 353 q 183 499 143 460 q 275 562 222 539 q 389 585 328 585 l 964 585 l 964 661 q 951 722 964 693 q 918 771 939 750 q 869 804 897 792 q 810 817 842 817 l 260 817 q 197 842 224 817 q 171 904 171 868 q 197 967 171 940 q 260 993 224 993 l 810 993 m 274 293 q 308 211 274 244 q 389 178 342 178 l 964 178 l 964 408 l 389 408 q 308 375 342 408 q 274 293 274 342 z "},"":{"ha":1238,"x_min":97,"x_max":1140,"o":"m 389 817 q 307 783 340 817 q 274 701 274 749 l 274 699 q 307 618 274 651 q 389 585 340 585 l 890 585 q 952 558 926 585 q 978 496 978 532 q 952 434 978 460 q 890 408 926 408 l 389 408 q 307 374 340 408 q 274 293 274 340 q 307 211 274 244 q 389 178 340 178 l 1051 178 q 1114 152 1088 178 q 1140 90 1140 126 q 1114 27 1140 53 q 1051 1 1088 1 l 389 1 q 275 24 328 1 q 183 87 222 47 q 120 179 143 126 q 97 293 97 232 q 119 404 97 353 q 179 496 140 456 q 119 588 140 536 q 97 699 97 640 l 97 701 q 120 815 97 761 q 183 908 143 868 q 275 970 222 947 q 389 993 328 993 l 1051 993 q 1114 967 1088 993 q 1140 904 1140 940 q 1114 842 1140 868 q 1051 817 1088 817 l 389 817 l 389 817 z "},"":{"ha":1763,"x_min":97,"x_max":1665,"o":"m 1639 729 q 1659 653 1653 693 q 1665 571 1665 613 l 1665 90 q 1639 27 1665 53 q 1576 1 1613 1 q 1515 27 1540 1 q 1489 90 1489 53 l 1489 571 q 1483 633 1489 592 q 1453 715 1476 675 q 1382 786 1429 756 q 1254 817 1335 817 l 1204 817 q 1076 786 1122 817 q 1006 715 1029 756 q 976 633 982 675 q 969 571 969 592 l 969 90 q 944 27 969 53 q 881 1 918 1 q 819 27 844 1 q 793 90 793 53 l 793 571 q 787 633 793 592 q 757 715 781 675 q 687 786 733 756 q 558 817 640 817 l 508 817 q 380 786 426 817 q 310 715 333 756 q 280 633 286 675 q 274 571 274 592 l 274 90 q 248 27 274 53 q 186 1 222 1 q 124 27 150 1 q 97 90 97 53 l 97 571 q 103 653 97 613 q 124 729 110 693 q 156 803 136 769 q 203 867 176 838 q 336 961 258 929 q 508 993 414 993 l 558 993 q 731 961 654 993 q 864 867 808 929 q 881 846 874 856 l 897 867 q 1031 961 954 929 q 1204 993 1108 993 l 1254 993 q 1426 961 1349 993 q 1560 867 1504 929 q 1639 729 1611 808 z "},"":{"ha":1343,"x_min":97,"x_max":1246,"o":"m 1211 306 q 1104 146 1175 213 q 900 28 1019 64 l 993 -43 l 1158 -43 q 1220 -69 1194 -43 q 1246 -131 1246 -94 q 1220 -193 1246 -167 q 1158 -219 1194 -219 l 963 -219 q 910 -201 935 -219 l 642 1 l 636 1 q 413 38 514 1 q 239 146 313 75 q 177 219 203 179 q 132 306 151 260 q 97 497 97 393 q 106 595 97 547 q 132 688 114 643 q 239 849 171 782 q 413 956 313 919 q 636 993 514 993 l 707 993 q 930 956 829 993 q 1104 849 1031 919 q 1211 688 1175 779 q 1238 595 1229 643 q 1246 497 1246 547 q 1211 306 1246 393 m 707 178 q 858 200 790 178 q 972 264 925 222 q 1044 365 1019 306 q 1069 497 1069 424 q 1044 630 1069 571 q 972 731 1019 689 q 858 794 925 772 q 707 817 790 817 l 636 817 q 485 794 553 817 q 371 731 418 772 q 299 630 324 689 q 274 497 274 571 q 299 365 274 424 q 371 264 324 306 q 485 200 418 222 q 636 178 553 178 l 672 178 l 707 178 z "},"":{"ha":2560,"x_min":97,"x_max":2463,"o":"m 2463 701 q 2440 590 2463 642 q 2381 497 2418 538 q 2440 406 2418 458 q 2463 294 2463 354 l 2463 293 q 2440 179 2463 232 q 2377 87 2417 126 q 2284 24 2338 47 q 2171 1 2231 1 l 1508 1 l 1499 1 q 1428 51 1450 8 q 1426 56 1428 54 l 1422 68 q 1420 78 1421 74 q 1419 90 1419 83 l 1419 497 q 1420 509 1419 504 q 1422 519 1421 514 l 1426 532 q 1428 536 1428 533 q 1499 586 1450 579 l 1508 586 l 2171 586 q 2253 619 2219 586 q 2286 701 2286 653 q 2253 783 2286 749 q 2171 817 2219 817 l 274 817 l 274 585 l 1051 585 q 1114 559 1088 585 q 1140 497 1140 533 q 1114 435 1140 461 q 1051 408 1088 408 l 274 408 l 274 178 l 1051 178 q 1114 152 1088 178 q 1140 90 1140 126 q 1114 27 1140 53 q 1051 1 1088 1 l 185 1 q 123 27 149 1 q 97 90 97 53 l 97 904 q 123 967 97 940 q 185 993 149 993 l 2171 993 q 2284 970 2231 993 q 2377 908 2338 947 q 2440 815 2417 868 q 2463 701 2463 761 m 2286 294 q 2253 376 2286 343 q 2171 410 2219 410 l 1596 410 l 1596 178 l 2171 178 q 2253 211 2219 178 q 2286 293 2286 244 l 2286 294 z "},"":{"ha":2560,"x_min":97,"x_max":2463,"o":"m 2374 993 q 2436 967 2410 993 q 2463 904 2463 940 q 2436 842 2463 868 q 2374 817 2410 817 l 274 817 l 274 585 l 1051 585 q 1114 559 1088 585 q 1140 497 1140 533 q 1114 435 1140 461 q 1051 408 1088 408 l 274 408 l 274 178 l 1051 178 q 1114 152 1088 178 q 1140 90 1140 126 q 1114 27 1140 53 q 1051 1 1088 1 l 185 1 q 123 27 149 1 q 97 90 97 53 l 97 904 q 123 967 97 940 q 185 993 149 993 l 2374 993 m 2374 585 q 2436 559 2410 585 q 2463 497 2463 533 q 2436 435 2463 461 q 2374 408 2410 408 l 1596 408 l 1596 90 q 1570 27 1596 53 q 1508 1 1544 1 q 1445 27 1471 1 q 1419 90 1419 53 l 1419 497 q 1445 559 1419 533 q 1508 585 1471 585 l 2374 585 z "},"":{"ha":2639,"x_min":97,"x_max":2542,"o":"m 274 408 l 274 178 l 1053 178 q 1115 152 1089 178 q 1140 90 1140 126 q 1115 27 1140 53 q 1053 1 1089 1 l 186 1 q 124 27 150 1 q 97 90 97 53 l 97 497 q 124 559 97 533 q 186 585 150 585 l 1053 585 q 1115 559 1089 585 q 1140 497 1140 533 q 1115 435 1140 461 q 1053 408 1089 408 l 274 408 m 2454 178 q 2516 152 2490 178 q 2542 90 2542 126 q 2516 27 2542 53 q 2454 1 2490 1 l 2313 1 q 2247 29 2272 1 l 1978 321 l 1597 321 l 1597 90 q 1571 27 1597 53 q 1508 1 1544 1 q 1447 27 1472 1 q 1421 90 1421 53 l 1421 410 q 1447 472 1421 446 q 1508 499 1472 499 l 2128 499 q 2190 511 2161 499 q 2240 545 2218 524 q 2274 595 2261 567 q 2286 657 2286 624 q 2274 719 2286 690 q 2240 769 2261 747 q 2190 804 2218 792 q 2128 817 2161 817 l 186 817 q 124 842 150 817 q 97 904 97 868 q 124 967 97 940 q 186 993 150 993 l 2128 993 q 2256 967 2196 993 q 2365 894 2317 942 q 2438 785 2413 846 q 2464 657 2464 725 q 2438 528 2464 589 q 2365 419 2413 468 q 2210 332 2296 353 l 2351 178 l 2454 178 z "},"":{"ha":2560,"x_min":97,"x_max":2463,"o":"m 185 817 q 123 842 149 817 q 97 904 97 868 q 123 967 97 940 q 185 993 149 993 l 1051 993 q 1114 967 1088 993 q 1140 904 1140 940 q 1114 842 1140 868 q 1051 817 1088 817 l 185 817 m 2171 585 q 2284 562 2231 585 q 2377 499 2338 539 q 2440 406 2417 460 q 2463 293 2463 353 q 2440 179 2463 232 q 2377 87 2417 126 q 2284 24 2338 47 q 2171 1 2231 1 l 185 1 q 123 27 149 1 q 97 90 97 53 l 97 497 q 123 559 97 533 q 185 585 149 585 l 1051 585 q 1114 559 1088 585 q 1140 497 1140 533 q 1114 435 1140 461 q 1051 408 1088 408 l 274 408 l 274 178 l 2171 178 q 2253 211 2219 178 q 2286 293 2286 244 q 2253 375 2286 342 q 2171 408 2219 408 l 1711 408 q 1597 431 1650 408 q 1505 494 1544 454 q 1442 587 1465 533 q 1419 700 1419 640 q 1442 813 1419 760 q 1505 907 1465 867 q 1597 970 1544 947 q 1711 993 1650 993 l 2315 993 q 2378 967 2351 993 q 2404 904 2404 940 q 2378 842 2404 868 q 2315 817 2351 817 l 1711 817 q 1629 783 1663 817 q 1596 700 1596 749 q 1629 619 1596 653 q 1711 585 1663 585 l 2171 585 z "},"":{"ha":2199,"x_min":97,"x_max":2157,"o":"m 2068 993 q 2131 967 2104 993 q 2157 904 2157 940 q 2131 842 2157 868 q 2068 817 2104 817 l 1724 817 l 1724 90 q 1698 27 1724 53 q 1635 1 1672 1 q 1573 27 1599 1 q 1547 90 1547 53 l 1547 817 l 186 817 q 124 842 150 817 q 97 904 97 868 q 124 967 97 940 q 186 993 150 993 l 2068 993 m 275 408 l 275 178 l 1053 178 q 1115 152 1089 178 q 1140 90 1140 126 q 1115 27 1140 53 q 1053 1 1089 1 l 186 1 q 124 27 150 1 q 97 90 97 53 l 97 497 q 124 559 97 533 q 186 585 150 585 l 1053 585 q 1115 559 1089 585 q 1140 497 1140 533 q 1115 435 1140 461 q 1053 408 1089 408 l 275 408 z "},"":{"ha":2140,"x_min":97,"x_max":2043,"o":"m 1954 993 q 2017 967 1990 993 q 2043 904 2043 940 q 2017 842 2043 868 q 1954 817 1990 817 l 861 817 q 799 842 825 817 q 772 904 772 868 q 799 967 772 940 q 861 993 825 993 l 1954 993 m 1954 178 q 2017 152 1990 178 q 2043 90 2043 126 q 2017 27 2043 53 q 1954 1 1990 1 l 185 1 q 123 27 149 1 q 97 90 97 53 l 97 904 q 123 967 97 940 q 185 993 149 993 q 248 967 222 993 q 274 904 274 940 l 274 178 l 1954 178 m 1954 585 q 2017 559 1990 585 q 2043 497 2043 533 q 2017 435 2043 461 q 1954 408 1990 408 l 861 408 q 799 435 825 408 q 772 497 772 461 q 799 559 772 533 q 861 585 825 585 l 1954 585 z "},"":{"ha":2561,"x_min":97,"x_max":2464,"o":"m 2128 993 q 2256 967 2194 993 q 2365 894 2317 942 q 2438 785 2413 846 q 2464 657 2464 725 q 2438 528 2464 589 q 2365 419 2413 468 q 2256 347 2317 372 q 2128 321 2194 321 l 1597 321 l 1597 90 q 1571 27 1597 53 q 1508 1 1544 1 q 1447 27 1472 1 q 1421 90 1421 53 l 1421 410 q 1447 472 1421 446 q 1508 499 1472 499 l 2128 499 q 2190 511 2161 499 q 2240 545 2218 524 q 2274 595 2261 567 q 2286 657 2286 624 q 2274 719 2286 690 q 2240 769 2261 747 q 2190 804 2218 792 q 2128 817 2161 817 l 186 817 q 124 842 150 817 q 97 904 97 868 q 124 967 97 940 q 186 993 150 993 l 2128 993 m 274 408 l 274 178 l 1053 178 q 1115 152 1089 178 q 1140 90 1140 126 q 1115 27 1140 53 q 1053 1 1089 1 l 186 1 q 124 27 150 1 q 97 90 97 53 l 97 497 q 124 559 97 533 q 186 585 150 585 l 1053 585 q 1115 559 1089 585 q 1140 497 1140 533 q 1115 435 1140 461 q 1053 408 1089 408 l 274 408 z "},"":{"ha":2542,"x_min":97,"x_max":2444,"o":"m 2326 178 q 2390 152 2364 178 q 2415 90 2415 126 q 2390 27 2415 53 q 2326 1 2364 1 l 1663 1 q 1560 22 1608 1 q 1477 77 1513 42 q 1422 160 1442 113 q 1401 261 1401 207 q 1416 347 1401 306 q 1458 424 1431 389 q 1524 482 1486 458 q 1604 515 1561 506 l 2203 651 q 2250 681 2232 658 q 2268 732 2268 703 q 2244 792 2268 768 q 2185 817 2219 817 l 185 817 q 123 842 149 817 q 97 904 97 868 q 123 967 97 940 q 185 993 149 993 l 2185 993 q 2286 972 2239 993 q 2369 916 2333 951 q 2424 833 2404 881 q 2444 732 2444 786 q 2388 569 2444 642 q 2242 479 2332 499 l 1643 343 q 1597 314 1615 336 q 1578 261 1578 292 q 1602 202 1578 226 q 1663 178 1626 178 l 2326 178 m 274 408 l 274 178 l 1051 178 q 1114 152 1088 178 q 1140 90 1140 126 q 1114 27 1140 53 q 1051 1 1088 1 l 185 1 q 123 27 149 1 q 97 90 97 53 l 97 497 q 123 559 97 533 q 185 585 149 585 l 1051 585 q 1114 559 1088 585 q 1140 497 1140 533 q 1114 435 1140 461 q 1051 408 1088 408 l 274 408 z "},"":{"ha":2560,"x_min":97,"x_max":2463,"o":"m 2463 701 q 2440 590 2463 642 q 2381 497 2418 538 q 2440 406 2418 458 q 2463 294 2463 354 l 2463 293 q 2440 179 2463 232 q 2377 87 2417 126 q 2284 24 2338 47 q 2171 1 2231 1 l 1508 1 q 1490 3 1496 1 q 1425 60 1443 14 q 1421 74 1422 67 q 1419 90 1419 82 l 1419 497 q 1421 513 1419 506 q 1425 528 1422 521 q 1490 585 1443 574 q 1508 586 1496 586 l 2171 586 q 2253 619 2219 586 q 2286 701 2286 653 q 2253 783 2286 749 q 2171 817 2219 817 l 185 817 q 123 842 149 817 q 97 904 97 868 q 123 967 97 940 q 185 993 149 993 l 2171 993 q 2284 970 2231 993 q 2377 908 2338 947 q 2440 815 2417 868 q 2463 701 2463 761 m 2286 294 q 2253 376 2286 343 q 2171 410 2219 410 l 1596 410 l 1596 178 l 2171 178 q 2253 211 2219 178 q 2286 293 2286 244 l 2286 294 m 1051 585 q 1114 559 1088 585 q 1140 497 1140 533 q 1114 435 1140 461 q 1051 408 1088 408 l 274 408 l 274 90 q 247 27 274 53 q 185 1 221 1 q 123 27 149 1 q 97 90 97 53 l 97 497 q 103 528 97 515 q 127 564 110 549 q 168 583 144 579 q 185 585 174 585 l 1051 585 z "},"":{"ha":2531,"x_min":97,"x_max":2433,"o":"m 2143 993 q 2256 970 2203 993 q 2348 908 2308 947 q 2410 815 2388 868 q 2433 701 2433 761 q 2412 590 2433 642 q 2351 497 2390 538 q 2412 406 2390 458 q 2433 294 2433 354 l 2433 293 q 2410 179 2433 232 q 2348 87 2388 126 q 2256 24 2308 47 q 2143 1 2203 1 l 1479 1 q 1417 27 1443 1 q 1392 90 1392 53 l 1392 497 q 1417 560 1392 535 q 1479 586 1443 586 l 2143 586 q 2224 619 2190 586 q 2257 701 2257 653 q 2224 783 2257 749 q 2143 817 2190 817 l 390 817 q 308 783 342 817 q 274 700 274 749 q 308 619 274 653 q 390 585 342 585 l 849 585 q 962 562 908 585 q 1055 499 1015 539 q 1117 406 1094 460 q 1140 293 1140 353 q 1117 179 1140 232 q 1055 87 1094 126 q 962 24 1015 47 q 849 1 908 1 l 244 1 q 183 27 208 1 q 157 90 157 53 q 183 152 157 126 q 244 178 208 178 l 849 178 q 931 211 897 178 q 964 293 964 244 q 931 375 964 342 q 849 408 897 408 l 390 408 q 276 431 329 408 q 183 494 224 454 q 120 587 143 533 q 97 700 97 640 q 120 813 97 760 q 183 907 143 867 q 276 970 224 947 q 390 993 329 993 l 2143 993 m 2257 294 q 2224 376 2257 343 q 2143 410 2190 410 l 1568 410 l 1568 178 l 2143 178 q 2224 211 2190 178 q 2257 293 2257 244 l 2257 294 z "},"":{"ha":2115,"x_min":42,"x_max":2018,"o":"m 1726 993 q 1840 970 1786 993 q 1933 908 1893 947 q 1995 815 1972 868 q 2018 701 2018 761 q 1996 590 2018 642 q 1935 497 1974 538 q 1996 406 1974 458 q 2018 294 2018 354 l 2018 293 q 1995 179 2018 232 q 1933 87 1972 126 q 1840 24 1893 47 q 1726 1 1786 1 l 1063 1 q 1001 27 1026 1 q 975 90 975 53 l 975 497 q 1001 560 975 535 q 1063 586 1026 586 l 1726 586 q 1808 619 1774 586 q 1842 701 1842 653 q 1808 783 1842 749 q 1726 817 1774 817 l 651 817 l 651 90 q 625 27 651 53 q 563 1 599 1 q 500 27 526 1 q 474 90 474 53 l 474 817 l 129 817 q 67 842 93 817 q 42 904 42 868 q 67 967 42 940 q 129 993 93 993 l 1726 993 m 1842 294 q 1808 376 1842 343 q 1726 410 1774 410 l 1151 410 l 1151 178 l 1726 178 q 1808 211 1774 178 q 1842 293 1842 244 l 1842 294 z "},"":{"ha":1868,"x_min":97,"x_max":1771,"o":"m 1479 993 q 1592 970 1539 993 q 1685 908 1646 947 q 1748 815 1725 868 q 1771 701 1771 761 q 1749 590 1771 642 q 1688 497 1726 538 q 1749 406 1726 458 q 1771 294 1771 354 l 1771 293 q 1748 179 1771 232 q 1685 87 1725 126 q 1592 24 1646 47 q 1479 1 1539 1 l 185 1 q 123 27 149 1 q 97 90 97 53 l 97 904 q 123 967 97 940 q 185 993 149 993 q 247 967 221 993 q 274 904 274 940 l 274 178 l 1479 178 q 1561 211 1528 178 q 1594 293 1594 244 l 1594 294 q 1561 376 1594 343 q 1479 410 1528 410 l 1157 410 q 1095 435 1121 410 q 1069 497 1069 461 q 1095 560 1069 535 q 1157 586 1121 586 l 1479 586 q 1561 619 1528 586 q 1594 701 1594 653 q 1561 783 1594 749 q 1479 817 1528 817 l 904 817 l 904 428 q 878 365 904 392 q 817 339 853 339 q 753 365 779 339 q 728 428 728 392 l 728 904 q 753 967 728 940 q 817 993 779 993 l 1479 993 l 1479 993 z "},"":{"ha":2506,"x_min":97,"x_max":2408,"o":"m 2321 993 q 2383 967 2357 993 q 2408 904 2408 940 q 2383 842 2408 868 q 2321 817 2357 817 l 186 817 q 124 842 150 817 q 97 904 97 868 q 124 967 97 940 q 186 993 150 993 l 2321 993 m 1542 408 l 1542 178 l 2321 178 q 2383 152 2357 178 q 2408 90 2408 126 q 2383 27 2408 53 q 2321 1 2357 1 l 1454 1 q 1392 27 1418 1 q 1365 90 1365 53 l 1365 497 q 1392 559 1365 533 q 1454 585 1418 585 l 2321 585 q 2383 559 2357 585 q 2408 497 2408 533 q 2383 435 2408 461 q 2321 408 2357 408 l 1542 408 m 1053 585 q 1115 559 1089 585 q 1140 497 1140 533 q 1115 435 1140 461 q 1053 408 1089 408 l 275 408 l 275 90 q 249 27 275 53 q 186 1 222 1 q 124 27 150 1 q 97 90 97 53 l 97 497 q 124 559 97 533 q 186 585 150 585 l 1053 585 z "},"":{"ha":2197,"x_min":97,"x_max":2156,"o":"m 2068 993 q 2130 967 2104 993 q 2156 904 2156 940 q 2130 842 2156 868 q 2068 817 2104 817 l 1722 817 l 1722 90 q 1697 27 1722 53 q 1635 1 1671 1 q 1572 27 1599 1 q 1546 90 1546 53 l 1546 817 l 185 817 q 123 842 149 817 q 97 904 97 868 q 123 967 97 940 q 185 993 149 993 l 2068 993 m 1051 585 q 1114 559 1088 585 q 1140 497 1140 533 q 1114 435 1140 461 q 1051 408 1088 408 l 274 408 l 274 90 q 248 27 274 53 q 185 1 222 1 q 123 27 149 1 q 97 90 97 53 l 97 497 q 123 559 97 533 q 185 585 149 585 l 1051 585 z "},"":{"ha":2561,"x_min":97,"x_max":2464,"o":"m 2375 993 q 2438 967 2411 993 q 2464 904 2464 940 q 2438 842 2464 868 q 2375 817 2411 817 l 186 817 q 124 842 150 817 q 97 904 97 868 q 124 967 97 940 q 186 993 150 993 l 2375 993 m 1053 585 q 1115 559 1089 585 q 1140 497 1140 533 q 1115 435 1140 461 q 1053 408 1089 408 l 275 408 l 275 90 q 249 27 275 53 q 186 1 222 1 q 124 27 150 1 q 97 90 97 53 l 97 497 q 124 559 97 533 q 186 585 150 585 l 1053 585 m 2375 585 q 2438 559 2411 585 q 2464 497 2464 533 q 2438 435 2464 461 q 2375 408 2411 408 l 1597 408 l 1597 90 q 1572 27 1597 53 q 1508 1 1546 1 q 1447 27 1472 1 q 1421 90 1421 53 l 1421 497 q 1447 559 1421 533 q 1508 585 1472 585 l 2375 585 z "},"":{"ha":2360,"x_min":97,"x_max":2263,"o":"m 2175 178 q 2237 152 2211 178 q 2263 90 2263 126 q 2237 27 2263 53 q 2175 1 2211 1 l 2032 1 q 1968 29 1993 1 l 1699 321 l 1317 321 l 1317 90 q 1291 27 1317 53 q 1229 1 1265 1 q 1167 27 1193 1 q 1140 90 1140 53 l 1140 410 q 1167 472 1140 446 q 1229 499 1193 499 l 1849 499 q 1910 511 1882 499 q 1960 545 1939 524 q 1994 595 1982 567 q 2007 657 2007 624 q 1994 719 2007 690 q 1960 769 1982 747 q 1910 804 1939 792 q 1849 817 1882 817 l 185 817 q 123 842 149 817 q 97 904 97 868 q 123 967 97 940 q 185 993 149 993 l 1849 993 q 1976 967 1915 993 q 2085 894 2038 942 q 2183 657 2183 796 q 2085 419 2183 518 q 1929 332 2018 353 l 2071 178 l 2175 178 m 833 585 q 896 559 869 585 q 922 497 922 533 q 896 435 922 461 q 833 408 869 408 l 274 408 l 274 90 q 248 27 274 53 q 185 1 222 1 q 123 27 149 1 q 97 90 97 53 l 97 497 q 123 559 97 533 q 185 585 149 585 l 833 585 z "},"":{"ha":2281,"x_min":97,"x_max":2183,"o":"m 1847 993 q 1976 967 1915 993 q 2085 894 2036 942 q 2183 657 2183 796 q 2085 419 2183 518 q 1976 347 2036 372 q 1847 321 1915 321 l 1317 321 l 1317 90 q 1291 27 1317 53 q 1228 1 1265 1 q 1166 27 1192 1 q 1140 90 1140 53 l 1140 410 q 1166 472 1140 446 q 1228 499 1192 499 l 1847 499 q 1909 511 1881 499 q 1960 545 1938 524 q 1994 595 1982 567 q 2007 657 2007 624 q 1994 719 2007 690 q 1960 769 1982 747 q 1909 804 1938 792 q 1847 817 1881 817 l 833 817 l 185 817 q 123 842 149 817 q 97 904 97 868 q 123 967 97 940 q 185 993 149 993 l 833 993 l 1847 993 m 833 585 q 895 559 869 585 q 921 497 921 533 q 895 435 921 461 q 833 408 869 408 l 274 408 l 274 90 q 247 27 274 53 q 185 1 221 1 q 123 27 149 1 q 97 90 97 53 l 97 497 q 123 559 97 533 q 185 585 149 585 l 833 585 z "},"":{"ha":2394,"x_min":97,"x_max":2297,"o":"m 2181 178 q 2242 152 2217 178 q 2268 90 2268 126 q 2242 27 2268 53 q 2181 1 2217 1 l 1515 1 q 1413 22 1461 1 q 1330 77 1365 42 q 1274 160 1294 113 q 1254 261 1254 207 q 1269 347 1254 306 q 1311 424 1283 389 q 1376 482 1339 458 q 1457 515 1414 506 l 2056 651 q 2103 681 2085 658 q 2121 732 2121 703 q 2097 792 2121 768 q 2038 817 2072 817 l 186 817 q 123 842 149 817 q 97 904 97 868 q 123 967 97 940 q 186 993 149 993 l 2038 993 q 2139 972 2092 993 q 2222 916 2186 951 q 2277 833 2257 881 q 2297 732 2297 786 q 2240 569 2297 642 q 2094 479 2185 499 l 1496 343 q 1450 314 1468 336 q 1432 261 1432 292 q 1456 202 1432 226 q 1515 178 1479 178 l 2181 178 m 904 585 q 967 559 942 585 q 993 497 993 533 q 967 435 993 461 q 904 408 942 408 l 274 408 l 274 90 q 248 27 274 53 q 186 1 222 1 q 123 27 149 1 q 97 90 97 53 l 97 497 q 123 559 97 533 q 186 585 149 585 l 904 585 z "},"":{"ha":2564,"x_min":97,"x_max":2467,"o":"m 2321 847 q 2426 690 2388 781 q 2467 497 2467 597 q 2426 304 2467 397 q 2321 146 2389 214 q 2164 40 2250 78 q 1971 1 2074 1 l 990 1 q 925 29 950 1 l 657 321 l 275 321 l 275 90 q 249 27 275 53 q 188 1 224 1 q 124 27 150 1 q 99 90 99 53 l 99 410 q 124 472 97 446 q 188 499 151 499 l 806 499 q 867 511 839 499 q 918 545 896 524 q 953 595 940 567 q 965 657 965 624 q 953 719 965 690 q 918 769 940 747 q 867 804 896 792 q 806 817 839 817 l 188 817 q 124 842 150 817 q 99 904 99 868 q 124 967 99 940 q 188 993 150 993 l 806 993 q 935 967 874 993 q 1043 894 996 942 q 1142 657 1142 796 q 1043 419 1142 518 q 888 332 976 353 l 1029 178 l 1971 178 q 2094 203 2036 178 q 2196 272 2153 228 q 2264 373 2239 315 q 2289 497 2289 431 q 2264 621 2289 563 q 2196 723 2239 679 q 2094 792 2153 767 q 1971 817 2036 817 l 1600 817 l 1600 428 q 1574 365 1600 392 q 1511 339 1547 339 q 1449 365 1475 339 q 1424 428 1424 392 l 1424 904 q 1449 967 1424 940 q 1511 993 1475 993 l 1971 993 q 2164 954 2069 993 q 2321 847 2251 917 z "},"":{"ha":2144,"x_min":42,"x_max":2047,"o":"m 1901 847 q 2008 690 1971 778 q 2047 497 2047 596 q 2008 304 2047 399 q 1901 146 1971 215 q 1744 40 1835 79 q 1551 1 1654 1 l 1092 1 q 1030 27 1056 1 q 1004 90 1004 53 l 1004 567 q 1030 628 1004 603 q 1092 654 1056 654 q 1155 628 1129 654 q 1181 567 1181 603 l 1181 178 l 1551 178 q 1676 203 1618 178 q 1777 272 1733 228 q 1846 373 1821 315 q 1871 497 1871 431 q 1846 621 1871 563 q 1777 723 1821 679 q 1676 792 1733 767 q 1551 817 1618 817 l 651 817 l 651 90 q 626 27 651 53 q 564 1 600 1 q 501 27 528 1 q 475 90 475 53 l 475 817 l 131 817 q 68 842 94 817 q 42 904 42 868 q 68 967 42 940 q 131 993 94 993 l 1551 993 q 1744 954 1650 993 q 1828 908 1789 935 q 1901 847 1868 882 z "},"":{"ha":2526,"x_min":97,"x_max":2429,"o":"m 2285 847 q 2390 690 2353 776 q 2429 497 2429 600 q 2390 304 2429 394 q 2285 146 2354 217 q 2126 40 2214 76 q 1933 1 2036 1 l 1475 1 q 1413 27 1439 1 q 1386 90 1386 53 l 1386 567 q 1413 628 1386 603 q 1475 654 1439 654 q 1537 628 1511 654 q 1563 567 1563 603 l 1563 178 l 1933 178 q 2058 203 2000 178 q 2159 272 2115 228 q 2228 373 2203 315 q 2253 497 2253 431 q 2228 621 2253 563 q 2159 723 2203 679 q 2058 792 2115 767 q 1933 817 2000 817 l 390 817 q 308 783 342 817 q 275 700 275 749 q 308 619 275 653 q 390 585 342 585 l 849 585 q 962 562 908 585 q 1055 499 1015 539 q 1117 406 1094 460 q 1140 293 1140 353 q 1117 179 1140 232 q 1055 87 1094 126 q 962 24 1015 47 q 849 1 908 1 l 244 1 q 183 27 208 1 q 157 90 157 53 q 183 152 157 126 q 244 178 208 178 l 849 178 q 931 211 897 178 q 964 293 964 244 q 931 375 964 342 q 849 408 897 408 l 390 408 q 276 431 329 408 q 183 494 224 454 q 120 587 143 533 q 97 700 97 640 q 120 813 97 760 q 183 907 143 867 q 276 970 224 947 q 390 993 329 993 l 1933 993 q 2126 954 2032 993 q 2285 847 2215 917 z "},"":{"ha":1921,"x_min":97,"x_max":1824,"o":"m 1678 847 q 1785 690 1747 778 q 1824 497 1824 600 q 1785 304 1824 394 q 1678 146 1747 215 q 1521 40 1610 78 q 1328 1 1431 1 l 186 1 q 124 27 150 1 q 97 90 97 53 l 97 904 q 124 967 97 940 q 186 993 150 993 q 248 967 222 993 q 274 904 274 940 l 274 178 l 1328 178 q 1452 203 1394 178 q 1553 272 1510 228 q 1622 373 1597 315 q 1647 497 1647 431 q 1622 621 1647 563 q 1553 723 1597 679 q 1452 792 1510 767 q 1328 817 1394 817 l 957 817 l 957 428 q 931 365 957 392 q 869 339 906 339 q 806 365 832 339 q 781 428 781 392 l 781 904 q 806 967 781 940 q 869 993 832 993 l 1328 993 q 1521 954 1426 993 q 1678 847 1611 917 z "},"":{"ha":1769,"x_min":97,"x_max":1672,"o":"m 1381 585 q 1494 562 1440 585 q 1587 499 1547 539 q 1649 406 1626 460 q 1672 293 1672 353 q 1649 179 1672 232 q 1587 87 1626 126 q 1494 24 1547 47 q 1381 1 1440 1 l 186 1 q 124 27 150 1 q 97 90 97 53 l 97 904 q 124 967 97 940 q 186 993 150 993 q 248 967 222 993 q 274 904 274 940 l 274 178 l 1381 178 q 1463 211 1429 178 q 1496 293 1496 244 q 1463 375 1496 342 q 1381 408 1429 408 l 921 408 q 807 431 860 408 q 715 494 754 454 q 652 587 675 533 q 629 700 629 640 q 652 813 629 760 q 715 907 675 867 q 807 970 754 947 q 921 993 860 993 l 1525 993 q 1588 967 1561 993 q 1614 904 1614 940 q 1588 842 1614 868 q 1525 817 1561 817 l 921 817 q 839 783 872 817 q 806 700 806 749 q 839 619 806 653 q 921 585 872 585 l 1381 585 l 1381 585 z "},"":{"ha":2217,"x_min":42,"x_max":2119,"o":"m 1783 992 q 1912 967 1851 992 q 2021 894 1972 942 q 2094 785 2069 846 q 2119 657 2119 724 q 2021 419 2119 518 q 1912 346 1972 371 q 1783 321 1851 321 l 1253 321 l 1253 89 q 1227 27 1253 53 q 1164 1 1201 1 q 1102 27 1128 1 q 1076 89 1076 53 l 1076 410 q 1101 472 1075 446 q 1164 497 1128 499 l 1783 497 q 1845 510 1817 497 q 1896 544 1874 522 q 1931 595 1918 567 q 1943 657 1943 624 q 1931 719 1943 690 q 1896 769 1918 747 q 1845 803 1874 790 q 1783 815 1817 815 l 651 815 l 651 89 q 625 27 651 53 q 563 1 599 1 q 501 27 526 1 q 475 89 475 53 l 475 815 l 129 815 q 67 842 93 815 q 42 904 42 868 q 67 966 42 940 q 129 992 93 992 l 563 992 l 1783 992 l 1783 992 z "},"":{"ha":2296,"x_min":42,"x_max":2199,"o":"m 2110 178 q 2172 152 2146 178 q 2199 89 2199 126 q 2172 27 2199 53 q 2110 1 2146 1 l 1968 1 q 1903 29 1928 1 l 1633 321 l 1253 321 l 1253 89 q 1226 27 1253 53 q 1164 1 1200 1 q 1102 27 1128 1 q 1076 89 1076 53 l 1076 410 q 1102 472 1076 446 q 1164 497 1128 497 l 1783 497 q 1845 510 1817 497 q 1896 544 1874 522 q 1931 595 1918 567 q 1943 657 1943 624 q 1931 719 1943 690 q 1896 769 1918 747 q 1845 803 1874 790 q 1783 815 1817 815 l 651 815 l 651 89 q 625 27 651 53 q 563 1 599 1 q 500 27 526 1 q 474 89 474 53 l 474 815 l 129 815 q 67 842 93 815 q 42 904 42 868 q 67 966 42 940 q 129 992 93 992 l 1783 992 q 1912 967 1851 992 q 2021 894 1972 942 q 2094 785 2069 846 q 2119 657 2119 724 q 2021 419 2119 518 q 1865 331 1953 353 l 2007 178 l 2110 178 l 2110 178 z "},"":{"ha":2268,"x_min":97,"x_max":2171,"o":"m 1840 992 q 1967 967 1907 992 q 2075 896 2028 943 q 2147 788 2122 849 q 2171 661 2171 728 l 2171 89 q 2145 27 2171 53 q 2083 1 2119 1 q 2021 27 2047 1 q 1994 89 1994 53 l 1994 408 l 1421 408 q 1339 375 1372 408 q 1306 293 1306 342 q 1339 211 1306 244 q 1421 178 1372 178 l 1719 178 q 1782 152 1756 178 q 1808 89 1808 126 q 1782 27 1808 53 q 1719 1 1756 1 l 1421 1 q 1307 24 1360 1 q 1214 87 1254 47 q 1151 179 1174 126 q 1128 293 1128 232 q 1151 406 1128 353 q 1214 499 1174 460 q 1307 562 1254 539 q 1421 585 1360 585 l 1994 585 l 1994 661 q 1982 721 1994 693 q 1949 769 1969 749 q 1900 803 1928 790 q 1840 815 1872 815 l 593 815 q 469 790 528 815 q 368 722 411 765 q 300 621 325 679 q 275 497 275 563 q 300 373 275 431 q 368 272 325 315 q 469 203 411 228 q 593 178 528 178 l 829 178 q 891 152 865 178 q 917 89 917 126 q 891 27 917 53 q 829 1 865 1 l 593 1 q 400 40 490 1 q 243 146 314 78 q 138 304 172 217 q 97 497 97 397 q 138 690 97 597 q 243 847 172 776 q 400 953 310 914 q 593 992 490 992 l 1840 992 l 1840 992 z "},"":{"ha":2506,"x_min":97,"x_max":2408,"o":"m 2078 992 q 2204 967 2144 992 q 2311 896 2264 943 q 2383 788 2358 849 q 2408 661 2408 728 l 2408 89 q 2383 27 2408 53 q 2321 1 2357 1 q 2258 27 2283 1 q 2232 89 2232 53 l 2232 408 l 1657 408 q 1576 375 1610 408 q 1542 293 1542 342 q 1576 211 1542 244 q 1657 178 1610 178 l 1957 178 q 2019 152 1993 178 q 2044 89 2044 126 q 2019 27 2044 53 q 1957 1 1993 1 l 1657 1 q 1543 24 1596 1 q 1451 87 1490 47 q 1388 179 1411 126 q 1365 293 1365 232 q 1388 406 1365 353 q 1451 499 1411 460 q 1543 562 1490 539 q 1657 585 1596 585 l 2232 585 l 2232 661 q 2219 721 2232 693 q 2186 769 2207 749 q 2138 803 2165 790 q 2078 815 2110 815 l 185 815 q 123 842 149 815 q 97 904 97 868 q 123 966 97 940 q 185 992 149 992 l 2078 992 m 274 408 l 274 178 l 1051 178 q 1114 152 1088 178 q 1140 89 1140 126 q 1114 27 1140 53 q 1051 1 1088 1 l 185 1 q 123 27 149 1 q 97 89 97 53 l 97 497 q 123 559 97 533 q 185 585 149 585 l 1051 585 q 1114 559 1088 585 q 1140 497 1140 533 q 1114 435 1140 461 q 1051 408 1088 408 l 274 408 z "},"":{"ha":2472,"x_min":97,"x_max":2375,"o":"m 2043 992 q 2170 967 2110 992 q 2278 896 2231 943 q 2350 788 2325 849 q 2375 661 2375 728 l 2375 89 q 2349 27 2375 53 q 2286 1 2322 1 q 2224 27 2250 1 q 2199 89 2199 53 l 2199 408 l 1624 408 q 1542 375 1575 408 q 1508 293 1508 342 q 1542 211 1508 244 q 1624 178 1575 178 l 1922 178 q 1985 152 1958 178 q 2011 89 2011 126 q 1985 27 2011 53 q 1922 1 1958 1 l 1624 1 q 1510 24 1563 1 q 1417 87 1457 47 q 1355 179 1378 126 q 1332 293 1332 232 q 1355 406 1332 353 q 1417 499 1378 460 q 1510 562 1457 539 q 1624 585 1563 585 l 2199 585 l 2199 661 q 2186 721 2199 693 q 2153 769 2174 749 q 2103 803 2132 790 q 2043 815 2075 815 l 389 815 q 308 782 342 815 q 274 700 274 749 q 308 619 274 653 q 389 585 342 585 l 849 585 q 962 562 908 585 q 1055 499 1015 539 q 1117 406 1094 460 q 1140 293 1140 353 q 1117 179 1140 232 q 1055 87 1094 126 q 962 24 1015 47 q 849 1 908 1 l 244 1 q 183 27 208 1 q 157 89 157 53 q 183 152 157 126 q 244 178 208 178 l 849 178 q 931 211 897 178 q 964 293 964 244 q 931 375 964 342 q 849 408 897 408 l 389 408 q 276 431 329 408 q 183 494 222 454 q 120 586 143 533 q 97 700 97 639 q 120 813 97 760 q 183 906 143 867 q 276 969 222 946 q 389 992 329 992 l 2043 992 l 2043 992 z "},"":{"ha":2092,"x_min":42,"x_max":1994,"o":"m 1664 992 q 1899 896 1800 992 q 1970 788 1946 849 q 1994 661 1994 728 l 1994 89 q 1969 27 1994 53 q 1907 1 1943 1 q 1844 27 1871 1 q 1818 89 1818 53 l 1818 408 l 1244 408 q 1163 375 1196 408 q 1129 293 1129 342 q 1163 211 1129 244 q 1244 178 1196 178 l 1543 178 q 1605 152 1579 178 q 1631 89 1631 126 q 1605 27 1631 53 q 1543 1 1579 1 l 1244 1 q 1131 24 1183 1 q 1038 87 1078 47 q 974 179 997 126 q 951 293 951 232 q 974 406 951 353 q 1038 499 997 460 q 1131 562 1078 539 q 1244 585 1183 585 l 1818 585 l 1818 661 q 1806 721 1818 693 q 1772 769 1793 749 q 1724 803 1751 790 q 1664 815 1696 815 l 651 815 l 651 89 q 625 27 651 53 q 563 1 599 1 q 500 27 526 1 q 474 89 474 53 l 474 815 l 129 815 q 67 842 93 815 q 42 904 42 868 q 67 966 42 940 q 129 992 93 992 l 1664 992 l 1664 992 z "},"":{"ha":2539,"x_min":97,"x_max":2442,"o":"m 2150 585 q 2263 562 2210 585 q 2356 499 2317 539 q 2419 406 2396 460 q 2442 293 2442 353 q 2419 179 2442 232 q 2356 87 2396 126 q 2263 24 2317 47 q 2150 1 2210 1 l 1051 1 q 990 27 1015 1 q 964 89 964 53 l 964 408 l 389 408 q 307 375 340 408 q 274 293 274 342 q 307 211 274 244 q 389 178 340 178 l 688 178 q 750 152 724 178 q 776 89 776 126 q 750 27 776 53 q 688 1 724 1 l 389 1 q 275 24 328 1 q 183 87 222 47 q 120 179 143 126 q 97 293 97 232 q 120 406 97 353 q 183 499 143 460 q 275 562 222 539 q 389 585 328 585 l 964 585 l 964 661 q 951 721 964 693 q 918 769 939 749 q 869 803 897 790 q 808 815 840 815 l 258 815 q 197 842 222 815 q 171 904 171 868 q 197 966 171 940 q 258 992 222 992 l 808 992 q 935 967 875 992 q 1043 896 996 943 q 1115 788 1090 849 q 1140 661 1140 728 l 1140 178 l 2150 178 q 2232 211 2199 178 q 2265 293 2265 244 q 2232 375 2265 342 q 2150 408 2199 408 l 1690 408 q 1577 431 1631 408 q 1484 494 1524 454 q 1422 586 1444 533 q 1399 700 1399 639 q 1422 813 1399 760 q 1484 906 1444 867 q 1577 969 1524 946 q 1690 992 1631 992 l 2294 992 q 2357 966 2331 992 q 2383 904 2383 940 q 2357 842 2383 868 q 2294 815 2331 815 l 1690 815 q 1609 782 1643 815 q 1575 700 1575 749 q 1609 619 1575 653 q 1690 585 1643 585 l 2150 585 l 2150 585 z "},"A":{"ha":1304,"x_min":36,"x_max":1269,"o":"m 1254 126 q 1256 59 1269 93 q 1210 10 1243 25 q 1174 1 1193 1 q 1126 15 1149 1 q 1093 53 1104 29 l 785 732 q 731 793 767 771 q 653 815 694 815 q 574 793 610 815 q 521 732 539 771 l 211 53 q 162 7 196 19 q 94 10 128 -6 q 49 59 61 25 q 51 126 36 93 l 360 804 q 478 942 400 890 q 653 993 557 993 q 826 942 747 993 q 944 804 906 890 l 1254 126 m 653 479 q 715 467 686 479 q 765 433 743 454 q 799 383 786 411 q 811 321 811 354 q 799 259 811 288 q 765 209 786 231 q 715 175 743 188 q 653 163 686 163 q 591 175 619 163 q 541 209 563 188 q 507 259 519 231 q 494 321 494 288 q 507 383 494 354 q 541 433 519 411 q 591 467 563 454 q 653 479 619 479 z "},"B":{"ha":1238,"x_min":97,"x_max":1140,"o":"m 849 993 q 962 970 908 993 q 1055 908 1015 947 q 1117 815 1094 868 q 1140 701 1140 761 q 1118 590 1140 642 q 1057 497 1096 538 q 1118 406 1096 458 q 1140 294 1140 354 l 1140 293 q 1117 179 1140 232 q 1055 87 1094 126 q 962 24 1015 47 q 849 1 908 1 l 185 1 q 123 27 149 1 q 97 90 97 53 q 123 152 97 126 q 185 178 149 178 l 849 178 q 929 211 896 178 q 963 293 963 244 l 963 294 q 929 376 963 343 q 849 410 896 410 l 185 410 q 123 435 149 410 q 97 497 97 461 q 123 560 97 535 q 185 586 149 586 l 849 586 q 929 619 896 586 q 963 701 963 653 q 929 783 963 749 q 849 817 896 817 l 185 817 q 123 842 149 817 q 97 904 97 868 q 123 967 97 940 q 185 993 149 993 l 849 993 l 849 993 z "},"C":{"ha":1229,"x_min":97,"x_max":1132,"o":"m 638 817 q 487 794 554 817 q 372 731 419 772 q 299 630 325 689 q 274 497 274 571 q 299 365 274 424 q 372 264 325 306 q 487 200 419 222 q 638 178 554 178 l 707 178 q 981 271 883 178 q 1044 296 1008 296 q 1106 268 1081 296 q 1131 206 1131 242 q 1103 143 1131 169 q 707 1 954 1 l 638 1 q 413 38 514 1 q 239 146 313 75 q 133 306 169 214 q 97 497 97 397 q 133 688 97 599 q 239 849 168 778 q 413 956 313 919 q 638 993 514 993 l 707 993 q 931 956 831 993 q 1106 849 1032 919 q 1132 786 1132 822 q 1107 724 1132 750 q 1045 697 1082 697 q 982 722 1008 696 q 707 817 883 817 l 638 817 l 638 817 z "},"":{"ha":844,"x_min":97,"x_max":747,"o":"m 664 581 q 723 556 699 581 q 747 497 747 532 q 723 438 747 463 q 664 414 699 414 l 181 414 q 122 438 146 414 q 97 497 97 463 q 122 556 97 532 q 181 581 146 581 l 664 581 l 664 581 z "},"":{"ha":1675,"x_min":97,"x_max":1578,"o":"m 654 996 q 691 981 676 996 q 706 944 706 965 q 691 908 706 922 q 654 893 676 893 l 453 893 l 453 469 q 438 433 453 447 q 401 418 424 418 q 365 433 381 418 q 350 469 350 447 l 350 893 l 149 893 q 113 908 128 893 q 97 944 97 922 q 113 981 97 965 q 149 996 128 996 l 654 996 m 1547 992 q 1578 944 1578 978 l 1578 469 q 1563 433 1578 447 q 1526 418 1547 418 q 1490 433 1506 418 q 1475 469 1475 447 l 1475 824 l 1218 576 q 1182 561 1203 561 q 1146 576 1161 561 l 889 824 l 889 469 q 874 433 889 447 q 838 418 860 418 q 801 433 817 418 q 786 469 786 447 l 786 944 q 818 992 786 978 q 874 982 849 1004 l 1182 685 l 1490 982 q 1547 992 1515 1006 z "},"":{"ha":2447,"x_min":97,"x_max":2350,"o":"m 2251 894 q 2350 657 2350 796 q 2251 419 2350 518 q 2143 347 2204 372 q 2014 321 2082 321 l 1483 321 l 1483 90 q 1458 27 1483 53 q 1396 1 1432 1 q 1333 27 1358 1 q 1307 90 1307 53 l 1307 410 q 1333 472 1307 446 q 1396 499 1358 499 l 2014 499 q 2076 511 2047 499 q 2126 545 2104 524 q 2161 595 2149 567 q 2174 657 2174 624 q 2161 719 2174 690 q 2126 769 2149 747 q 2076 804 2104 792 q 2014 817 2047 817 l 1000 817 l 993 817 l 840 817 l 832 817 l 389 817 q 307 783 340 817 q 274 700 274 749 q 307 619 274 653 q 389 585 340 585 l 849 585 q 962 562 908 585 q 1055 499 1015 539 q 1117 406 1094 460 q 1140 293 1140 353 q 1117 179 1140 232 q 1055 87 1094 126 q 962 24 1015 47 q 849 1 908 1 l 244 1 q 182 27 208 1 q 156 90 156 53 q 182 152 156 126 q 244 178 208 178 l 849 178 q 931 211 897 178 q 964 293 964 244 q 931 375 964 342 q 849 408 897 408 l 389 408 q 275 431 328 408 q 183 494 222 454 q 120 587 143 533 q 97 700 97 640 q 120 813 97 760 q 183 907 143 867 q 275 970 222 947 q 389 993 328 993 l 832 993 l 840 993 l 2014 993 q 2143 967 2082 993 q 2251 894 2204 942 z "},"":{"ha":2457,"x_min":97,"x_max":2360,"o":"m 2068 585 q 2181 562 2128 585 q 2274 499 2235 539 q 2337 406 2314 460 q 2360 293 2360 353 q 2337 179 2360 232 q 2274 87 2314 126 q 2181 24 2235 47 q 2068 1 2128 1 l 1047 1 l 1040 1 l 989 1 q 924 29 949 1 l 654 321 l 274 321 l 274 90 q 247 27 274 53 q 185 1 221 1 q 123 27 149 1 q 97 90 97 53 l 97 410 q 123 472 97 446 q 185 499 149 499 l 804 499 q 866 511 838 499 q 917 545 894 524 q 951 595 939 567 q 964 657 964 624 q 951 719 964 690 q 917 769 939 747 q 866 804 894 792 q 804 817 838 817 l 185 817 q 123 842 149 817 q 97 904 97 868 q 123 967 97 940 q 185 993 149 993 l 804 993 q 933 967 872 993 q 1042 894 993 942 q 1140 657 1140 796 q 1042 419 1140 518 q 886 332 975 353 l 1028 178 l 1040 178 l 1047 178 l 1131 178 l 1138 178 l 2068 178 q 2150 211 2117 178 q 2183 293 2183 244 q 2150 375 2183 342 q 2068 408 2117 408 l 1608 408 q 1494 431 1547 408 q 1402 494 1442 454 q 1340 587 1363 533 q 1317 700 1317 640 q 1340 813 1317 760 q 1402 907 1363 867 q 1494 970 1442 947 q 1608 993 1547 993 l 2213 993 q 2275 967 2249 993 q 2301 904 2301 940 q 2275 842 2301 868 q 2213 817 2249 817 l 1608 817 q 1526 783 1560 817 q 1493 700 1493 749 q 1526 619 1493 653 q 1608 585 1560 585 l 2068 585 l 2068 585 z "},"":{"ha":1975,"x_min":42,"x_max":1933,"o":"m 1846 993 q 1908 967 1882 993 q 1933 904 1933 940 q 1908 842 1933 868 q 1846 817 1882 817 l 1500 817 l 1500 90 q 1474 27 1500 53 q 1413 1 1449 1 q 1350 27 1376 1 q 1324 90 1324 53 l 1324 817 l 1004 817 l 997 817 l 979 817 l 972 817 l 651 817 l 651 90 q 626 27 651 53 q 564 1 600 1 q 501 27 528 1 q 475 90 475 53 l 475 817 l 131 817 q 68 842 94 817 q 42 904 42 868 q 68 967 42 940 q 131 993 94 993 l 972 993 l 979 993 l 997 993 l 1004 993 l 1846 993 l 1846 993 z "},"":{"ha":871,"x_min":97,"x_max":774,"o":"m 524 817 l 524 178 l 685 178 q 748 152 722 178 q 774 90 774 126 q 748 27 774 53 q 685 1 722 1 l 186 1 q 124 27 150 1 q 97 90 97 53 q 124 152 97 126 q 186 178 150 178 l 347 178 l 347 817 l 186 817 q 124 842 150 817 q 97 904 97 868 q 124 967 97 940 q 186 993 150 993 l 685 993 q 748 967 722 993 q 774 904 774 940 q 748 842 774 868 q 685 817 722 817 l 524 817 z "},"":{"ha":1250,"x_min":97,"x_max":1153,"o":"m 208 224 q 287 191 254 224 q 319 113 319 158 q 287 34 319 67 q 208 1 254 1 q 130 34 163 1 q 97 113 97 67 q 130 191 97 158 q 208 224 163 224 m 625 224 q 703 191 671 224 q 736 113 736 158 q 703 34 736 67 q 625 1 671 1 q 547 34 579 1 q 514 113 514 67 q 547 191 514 158 q 625 224 579 224 m 1042 224 q 1120 191 1088 224 q 1153 113 1153 158 q 1120 34 1153 67 q 1042 1 1088 1 q 963 34 996 1 q 931 113 931 67 q 963 191 931 158 q 1042 224 996 224 z "},"":{"ha":1119,"x_min":97,"x_max":1022,"o":"m 611 658 q 671 683 636 683 q 729 658 706 683 q 753 600 753 635 q 729 542 753 565 l 368 179 q 309 156 344 156 q 250 179 274 156 q 226 239 226 204 q 250 297 226 274 l 611 658 m 933 178 q 996 152 969 178 q 1022 90 1022 126 q 996 27 1022 53 q 933 1 969 1 l 185 1 q 123 27 149 1 q 97 90 97 53 l 97 904 q 123 967 97 940 q 185 993 149 993 q 247 967 221 993 q 274 904 274 940 l 274 178 l 933 178 z "},"":{"ha":1119,"x_min":97,"x_max":1022,"o":"m 611 658 q 671 683 636 683 q 729 658 706 683 q 753 600 753 635 q 729 542 753 565 l 368 179 q 309 156 344 156 q 250 179 274 156 q 226 239 226 204 q 250 297 226 274 l 611 658 m 933 178 q 996 152 969 178 q 1022 90 1022 126 q 996 27 1022 53 q 933 1 969 1 l 499 1 q 345 31 418 1 q 214 119 272 61 q 127 249 157 176 q 97 403 97 322 l 97 904 q 123 967 97 940 q 185 993 149 993 q 247 967 221 993 q 274 904 274 940 l 274 403 q 292 316 274 357 q 340 244 310 275 q 412 196 371 214 q 499 178 453 178 l 933 178 z "},"":{"ha":1238,"x_min":97,"x_max":1140,"o":"m 1024 178 q 1085 152 1060 178 q 1111 90 1111 126 q 1085 27 1111 53 q 1024 1 1060 1 l 358 1 q 256 22 304 1 q 173 77 208 42 q 117 160 138 113 q 97 261 97 207 q 112 347 97 306 q 154 424 126 389 q 219 482 182 458 q 300 515 257 506 l 899 651 q 946 681 928 658 q 964 732 964 703 q 940 792 964 768 q 881 817 915 817 l 215 817 q 153 842 179 817 q 128 904 128 868 q 153 967 128 940 q 215 993 179 993 l 881 993 q 982 972 935 993 q 1065 916 1029 951 q 1120 833 1100 881 q 1140 732 1140 786 q 1083 569 1140 642 q 938 479 1028 499 l 339 343 q 292 314 311 336 q 274 261 274 292 q 298 202 274 226 q 358 178 322 178 l 1024 178 l 1024 178 m 829 1397 q 892 1409 858 1417 q 944 1374 925 1401 q 956 1311 964 1344 q 921 1258 949 1278 l 664 1089 q 618 1075 643 1075 q 572 1089 593 1075 l 315 1258 q 280 1311 288 1278 q 292 1374 272 1344 q 345 1409 311 1401 q 407 1397 379 1417 l 618 1258 l 829 1397 l 829 1397 z "},"":{"ha":1238,"x_min":97,"x_max":1140,"o":"m 1024 178 q 1085 152 1060 178 q 1111 90 1111 126 q 1085 27 1111 53 q 1024 1 1060 1 l 358 1 q 256 22 304 1 q 173 77 208 42 q 117 160 138 113 q 97 261 97 207 q 112 347 97 306 q 154 424 126 389 q 219 482 182 458 q 300 515 257 506 l 899 651 q 946 681 928 658 q 964 732 964 703 q 940 792 964 768 q 881 817 915 817 l 215 817 q 153 842 179 817 q 128 904 128 868 q 153 967 128 940 q 215 993 179 993 l 881 993 q 982 972 935 993 q 1065 916 1029 951 q 1120 833 1100 881 q 1140 732 1140 786 q 1083 569 1140 642 q 938 479 1028 499 l 339 343 q 292 314 311 336 q 274 261 274 292 q 298 202 274 226 q 358 178 322 178 l 1024 178 l 1024 178 m 829 1397 q 892 1409 858 1417 q 944 1374 925 1401 q 956 1311 964 1344 q 921 1258 949 1278 l 664 1089 q 618 1075 643 1075 q 572 1089 593 1075 l 315 1258 q 280 1311 288 1278 q 292 1374 272 1344 q 345 1409 311 1401 q 407 1397 379 1417 l 618 1258 l 829 1397 l 829 1397 z "},"":{"ha":1238,"x_min":97,"x_max":1140,"o":"m 849 585 q 962 562 908 585 q 1055 499 1015 539 q 1117 406 1094 460 q 1140 293 1140 353 q 1117 179 1140 232 q 1055 87 1094 126 q 962 24 1015 47 q 849 1 908 1 l 244 1 q 182 27 208 1 q 156 90 156 53 q 182 152 156 126 q 244 178 208 178 l 849 178 q 931 211 897 178 q 964 293 964 244 q 931 375 964 342 q 849 408 897 408 l 389 408 q 275 431 328 408 q 183 494 222 454 q 120 587 143 533 q 97 700 97 640 q 120 813 97 760 q 183 907 143 867 q 275 970 222 947 q 389 993 328 993 l 993 993 q 1056 967 1029 993 q 1082 904 1082 940 q 1056 842 1082 868 q 993 817 1029 817 l 389 817 q 307 783 340 817 q 274 700 274 749 q 307 619 274 653 q 389 585 340 585 l 849 585 l 849 585 m 829 1397 q 892 1409 858 1417 q 944 1374 925 1401 q 956 1311 964 1344 q 921 1258 949 1278 l 664 1089 q 618 1075 643 1075 q 572 1089 593 1075 l 315 1258 q 280 1311 288 1278 q 292 1374 272 1344 q 345 1409 311 1401 q 407 1397 379 1417 l 618 1258 l 829 1397 l 829 1397 z "},"":{"ha":1128,"x_min":35,"x_max":1092,"o":"m 1036 983 q 1081 932 1069 967 q 1075 864 1092 897 l 951 618 q 883 521 924 565 q 790 444 843 476 q 651 390 725 404 l 651 90 q 626 27 651 53 q 564 1 600 1 q 501 27 528 1 q 475 90 475 53 l 475 390 q 336 444 400 406 q 244 521 285 476 q 176 618 204 565 l 51 864 q 47 932 35 897 q 90 983 58 967 q 158 988 122 1000 q 210 944 193 976 l 333 699 q 428 594 367 632 q 564 557 490 557 q 699 594 638 557 q 793 699 760 632 l 918 944 q 969 988 935 976 q 1036 983 1004 1000 m 424 1299 q 503 1266 471 1299 q 535 1188 535 1233 q 503 1108 535 1140 q 424 1076 471 1076 q 345 1108 378 1076 q 313 1188 313 1140 q 345 1266 313 1233 q 424 1299 378 1299 m 704 1299 q 783 1266 750 1299 q 815 1188 815 1233 q 783 1108 815 1140 q 704 1076 750 1076 q 626 1108 658 1076 q 593 1188 593 1140 q 626 1266 593 1233 q 704 1299 658 1299 z "},"":{"ha":429,"x_min":97,"x_max":332,"o":"m 214 657 q 260 666 239 657 q 298 691 282 675 q 323 728 314 707 q 332 774 332 750 q 297 857 332 822 q 214 892 263 892 q 169 883 190 892 q 131 858 147 874 q 106 820 115 842 q 97 774 97 799 q 131 691 97 725 q 214 657 165 657 m 126 -69 q 131 -104 125 -87 q 149 -134 138 -121 q 175 -155 160 -147 q 210 -164 190 -162 q 273 -141 246 -165 q 303 -80 300 -117 l 303 -69 l 268 494 q 250 531 267 517 q 211 544 233 546 q 176 528 190 543 q 161 494 163 514 l 126 -69 z "},"":{"ha":1238,"x_min":97,"x_max":1140,"o":"m 849 585 q 962 562 908 585 q 1055 499 1015 539 q 1117 406 1094 460 q 1140 293 1140 353 q 1117 179 1140 232 q 1055 87 1094 126 q 962 24 1015 47 q 849 1 908 1 l 244 1 q 182 27 208 1 q 156 90 156 53 q 182 152 156 126 q 244 178 208 178 l 849 178 q 930 211 896 178 q 964 293 964 244 q 930 375 964 342 q 849 408 896 408 l 389 408 q 275 431 328 408 q 183 494 222 454 q 120 587 143 533 q 97 700 97 640 q 120 813 97 760 q 183 907 143 867 q 275 970 222 947 q 389 993 328 993 l 993 993 q 1055 967 1029 993 q 1081 904 1081 940 q 1055 842 1081 868 q 993 817 1029 817 l 389 817 q 307 783 340 817 q 274 700 274 749 q 307 619 274 653 q 389 585 340 585 l 849 585 l 849 585 m 829 1397 q 892 1409 858 1417 q 944 1374 925 1401 q 956 1311 964 1344 q 921 1258 949 1278 l 664 1089 q 618 1075 643 1075 q 572 1089 593 1075 l 315 1258 q 280 1311 288 1278 q 292 1374 272 1344 q 345 1409 311 1401 q 407 1397 379 1417 l 618 1258 l 829 1397 l 829 1397 z "},"":{"ha":986,"x_min":97,"x_max":889,"o":"m 388 -137 q 275 -115 328 -137 q 183 -52 222 -92 q 120 41 143 -12 q 97 154 97 94 q 120 268 97 215 q 183 360 143 321 q 275 423 222 400 q 388 446 328 446 l 713 446 l 713 478 q 738 540 713 514 q 800 565 764 565 q 863 540 836 565 q 889 478 889 514 l 889 358 q 863 295 889 321 q 800 269 836 269 l 388 269 q 307 236 340 269 q 274 154 274 203 q 307 74 274 107 q 388 40 340 40 l 800 40 q 863 14 836 40 q 889 -49 889 -12 q 863 -111 889 -85 q 800 -137 836 -137 l 388 -137 m 778 632 q 699 665 732 632 q 667 743 667 697 q 699 822 667 789 q 778 854 732 854 q 856 822 824 854 q 889 743 889 789 q 856 665 889 697 q 778 632 824 632 z "},"":{"ha":1304,"x_min":36,"x_max":1269,"o":"m 1254 126 q 1256 59 1269 93 q 1210 10 1243 25 q 1174 1 1193 1 q 1126 15 1149 1 q 1093 53 1104 29 l 785 732 q 731 793 767 771 q 653 815 694 815 q 574 793 610 815 q 521 732 539 771 l 211 53 q 162 7 196 19 q 94 10 128 -6 q 49 59 61 25 q 51 126 36 93 l 360 804 q 478 942 400 890 q 653 993 557 993 q 826 942 747 993 q 944 804 906 890 l 1254 126 m 653 479 q 715 467 686 479 q 765 433 743 454 q 799 383 786 411 q 811 321 811 354 q 799 259 811 288 q 765 209 786 231 q 715 175 743 188 q 653 163 686 163 q 591 175 619 163 q 541 209 563 188 q 507 259 519 231 q 494 321 494 288 q 507 383 494 354 q 541 433 519 411 q 591 467 563 454 q 653 479 619 479 m 651 1624 q 758 1602 708 1624 q 845 1544 808 1581 q 903 1457 882 1507 q 925 1350 925 1407 q 903 1243 925 1293 q 845 1156 882 1193 q 758 1098 808 1119 q 651 1076 708 1076 q 544 1098 594 1076 q 458 1156 494 1119 q 399 1243 421 1193 q 378 1350 378 1293 q 399 1457 378 1407 q 458 1544 421 1507 q 544 1602 494 1581 q 651 1624 594 1624 m 651 1243 q 727 1274 696 1243 q 758 1350 758 1306 q 727 1426 758 1394 q 651 1457 696 1457 q 576 1426 607 1457 q 544 1350 544 1394 q 576 1274 544 1306 q 651 1243 607 1243 z "},"":{"ha":1304,"x_min":36,"x_max":1269,"o":"m 1254 126 q 1256 59 1269 93 q 1210 10 1243 25 q 1174 1 1193 1 q 1126 15 1149 1 q 1093 53 1104 29 l 785 732 q 731 793 767 771 q 653 815 694 815 q 574 793 610 815 q 521 732 539 771 l 211 53 q 162 7 196 19 q 94 10 128 -6 q 49 59 61 25 q 51 126 36 93 l 360 804 q 478 942 400 890 q 653 993 557 993 q 826 942 747 993 q 944 804 906 890 l 1254 126 m 653 479 q 715 467 686 479 q 765 433 743 454 q 799 383 786 411 q 811 321 811 354 q 799 259 811 288 q 765 209 786 231 q 715 175 743 188 q 653 163 686 163 q 591 175 619 163 q 541 209 563 188 q 507 259 519 231 q 494 321 494 288 q 507 383 494 354 q 541 433 519 411 q 591 467 563 454 q 653 479 619 479 m 511 1299 q 590 1266 558 1299 q 622 1188 622 1233 q 590 1108 622 1140 q 511 1076 558 1076 q 433 1108 465 1076 q 400 1188 400 1140 q 433 1266 400 1233 q 511 1299 465 1299 m 792 1299 q 870 1266 838 1299 q 903 1188 903 1233 q 870 1108 903 1140 q 792 1076 838 1076 q 713 1108 746 1076 q 681 1188 681 1140 q 713 1266 681 1233 q 792 1299 746 1299 z "},"":{"ha":1304,"x_min":36,"x_max":1269,"o":"m 1254 126 q 1256 59 1269 93 q 1210 10 1243 25 q 1174 1 1193 1 q 1126 15 1149 1 q 1093 53 1104 29 l 785 732 q 731 793 767 771 q 653 815 694 815 q 574 793 610 815 q 521 732 539 771 l 211 53 q 162 7 196 19 q 94 10 128 -6 q 49 59 61 25 q 51 126 36 93 l 360 804 q 478 942 400 890 q 653 993 557 993 q 826 942 747 993 q 944 804 906 890 l 1254 126 m 653 479 q 715 467 686 479 q 765 433 743 454 q 799 383 786 411 q 811 321 811 354 q 799 259 811 288 q 765 209 786 231 q 715 175 743 188 q 653 163 686 163 q 591 175 619 163 q 541 209 563 188 q 507 259 519 231 q 494 321 494 288 q 507 383 494 354 q 541 433 519 411 q 591 467 563 454 q 653 479 619 479 m 993 1172 q 910 1101 958 1125 q 806 1076 863 1076 q 692 1101 740 1076 q 606 1151 644 1126 q 544 1188 569 1175 q 488 1201 518 1201 q 442 1179 458 1201 q 434 1166 436 1172 q 429 1154 432 1160 q 425 1143 426 1149 l 425 1144 q 378 1084 410 1099 q 318 1077 347 1069 q 271 1111 289 1085 q 261 1174 253 1138 q 270 1208 263 1181 q 300 1268 278 1236 q 381 1342 332 1317 q 488 1368 429 1368 q 608 1342 557 1368 q 699 1290 658 1317 q 756 1256 732 1268 q 806 1243 779 1243 q 830 1247 817 1243 q 857 1268 843 1251 q 866 1282 863 1275 q 872 1294 869 1289 q 876 1307 875 1300 l 876 1306 q 920 1358 889 1343 q 981 1367 951 1374 q 1030 1335 1011 1361 q 1038 1264 1049 1308 q 1026 1231 1036 1257 q 993 1172 1017 1204 z "},"":{"ha":1304,"x_min":36,"x_max":1269,"o":"m 1254 126 q 1256 59 1269 93 q 1210 10 1243 25 q 1174 1 1193 1 q 1126 15 1149 1 q 1093 53 1104 29 l 785 732 q 731 793 767 771 q 653 815 694 815 q 574 793 610 815 q 521 732 539 771 l 211 53 q 162 7 196 19 q 94 10 128 -6 q 49 59 61 25 q 51 126 36 93 l 360 804 q 478 942 400 890 q 653 993 557 993 q 826 942 747 993 q 944 804 906 890 l 1254 126 m 653 479 q 715 467 686 479 q 765 433 743 454 q 799 383 786 411 q 811 321 811 354 q 799 259 811 288 q 765 209 786 231 q 715 175 743 188 q 653 163 686 163 q 591 175 619 163 q 541 209 563 188 q 507 259 519 231 q 494 321 494 288 q 507 383 494 354 q 541 433 519 411 q 591 467 563 454 q 653 479 619 479 m 953 1229 q 990 1176 982 1210 q 978 1114 997 1142 q 947 1085 965 1094 q 908 1076 928 1076 q 863 1089 883 1076 l 651 1228 l 440 1089 q 394 1076 419 1076 q 356 1085 375 1076 q 325 1114 336 1094 q 313 1176 306 1142 q 349 1229 319 1210 l 604 1396 q 651 1411 625 1411 q 699 1396 678 1411 l 953 1229 l 953 1229 z "},"":{"ha":1304,"x_min":36,"x_max":1269,"o":"m 1254 126 q 1256 59 1269 93 q 1210 10 1243 25 q 1174 1 1193 1 q 1126 15 1149 1 q 1093 53 1104 29 l 785 732 q 731 793 767 771 q 653 815 694 815 q 574 793 610 815 q 521 732 539 771 l 211 53 q 162 7 196 19 q 94 10 128 -6 q 49 59 61 25 q 51 126 36 93 l 360 804 q 478 942 400 890 q 653 993 557 993 q 826 942 747 993 q 944 804 906 890 l 1254 126 m 653 479 q 715 467 686 479 q 765 433 743 454 q 799 383 786 411 q 811 321 811 354 q 799 259 811 288 q 765 209 786 231 q 715 175 743 188 q 653 163 686 163 q 591 175 619 163 q 541 209 563 188 q 507 259 519 231 q 494 321 494 288 q 507 383 494 354 q 541 433 519 411 q 591 467 563 454 q 653 479 619 479 m 667 1367 q 725 1390 690 1390 q 785 1367 760 1390 q 808 1307 808 1342 q 785 1249 808 1272 l 636 1100 q 578 1076 610 1076 q 518 1100 542 1076 q 494 1160 494 1125 q 518 1218 494 1194 l 667 1367 l 667 1367 z "},"":{"ha":1304,"x_min":36,"x_max":1269,"o":"m 1254 126 q 1256 59 1269 93 q 1210 10 1243 25 q 1174 1 1193 1 q 1126 15 1149 1 q 1093 53 1104 29 l 785 732 q 731 793 767 771 q 653 815 694 815 q 574 793 610 815 q 521 732 539 771 l 211 53 q 162 7 196 19 q 94 10 128 -6 q 49 59 61 25 q 51 126 36 93 l 360 804 q 478 942 400 890 q 653 993 557 993 q 826 942 747 993 q 944 804 906 890 l 1254 126 m 653 479 q 715 467 686 479 q 765 433 743 454 q 799 383 786 411 q 811 321 811 354 q 799 259 811 288 q 765 209 786 231 q 715 175 743 188 q 653 163 686 163 q 591 175 619 163 q 541 209 563 188 q 507 259 519 231 q 494 321 494 288 q 507 383 494 354 q 541 433 519 411 q 591 467 563 454 q 653 479 619 479 m 793 1224 q 819 1161 819 1197 q 793 1099 819 1125 q 731 1074 765 1074 q 697 1080 714 1074 q 668 1099 681 1086 l 511 1256 q 485 1319 485 1282 q 511 1381 485 1356 q 574 1407 538 1407 q 636 1381 610 1407 l 793 1224 z "},"":{"ha":371,"x_min":-65,"x_max":438,"o":"m 185 993 q 247 967 221 993 q 274 904 274 940 l 274 90 q 247 27 274 53 q 185 1 221 1 q 123 27 149 1 q 97 90 97 53 l 97 904 q 123 967 97 940 q 185 993 149 993 m 46 1299 q 125 1266 93 1299 q 157 1188 157 1233 q 125 1108 157 1140 q 46 1076 93 1076 q -33 1108 0 1076 q -65 1188 -65 1140 q -33 1266 -65 1233 q 46 1299 0 1299 m 326 1299 q 405 1266 372 1299 q 438 1188 438 1233 q 405 1108 438 1140 q 326 1076 372 1076 q 248 1108 281 1076 q 215 1188 215 1140 q 248 1266 215 1233 q 326 1299 281 1299 z "},"":{"ha":371,"x_min":-160,"x_max":532,"o":"m 185 993 q 247 967 221 993 q 274 904 274 940 l 274 90 q 247 27 274 53 q 185 1 221 1 q 123 27 149 1 q 97 90 97 53 l 97 904 q 123 967 97 940 q 185 993 149 993 m 488 1229 q 524 1176 517 1210 q 513 1114 532 1142 q 481 1085 500 1094 q 443 1076 463 1076 q 397 1089 418 1076 l 186 1228 l -25 1089 q -71 1076 -46 1076 q -110 1085 -90 1076 q -140 1114 -129 1094 q -153 1176 -160 1142 q -117 1229 -146 1210 l 139 1396 q 186 1411 160 1411 q 233 1396 213 1411 l 488 1229 l 488 1229 z "},"":{"ha":371,"x_min":29,"x_max":343,"o":"m 185 993 q 247 967 221 993 q 274 904 274 940 l 274 90 q 247 27 274 53 q 185 1 221 1 q 123 27 149 1 q 97 90 97 53 l 97 904 q 123 967 97 940 q 185 993 149 993 m 201 1367 q 260 1390 225 1390 q 319 1367 294 1390 q 343 1307 343 1342 q 319 1249 343 1272 l 171 1100 q 113 1076 144 1076 q 53 1100 76 1076 q 29 1160 29 1125 q 53 1218 29 1194 l 201 1367 l 201 1367 z "},"":{"ha":371,"x_min":18,"x_max":353,"o":"m 185 993 q 247 967 221 993 q 274 904 274 940 l 274 90 q 247 27 274 53 q 185 1 221 1 q 123 27 149 1 q 97 90 97 53 l 97 904 q 123 967 97 940 q 185 993 149 993 m 326 1224 q 353 1161 353 1197 q 326 1099 353 1125 q 264 1074 299 1074 q 231 1080 247 1074 q 201 1099 214 1086 l 44 1256 q 18 1319 18 1282 q 44 1381 18 1356 q 107 1407 71 1407 q 169 1381 143 1407 l 326 1224 z "},"":{"ha":1238,"x_min":97,"x_max":1140,"o":"m 1051 993 q 1114 967 1088 993 q 1140 904 1140 940 q 1114 842 1140 868 q 1051 817 1088 817 l 185 817 q 123 842 149 817 q 97 904 97 868 q 123 967 97 940 q 185 993 149 993 l 1051 993 m 1051 178 q 1114 152 1088 178 q 1140 90 1140 126 q 1114 27 1140 53 q 1051 1 1088 1 l 185 1 q 123 27 149 1 q 97 90 97 53 q 123 152 97 126 q 185 178 149 178 l 1051 178 m 1051 585 q 1114 559 1088 585 q 1140 497 1140 533 q 1114 435 1140 461 q 1051 408 1088 408 l 185 408 q 123 435 149 408 q 97 497 97 461 q 123 559 97 533 q 185 585 149 585 l 1051 585 m 478 1299 q 557 1266 525 1299 q 589 1188 589 1233 q 557 1108 589 1140 q 478 1076 525 1076 q 399 1108 432 1076 q 367 1188 367 1140 q 399 1266 367 1233 q 478 1299 432 1299 m 758 1299 q 837 1266 804 1299 q 869 1188 869 1233 q 837 1108 869 1140 q 758 1076 804 1076 q 680 1108 713 1076 q 647 1188 647 1140 q 680 1266 647 1233 q 758 1299 713 1299 z "},"":{"ha":1238,"x_min":97,"x_max":1140,"o":"m 1051 993 q 1114 967 1088 993 q 1140 904 1140 940 q 1114 842 1140 868 q 1051 817 1088 817 l 185 817 q 123 842 149 817 q 97 904 97 868 q 123 967 97 940 q 185 993 149 993 l 1051 993 m 1051 178 q 1114 152 1088 178 q 1140 90 1140 126 q 1114 27 1140 53 q 1051 1 1088 1 l 185 1 q 123 27 149 1 q 97 90 97 53 q 123 152 97 126 q 185 178 149 178 l 1051 178 m 1051 585 q 1114 559 1088 585 q 1140 497 1140 533 q 1114 435 1140 461 q 1051 408 1088 408 l 185 408 q 123 435 149 408 q 97 497 97 461 q 123 559 97 533 q 185 585 149 585 l 1051 585 m 919 1229 q 956 1176 949 1210 q 944 1114 964 1142 q 913 1085 932 1094 q 875 1076 894 1076 q 829 1089 850 1076 l 618 1228 l 407 1089 q 361 1076 386 1076 q 322 1085 342 1076 q 292 1114 303 1094 q 279 1176 272 1142 q 315 1229 286 1210 l 571 1396 q 618 1411 592 1411 q 665 1396 644 1411 l 919 1229 l 919 1229 z "},"":{"ha":1238,"x_min":97,"x_max":1140,"o":"m 1051 993 q 1114 967 1088 993 q 1140 904 1140 940 q 1114 842 1140 868 q 1051 817 1088 817 l 185 817 q 123 842 149 817 q 97 904 97 868 q 123 967 97 940 q 185 993 149 993 l 1051 993 m 1051 178 q 1114 152 1088 178 q 1140 90 1140 126 q 1114 27 1140 53 q 1051 1 1088 1 l 185 1 q 123 27 149 1 q 97 90 97 53 q 123 152 97 126 q 185 178 149 178 l 1051 178 m 1051 585 q 1114 559 1088 585 q 1140 497 1140 533 q 1114 435 1140 461 q 1051 408 1088 408 l 185 408 q 123 435 149 408 q 97 497 97 461 q 123 559 97 533 q 185 585 149 585 l 1051 585 m 633 1367 q 692 1390 657 1390 q 751 1367 726 1390 q 775 1307 775 1342 q 751 1249 775 1272 l 603 1100 q 544 1076 576 1076 q 485 1100 508 1076 q 461 1160 461 1125 q 485 1218 461 1194 l 633 1367 l 633 1367 z "},"":{"ha":1238,"x_min":97,"x_max":1140,"o":"m 1051 993 q 1114 967 1088 993 q 1140 904 1140 940 q 1114 842 1140 868 q 1051 817 1088 817 l 185 817 q 123 842 149 817 q 97 904 97 868 q 123 967 97 940 q 185 993 149 993 l 1051 993 m 1051 178 q 1114 152 1088 178 q 1140 90 1140 126 q 1114 27 1140 53 q 1051 1 1088 1 l 185 1 q 123 27 149 1 q 97 90 97 53 q 123 152 97 126 q 185 178 149 178 l 1051 178 m 1051 585 q 1114 559 1088 585 q 1140 497 1140 533 q 1114 435 1140 461 q 1051 408 1088 408 l 185 408 q 123 435 149 408 q 97 497 97 461 q 123 559 97 533 q 185 585 149 585 l 1051 585 m 760 1224 q 786 1161 786 1197 q 760 1099 786 1125 q 697 1074 732 1074 q 664 1080 681 1074 q 635 1099 647 1086 l 478 1256 q 451 1319 451 1282 q 478 1381 451 1356 q 540 1407 504 1407 q 603 1381 576 1407 l 760 1224 z "},"":{"ha":1229,"x_min":97,"x_max":1132,"o":"m 638 817 q 487 794 554 817 q 372 731 419 772 q 299 630 325 689 q 274 497 274 571 q 299 365 274 424 q 372 264 325 306 q 487 200 419 222 q 638 178 554 178 l 707 178 q 981 271 883 178 q 1044 296 1008 296 q 1106 268 1081 296 q 1131 206 1131 242 q 1103 143 1131 169 q 707 1 954 1 l 638 1 q 413 38 514 1 q 239 146 313 75 q 133 306 169 214 q 97 497 97 397 q 133 688 97 599 q 239 849 168 778 q 413 956 313 919 q 638 993 514 993 l 707 993 q 931 956 831 993 q 1106 849 1032 919 q 1132 786 1132 822 q 1107 724 1132 750 q 1045 697 1082 697 q 982 722 1008 696 q 707 817 883 817 l 638 817 l 638 817 m 633 164 q 730 110 685 146 q 808 26 775 75 q 859 -78 844 -24 q 867 -182 874 -132 q 788 -317 854 -267 q 617 -372 724 -365 l 613 -372 q 556 -350 579 -372 q 529 -294 532 -328 q 550 -234 526 -260 q 608 -207 574 -208 q 686 -185 664 -203 q 701 -160 700 -175 q 696 -116 704 -140 q 671 -68 688 -92 q 628 -22 653 -42 q 579 6 604 -3 q 532 48 547 17 q 528 111 517 79 q 570 160 539 144 q 633 164 601 175 z "},"":{"ha":1238,"x_min":-78,"x_max":1140,"o":"m 994 847 q 1101 690 1064 778 q 1140 497 1140 596 q 1101 304 1140 399 q 994 146 1064 215 q 838 40 928 79 q 644 1 747 1 l 185 1 q 123 27 149 1 q 97 90 97 53 q 123 152 97 126 q 185 178 149 178 l 644 178 q 769 203 711 178 q 870 272 826 228 q 939 373 914 315 q 964 497 964 431 q 939 621 964 563 q 870 723 914 679 q 769 792 826 767 q 644 817 711 817 l 274 817 l 274 497 q 248 435 274 461 q 185 408 222 408 q 123 435 149 408 q 97 497 97 461 l 97 904 q 123 967 97 940 q 185 993 149 993 l 644 993 q 838 954 743 993 q 922 908 882 935 q 994 847 961 882 m 489 571 q 548 547 524 571 q 572 488 572 522 q 548 428 572 453 q 489 404 524 404 l 6 404 q -53 428 -29 404 q -78 488 -78 453 q -53 547 -78 522 q 6 571 -29 571 l 489 571 z "},"":{"ha":1344,"x_min":97,"x_max":1247,"o":"m 1106 849 q 1211 688 1176 778 q 1247 497 1247 599 q 1211 306 1247 397 q 1106 146 1175 214 q 931 38 1032 75 q 707 1 831 1 l 638 1 q 413 38 514 1 q 239 146 313 75 q 132 306 169 213 q 97 497 97 399 q 106 595 97 547 q 132 688 115 643 q 239 849 169 779 q 413 956 313 919 q 638 993 514 993 l 707 993 q 931 956 831 993 q 1106 849 1032 919 m 707 178 q 858 200 790 178 q 972 264 925 222 q 1045 365 1019 306 q 1071 497 1071 424 q 1045 630 1071 571 q 972 731 1019 689 q 858 794 925 772 q 707 817 790 817 l 638 817 q 485 794 553 817 q 371 731 418 772 q 299 630 324 689 q 274 497 274 571 q 299 365 274 424 q 371 264 324 306 q 485 200 418 222 q 638 178 553 178 l 707 178 m 532 1299 q 611 1266 579 1299 q 643 1188 643 1233 q 611 1108 643 1140 q 532 1076 579 1076 q 453 1108 486 1076 q 421 1188 421 1140 q 453 1266 421 1233 q 532 1299 486 1299 m 813 1299 q 891 1266 858 1299 q 924 1188 924 1233 q 891 1108 924 1140 q 813 1076 858 1076 q 734 1108 767 1076 q 701 1188 701 1140 q 734 1266 701 1233 q 813 1299 767 1299 z "},"":{"ha":1344,"x_min":97,"x_max":1247,"o":"m 1106 849 q 1211 688 1176 778 q 1247 497 1247 599 q 1211 306 1247 397 q 1106 146 1175 214 q 931 38 1032 75 q 707 1 831 1 l 638 1 q 413 38 514 1 q 239 146 313 75 q 132 306 169 213 q 97 497 97 399 q 106 595 97 547 q 132 688 115 643 q 239 849 169 779 q 413 956 313 919 q 638 993 514 993 l 707 993 q 931 956 831 993 q 1106 849 1032 919 m 707 178 q 858 200 790 178 q 972 264 925 222 q 1045 365 1019 306 q 1071 497 1071 424 q 1045 630 1071 571 q 972 731 1019 689 q 858 794 925 772 q 707 817 790 817 l 638 817 q 485 794 553 817 q 371 731 418 772 q 299 630 324 689 q 274 497 274 571 q 299 365 274 424 q 371 264 324 306 q 485 200 418 222 q 638 178 553 178 l 707 178 m 1013 1172 q 930 1101 978 1125 q 825 1076 882 1076 q 712 1101 760 1076 q 625 1151 664 1126 q 563 1188 589 1175 q 507 1201 538 1201 q 461 1179 478 1201 q 453 1166 456 1172 q 449 1154 451 1160 q 444 1143 446 1149 l 444 1144 q 398 1084 429 1099 q 338 1077 367 1069 q 290 1111 308 1085 q 281 1174 272 1138 q 290 1208 282 1181 q 319 1268 297 1236 q 400 1342 351 1317 q 507 1368 449 1368 q 627 1342 576 1368 q 718 1290 678 1317 q 775 1256 751 1268 q 825 1243 799 1243 q 849 1247 836 1243 q 876 1268 863 1251 q 885 1282 882 1275 q 892 1294 889 1289 q 896 1307 894 1300 l 896 1306 q 940 1358 908 1343 q 1001 1367 971 1374 q 1049 1335 1031 1361 q 1057 1264 1068 1308 q 1046 1231 1056 1257 q 1013 1172 1036 1204 z "},"":{"ha":1344,"x_min":97,"x_max":1247,"o":"m 1106 849 q 1211 688 1176 778 q 1247 497 1247 599 q 1211 306 1247 397 q 1106 146 1175 214 q 931 38 1032 75 q 707 1 831 1 l 638 1 q 413 38 514 1 q 239 146 313 75 q 132 306 169 213 q 97 497 97 399 q 106 595 97 547 q 132 688 115 643 q 239 849 169 779 q 413 956 313 919 q 638 993 514 993 l 707 993 q 931 956 831 993 q 1106 849 1032 919 m 707 178 q 858 200 790 178 q 972 264 925 222 q 1045 365 1019 306 q 1071 497 1071 424 q 1045 630 1071 571 q 972 731 1019 689 q 858 794 925 772 q 707 817 790 817 l 638 817 q 485 794 553 817 q 371 731 418 772 q 299 630 324 689 q 274 497 274 571 q 299 365 274 424 q 371 264 324 306 q 485 200 418 222 q 638 178 553 178 l 707 178 m 974 1229 q 1010 1176 1003 1210 q 999 1114 1018 1142 q 967 1085 986 1094 q 929 1076 949 1076 q 883 1089 904 1076 l 672 1228 l 461 1089 q 415 1076 440 1076 q 376 1085 396 1076 q 346 1114 357 1094 q 333 1176 326 1142 q 369 1229 340 1210 l 625 1396 q 672 1411 646 1411 q 719 1396 699 1411 l 974 1229 l 974 1229 z "},"":{"ha":1344,"x_min":97,"x_max":1247,"o":"m 1106 849 q 1211 688 1176 778 q 1247 497 1247 599 q 1211 306 1247 397 q 1106 146 1175 214 q 931 38 1032 75 q 707 1 831 1 l 638 1 q 413 38 514 1 q 239 146 313 75 q 132 306 169 213 q 97 497 97 399 q 106 595 97 547 q 132 688 115 643 q 239 849 169 779 q 413 956 313 919 q 638 993 514 993 l 707 993 q 931 956 831 993 q 1106 849 1032 919 m 707 178 q 858 200 790 178 q 972 264 925 222 q 1045 365 1019 306 q 1071 497 1071 424 q 1045 630 1071 571 q 972 731 1019 689 q 858 794 925 772 q 707 817 790 817 l 638 817 q 485 794 553 817 q 371 731 418 772 q 299 630 324 689 q 274 497 274 571 q 299 365 274 424 q 371 264 324 306 q 485 200 418 222 q 638 178 553 178 l 707 178 m 688 1367 q 746 1390 711 1390 q 806 1367 781 1390 q 829 1307 829 1342 q 806 1249 829 1272 l 657 1100 q 599 1076 631 1076 q 539 1100 563 1076 q 515 1160 515 1125 q 539 1218 515 1194 l 688 1367 l 688 1367 z "},"":{"ha":1344,"x_min":97,"x_max":1247,"o":"m 1106 849 q 1211 688 1176 778 q 1247 497 1247 599 q 1211 306 1247 397 q 1106 146 1175 214 q 931 38 1032 75 q 707 1 831 1 l 638 1 q 413 38 514 1 q 239 146 313 75 q 132 306 169 213 q 97 497 97 399 q 106 595 97 547 q 132 688 115 643 q 239 849 169 779 q 413 956 313 919 q 638 993 514 993 l 707 993 q 931 956 831 993 q 1106 849 1032 919 m 707 178 q 858 200 790 178 q 972 264 925 222 q 1045 365 1019 306 q 1071 497 1071 424 q 1045 630 1071 571 q 972 731 1019 689 q 858 794 925 772 q 707 817 790 817 l 638 817 q 485 794 553 817 q 371 731 418 772 q 299 630 324 689 q 274 497 274 571 q 299 365 274 424 q 371 264 324 306 q 485 200 418 222 q 638 178 553 178 l 707 178 m 813 1224 q 839 1161 839 1197 q 813 1099 839 1125 q 750 1074 785 1074 q 717 1080 733 1074 q 688 1099 700 1086 l 531 1256 q 504 1319 504 1282 q 531 1381 504 1356 q 593 1407 557 1407 q 656 1381 629 1407 l 813 1224 z "},"":{"ha":1238,"x_min":97,"x_max":1140,"o":"m 1053 993 q 1115 967 1089 993 q 1140 904 1140 940 l 1140 90 q 1126 41 1140 63 q 1088 8 1111 19 q 1053 1 1069 1 q 992 25 1018 1 l 274 700 l 274 90 q 248 27 274 53 q 186 1 222 1 q 124 27 150 1 q 97 90 97 53 l 97 904 q 112 952 97 931 q 151 985 126 974 q 201 992 175 996 q 246 968 226 988 l 964 294 l 964 904 q 990 967 964 940 q 1053 993 1015 993 m 960 1172 q 877 1101 925 1125 q 772 1076 829 1076 q 659 1101 707 1076 q 572 1151 611 1126 q 510 1188 536 1175 q 454 1201 485 1201 q 408 1179 425 1201 q 401 1166 403 1172 q 396 1154 399 1160 q 392 1143 393 1149 l 392 1144 q 345 1084 376 1099 q 285 1077 314 1069 q 238 1111 256 1085 q 228 1174 219 1138 q 237 1208 229 1181 q 267 1268 244 1236 q 347 1342 299 1317 q 454 1368 396 1368 q 574 1342 524 1368 q 665 1290 625 1317 q 722 1256 699 1268 q 772 1243 746 1243 q 797 1247 783 1243 q 824 1268 810 1251 q 833 1282 829 1275 q 839 1294 836 1289 q 843 1307 842 1300 l 843 1306 q 887 1358 856 1343 q 948 1367 918 1374 q 997 1335 978 1361 q 1004 1264 1015 1308 q 993 1231 1003 1257 q 960 1172 983 1204 z "},"":{"ha":1128,"x_min":35,"x_max":1092,"o":"m 1036 983 q 1081 932 1069 967 q 1075 864 1092 897 l 951 618 q 883 521 924 565 q 790 444 843 476 q 651 390 725 404 l 651 90 q 626 27 651 53 q 564 1 600 1 q 501 27 528 1 q 475 90 475 53 l 475 390 q 336 444 400 406 q 244 521 285 476 q 176 618 204 565 l 51 864 q 47 932 35 897 q 90 983 58 967 q 158 988 122 1000 q 210 944 193 976 l 333 699 q 428 594 367 632 q 564 557 490 557 q 699 594 638 557 q 793 699 760 632 l 918 944 q 969 988 935 976 q 1036 983 1004 1000 m 579 1367 q 638 1390 603 1390 q 697 1367 672 1390 q 721 1307 721 1342 q 697 1249 721 1272 l 549 1100 q 490 1076 522 1076 q 431 1100 454 1076 q 407 1160 407 1125 q 431 1218 407 1194 l 579 1367 l 579 1367 z "},"":{"ha":1238,"x_min":97,"x_max":1140,"o":"m 1053 993 q 1115 967 1089 993 q 1140 904 1140 940 l 1140 497 q 1133 400 1140 447 q 1110 310 1125 353 q 1015 149 1079 218 q 856 39 949 76 q 650 1 763 1 l 588 1 q 383 39 475 1 q 224 149 290 76 q 129 310 160 218 q 97 497 97 397 l 97 904 q 124 967 97 940 q 186 993 150 993 q 249 967 222 993 q 275 904 275 940 l 275 497 q 292 382 275 439 q 345 280 308 325 q 442 206 382 235 q 588 178 501 178 l 650 178 q 797 206 738 178 q 894 280 857 235 q 947 382 931 325 q 964 497 964 439 l 964 904 q 990 967 964 940 q 1053 993 1017 993 m 478 1299 q 557 1266 525 1299 q 589 1188 589 1233 q 557 1108 589 1140 q 478 1076 525 1076 q 399 1108 432 1076 q 367 1188 367 1140 q 399 1266 367 1233 q 478 1299 432 1299 m 758 1299 q 837 1266 804 1299 q 869 1188 869 1233 q 837 1108 869 1140 q 758 1076 804 1076 q 680 1108 713 1076 q 647 1188 647 1140 q 680 1266 647 1233 q 758 1299 713 1299 z "},"":{"ha":1238,"x_min":97,"x_max":1140,"o":"m 1053 993 q 1115 967 1089 993 q 1140 904 1140 940 l 1140 497 q 1133 400 1140 447 q 1110 310 1125 353 q 1015 149 1079 218 q 856 39 949 76 q 650 1 763 1 l 588 1 q 383 39 475 1 q 224 149 290 76 q 129 310 160 218 q 97 497 97 397 l 97 904 q 124 967 97 940 q 186 993 150 993 q 249 967 222 993 q 275 904 275 940 l 275 497 q 292 382 275 439 q 345 280 308 325 q 442 206 382 235 q 588 178 501 178 l 650 178 q 797 206 738 178 q 894 280 857 235 q 947 382 931 325 q 964 497 964 439 l 964 904 q 990 967 964 940 q 1053 993 1017 993 m 919 1229 q 956 1176 949 1210 q 944 1114 964 1142 q 913 1085 932 1094 q 875 1076 894 1076 q 829 1089 850 1076 l 618 1228 l 407 1089 q 361 1076 386 1076 q 322 1085 342 1076 q 292 1114 303 1094 q 279 1176 272 1142 q 315 1229 286 1210 l 571 1396 q 618 1411 592 1411 q 665 1396 644 1411 l 919 1229 l 919 1229 z "},"":{"ha":1238,"x_min":97,"x_max":1140,"o":"m 1053 993 q 1115 967 1089 993 q 1140 904 1140 940 l 1140 497 q 1133 400 1140 447 q 1110 310 1125 353 q 1015 149 1079 218 q 856 39 949 76 q 650 1 763 1 l 588 1 q 383 39 475 1 q 224 149 290 76 q 129 310 160 218 q 97 497 97 397 l 97 904 q 124 967 97 940 q 186 993 150 993 q 249 967 222 993 q 275 904 275 940 l 275 497 q 292 382 275 439 q 345 280 308 325 q 442 206 382 235 q 588 178 501 178 l 650 178 q 797 206 738 178 q 894 280 857 235 q 947 382 931 325 q 964 497 964 439 l 964 904 q 990 967 964 940 q 1053 993 1017 993 m 633 1367 q 692 1390 657 1390 q 751 1367 726 1390 q 775 1307 775 1342 q 751 1249 775 1272 l 603 1100 q 544 1076 576 1076 q 485 1100 508 1076 q 461 1160 461 1125 q 485 1218 461 1194 l 633 1367 l 633 1367 z "},"":{"ha":1238,"x_min":97,"x_max":1140,"o":"m 1053 993 q 1115 967 1089 993 q 1140 904 1140 940 l 1140 497 q 1133 400 1140 447 q 1110 310 1125 353 q 1015 149 1079 218 q 856 39 949 76 q 650 1 763 1 l 588 1 q 383 39 475 1 q 224 149 290 76 q 129 310 160 218 q 97 497 97 397 l 97 904 q 124 967 97 940 q 186 993 150 993 q 249 967 222 993 q 275 904 275 940 l 275 497 q 292 382 275 439 q 345 280 308 325 q 442 206 382 235 q 588 178 501 178 l 650 178 q 797 206 738 178 q 894 280 857 235 q 947 382 931 325 q 964 497 964 439 l 964 904 q 990 967 964 940 q 1053 993 1017 993 m 760 1224 q 786 1161 786 1197 q 760 1099 786 1125 q 697 1074 732 1074 q 664 1080 681 1074 q 635 1099 647 1086 l 478 1256 q 451 1319 451 1282 q 478 1381 451 1356 q 540 1407 504 1407 q 603 1381 576 1407 l 760 1224 z "},"":{"ha":1238,"x_min":97,"x_max":1140,"o":"m 810 993 q 937 968 876 993 q 1044 896 997 943 q 1116 788 1092 849 q 1140 661 1140 728 l 1140 90 q 1115 27 1140 53 q 1053 1 1089 1 q 990 27 1017 1 q 964 90 964 53 l 964 408 l 390 408 q 308 375 342 408 q 275 293 275 342 q 308 211 275 244 q 390 178 342 178 l 619 178 q 682 152 656 178 q 708 90 708 126 q 682 27 708 53 q 619 1 656 1 l 390 1 q 276 24 329 1 q 183 87 224 47 q 120 179 143 126 q 97 293 97 232 q 120 406 97 353 q 183 499 143 460 q 276 562 224 539 q 390 585 329 585 l 964 585 l 964 661 q 951 722 964 693 q 918 771 939 750 q 869 804 897 792 q 810 817 842 817 l 260 817 q 197 842 224 817 q 171 904 171 868 q 197 967 171 940 q 260 993 224 993 l 810 993 l 810 993 m 618 1624 q 725 1602 675 1624 q 812 1544 775 1581 q 870 1457 849 1507 q 892 1350 892 1407 q 870 1243 892 1293 q 812 1156 849 1193 q 725 1098 775 1119 q 618 1076 675 1076 q 511 1098 561 1076 q 424 1156 461 1119 q 366 1243 388 1193 q 344 1350 344 1293 q 366 1457 344 1407 q 424 1544 388 1507 q 511 1602 461 1581 q 618 1624 561 1624 m 618 1243 q 694 1274 663 1243 q 725 1350 725 1306 q 694 1426 725 1394 q 618 1457 663 1457 q 542 1426 574 1457 q 511 1350 511 1394 q 542 1274 511 1306 q 618 1243 574 1243 z "},"":{"ha":1238,"x_min":97,"x_max":1140,"o":"m 810 993 q 937 968 876 993 q 1044 896 997 943 q 1116 788 1092 849 q 1140 661 1140 728 l 1140 90 q 1115 27 1140 53 q 1053 1 1089 1 q 990 27 1017 1 q 964 90 964 53 l 964 408 l 390 408 q 308 375 342 408 q 275 293 275 342 q 308 211 275 244 q 390 178 342 178 l 619 178 q 682 152 656 178 q 708 90 708 126 q 682 27 708 53 q 619 1 656 1 l 390 1 q 276 24 329 1 q 183 87 224 47 q 120 179 143 126 q 97 293 97 232 q 120 406 97 353 q 183 499 143 460 q 276 562 224 539 q 390 585 329 585 l 964 585 l 964 661 q 951 722 964 693 q 918 771 939 750 q 869 804 897 792 q 810 817 842 817 l 260 817 q 197 842 224 817 q 171 904 171 868 q 197 967 171 940 q 260 993 224 993 l 810 993 l 810 993 m 478 1299 q 557 1266 525 1299 q 589 1188 589 1233 q 557 1108 589 1140 q 478 1076 525 1076 q 399 1108 432 1076 q 367 1188 367 1140 q 399 1266 367 1233 q 478 1299 432 1299 m 758 1299 q 837 1266 804 1299 q 869 1188 869 1233 q 837 1108 869 1140 q 758 1076 804 1076 q 680 1108 713 1076 q 647 1188 647 1140 q 680 1266 647 1233 q 758 1299 713 1299 z "},"":{"ha":1238,"x_min":97,"x_max":1140,"o":"m 810 993 q 937 968 876 993 q 1044 896 997 943 q 1116 788 1092 849 q 1140 661 1140 728 l 1140 90 q 1115 27 1140 53 q 1053 1 1089 1 q 990 27 1017 1 q 964 90 964 53 l 964 408 l 390 408 q 308 375 342 408 q 275 293 275 342 q 308 211 275 244 q 390 178 342 178 l 619 178 q 682 152 656 178 q 708 90 708 126 q 682 27 708 53 q 619 1 656 1 l 390 1 q 276 24 329 1 q 183 87 224 47 q 120 179 143 126 q 97 293 97 232 q 120 406 97 353 q 183 499 143 460 q 276 562 224 539 q 390 585 329 585 l 964 585 l 964 661 q 951 722 964 693 q 918 771 939 750 q 869 804 897 792 q 810 817 842 817 l 260 817 q 197 842 224 817 q 171 904 171 868 q 197 967 171 940 q 260 993 224 993 l 810 993 l 810 993 m 960 1172 q 877 1101 925 1125 q 772 1076 829 1076 q 659 1101 707 1076 q 572 1151 611 1126 q 510 1188 536 1175 q 454 1201 485 1201 q 408 1179 425 1201 q 401 1166 403 1172 q 396 1154 399 1160 q 392 1143 393 1149 l 392 1144 q 345 1084 376 1099 q 285 1077 314 1069 q 238 1111 256 1085 q 228 1174 219 1138 q 237 1208 229 1181 q 267 1268 244 1236 q 347 1342 299 1317 q 454 1368 396 1368 q 574 1342 524 1368 q 665 1290 625 1317 q 722 1256 699 1268 q 772 1243 746 1243 q 797 1247 783 1243 q 824 1268 810 1251 q 833 1282 829 1275 q 839 1294 836 1289 q 843 1307 842 1300 l 843 1306 q 887 1358 856 1343 q 948 1367 918 1374 q 997 1335 978 1361 q 1004 1264 1015 1308 q 993 1231 1003 1257 q 960 1172 983 1204 z "},"":{"ha":1238,"x_min":97,"x_max":1140,"o":"m 810 993 q 937 968 876 993 q 1044 896 997 943 q 1116 788 1092 849 q 1140 661 1140 728 l 1140 90 q 1115 27 1140 53 q 1053 1 1089 1 q 990 27 1017 1 q 964 90 964 53 l 964 408 l 390 408 q 308 375 342 408 q 275 293 275 342 q 308 211 275 244 q 390 178 342 178 l 619 178 q 682 152 656 178 q 708 90 708 126 q 682 27 708 53 q 619 1 656 1 l 390 1 q 276 24 329 1 q 183 87 224 47 q 120 179 143 126 q 97 293 97 232 q 120 406 97 353 q 183 499 143 460 q 276 562 224 539 q 390 585 329 585 l 964 585 l 964 661 q 951 722 964 693 q 918 771 939 750 q 869 804 897 792 q 810 817 842 817 l 260 817 q 197 842 224 817 q 171 904 171 868 q 197 967 171 940 q 260 993 224 993 l 810 993 l 810 993 m 919 1229 q 956 1176 949 1210 q 944 1114 964 1142 q 913 1085 932 1094 q 875 1076 894 1076 q 829 1089 850 1076 l 618 1228 l 407 1089 q 361 1076 386 1076 q 322 1085 342 1076 q 292 1114 303 1094 q 279 1176 272 1142 q 315 1229 286 1210 l 571 1396 q 618 1411 592 1411 q 665 1396 644 1411 l 919 1229 l 919 1229 z "},"":{"ha":1238,"x_min":97,"x_max":1140,"o":"m 810 993 q 937 968 876 993 q 1044 896 997 943 q 1116 788 1092 849 q 1140 661 1140 728 l 1140 90 q 1115 27 1140 53 q 1053 1 1089 1 q 990 27 1017 1 q 964 90 964 53 l 964 408 l 390 408 q 308 375 342 408 q 275 293 275 342 q 308 211 275 244 q 390 178 342 178 l 619 178 q 682 152 656 178 q 708 90 708 126 q 682 27 708 53 q 619 1 656 1 l 390 1 q 276 24 329 1 q 183 87 224 47 q 120 179 143 126 q 97 293 97 232 q 120 406 97 353 q 183 499 143 460 q 276 562 224 539 q 390 585 329 585 l 964 585 l 964 661 q 951 722 964 693 q 918 771 939 750 q 869 804 897 792 q 810 817 842 817 l 260 817 q 197 842 224 817 q 171 904 171 868 q 197 967 171 940 q 260 993 224 993 l 810 993 l 810 993 m 633 1367 q 692 1390 657 1390 q 751 1367 726 1390 q 775 1307 775 1342 q 751 1249 775 1272 l 603 1100 q 544 1076 576 1076 q 485 1100 508 1076 q 461 1160 461 1125 q 485 1218 461 1194 l 633 1367 l 633 1367 z "},"":{"ha":1238,"x_min":97,"x_max":1140,"o":"m 810 993 q 937 968 876 993 q 1044 896 997 943 q 1116 788 1092 849 q 1140 661 1140 728 l 1140 90 q 1115 27 1140 53 q 1053 1 1089 1 q 990 27 1017 1 q 964 90 964 53 l 964 408 l 390 408 q 308 375 342 408 q 275 293 275 342 q 308 211 275 244 q 390 178 342 178 l 619 178 q 682 152 656 178 q 708 90 708 126 q 682 27 708 53 q 619 1 656 1 l 390 1 q 276 24 329 1 q 183 87 224 47 q 120 179 143 126 q 97 293 97 232 q 120 406 97 353 q 183 499 143 460 q 276 562 224 539 q 390 585 329 585 l 964 585 l 964 661 q 951 722 964 693 q 918 771 939 750 q 869 804 897 792 q 810 817 842 817 l 260 817 q 197 842 224 817 q 171 904 171 868 q 197 967 171 940 q 260 993 224 993 l 810 993 l 810 993 m 760 1224 q 786 1161 786 1197 q 760 1099 786 1125 q 697 1074 732 1074 q 664 1080 681 1074 q 635 1099 647 1086 l 478 1256 q 451 1319 451 1282 q 478 1381 451 1356 q 540 1407 504 1407 q 603 1381 576 1407 l 760 1224 z "},"":{"ha":871,"x_min":97,"x_max":774,"o":"m 524 817 l 524 178 l 685 178 q 748 152 722 178 q 774 90 774 126 q 748 27 774 53 q 685 1 722 1 l 186 1 q 124 27 150 1 q 97 90 97 53 q 124 152 97 126 q 186 178 150 178 l 347 178 l 347 817 l 186 817 q 124 842 150 817 q 97 904 97 868 q 124 967 97 940 q 186 993 150 993 l 685 993 q 748 967 722 993 q 774 904 774 940 q 748 842 774 868 q 685 817 722 817 l 524 817 m 294 1299 q 374 1266 342 1299 q 406 1188 406 1233 q 374 1108 406 1140 q 294 1076 342 1076 q 216 1108 249 1076 q 183 1188 183 1140 q 216 1266 183 1233 q 294 1299 249 1299 m 575 1299 q 653 1266 621 1299 q 686 1188 686 1233 q 653 1108 686 1140 q 575 1076 621 1076 q 497 1108 529 1076 q 464 1188 464 1140 q 497 1266 464 1233 q 575 1299 529 1299 z "},"":{"ha":871,"x_min":90,"x_max":782,"o":"m 524 817 l 524 178 l 685 178 q 748 152 722 178 q 774 90 774 126 q 748 27 774 53 q 685 1 722 1 l 186 1 q 124 27 150 1 q 97 90 97 53 q 124 152 97 126 q 186 178 150 178 l 347 178 l 347 817 l 186 817 q 124 842 150 817 q 97 904 97 868 q 124 967 97 940 q 186 993 150 993 l 685 993 q 748 967 722 993 q 774 904 774 940 q 748 842 774 868 q 685 817 722 817 l 524 817 m 738 1229 q 774 1176 767 1210 q 763 1114 782 1142 q 731 1085 750 1094 q 693 1076 713 1076 q 647 1089 668 1076 l 436 1228 l 225 1089 q 179 1076 204 1076 q 140 1085 160 1076 q 110 1114 121 1094 q 97 1176 90 1142 q 133 1229 104 1210 l 389 1396 q 436 1411 410 1411 q 483 1396 463 1411 l 738 1229 l 738 1229 z "},"":{"ha":871,"x_min":97,"x_max":774,"o":"m 524 817 l 524 178 l 685 178 q 748 152 722 178 q 774 90 774 126 q 748 27 774 53 q 685 1 722 1 l 186 1 q 124 27 150 1 q 97 90 97 53 q 124 152 97 126 q 186 178 150 178 l 347 178 l 347 817 l 186 817 q 124 842 150 817 q 97 904 97 868 q 124 967 97 940 q 186 993 150 993 l 685 993 q 748 967 722 993 q 774 904 774 940 q 748 842 774 868 q 685 817 722 817 l 524 817 m 450 1367 q 508 1390 474 1390 q 568 1367 543 1390 q 592 1307 592 1342 q 568 1249 592 1272 l 419 1100 q 361 1076 393 1076 q 301 1100 325 1076 q 278 1160 278 1125 q 301 1218 278 1194 l 450 1367 l 450 1367 z "},"":{"ha":871,"x_min":97,"x_max":774,"o":"m 524 817 l 524 178 l 685 178 q 748 152 722 178 q 774 90 774 126 q 748 27 774 53 q 685 1 722 1 l 186 1 q 124 27 150 1 q 97 90 97 53 q 124 152 97 126 q 186 178 150 178 l 347 178 l 347 817 l 186 817 q 124 842 150 817 q 97 904 97 868 q 124 967 97 940 q 186 993 150 993 l 685 993 q 748 967 722 993 q 774 904 774 940 q 748 842 774 868 q 685 817 722 817 l 524 817 m 576 1224 q 603 1161 603 1197 q 576 1099 603 1125 q 514 1074 549 1074 q 481 1080 497 1074 q 451 1099 464 1086 l 294 1256 q 268 1319 268 1282 q 294 1381 268 1356 q 357 1407 321 1407 q 419 1381 393 1407 l 576 1224 z "},"":{"ha":1238,"x_min":97,"x_max":1140,"o":"m 274 408 l 274 343 q 287 278 274 308 q 322 226 300 249 q 375 191 344 204 q 439 178 406 178 l 979 178 q 1041 152 1015 178 q 1067 90 1067 126 q 1041 27 1067 53 q 979 1 1015 1 l 439 1 q 308 27 369 1 q 197 101 246 53 q 123 212 149 150 q 97 343 97 274 l 97 649 q 124 781 97 718 q 199 892 150 843 q 310 967 247 940 q 442 993 372 993 l 849 993 q 962 970 908 993 q 1055 907 1015 947 q 1117 813 1094 867 q 1140 700 1140 760 q 1117 587 1140 640 q 1055 494 1094 533 q 962 431 1015 454 q 849 408 908 408 l 274 408 m 274 585 l 849 585 q 931 619 897 585 q 964 700 964 653 q 931 783 964 749 q 849 817 897 817 l 442 817 q 376 803 407 817 q 323 767 346 790 q 287 714 300 744 q 274 649 274 683 l 274 585 m 478 1299 q 557 1266 525 1299 q 589 1188 589 1233 q 557 1108 589 1140 q 478 1076 525 1076 q 399 1108 432 1076 q 367 1188 367 1140 q 399 1266 367 1233 q 478 1299 432 1299 m 758 1299 q 837 1266 804 1299 q 869 1188 869 1233 q 837 1108 869 1140 q 758 1076 804 1076 q 680 1108 713 1076 q 647 1188 647 1140 q 680 1266 647 1233 q 758 1299 713 1299 z "},"":{"ha":1238,"x_min":97,"x_max":1140,"o":"m 274 408 l 274 343 q 287 278 274 308 q 322 226 300 249 q 375 191 344 204 q 439 178 406 178 l 979 178 q 1041 152 1015 178 q 1067 90 1067 126 q 1041 27 1067 53 q 979 1 1015 1 l 439 1 q 308 27 369 1 q 197 101 246 53 q 123 212 149 150 q 97 343 97 274 l 97 649 q 124 781 97 718 q 199 892 150 843 q 310 967 247 940 q 442 993 372 993 l 849 993 q 962 970 908 993 q 1055 907 1015 947 q 1117 813 1094 867 q 1140 700 1140 760 q 1117 587 1140 640 q 1055 494 1094 533 q 962 431 1015 454 q 849 408 908 408 l 274 408 m 274 585 l 849 585 q 931 619 897 585 q 964 700 964 653 q 931 783 964 749 q 849 817 897 817 l 442 817 q 376 803 407 817 q 323 767 346 790 q 287 714 300 744 q 274 649 274 683 l 274 585 m 918 1228 q 955 1174 947 1208 q 943 1113 963 1140 q 912 1084 931 1093 q 874 1075 893 1075 q 828 1088 849 1075 l 617 1226 l 406 1088 q 360 1075 385 1075 q 321 1084 340 1075 q 290 1113 301 1093 q 278 1174 271 1140 q 314 1228 285 1208 l 569 1394 q 617 1410 590 1410 q 664 1394 643 1410 l 918 1228 l 918 1228 z "},"":{"ha":1238,"x_min":97,"x_max":1140,"o":"m 274 408 l 274 343 q 287 278 274 308 q 322 226 300 249 q 375 191 344 204 q 439 178 406 178 l 979 178 q 1041 152 1015 178 q 1067 90 1067 126 q 1041 27 1067 53 q 979 1 1015 1 l 439 1 q 308 27 369 1 q 197 101 246 53 q 123 212 149 150 q 97 343 97 274 l 97 649 q 124 781 97 718 q 199 892 150 843 q 310 967 247 940 q 442 993 372 993 l 849 993 q 962 970 908 993 q 1055 907 1015 947 q 1117 813 1094 867 q 1140 700 1140 760 q 1117 587 1140 640 q 1055 494 1094 533 q 962 431 1015 454 q 849 408 908 408 l 274 408 m 274 585 l 849 585 q 931 619 897 585 q 964 700 964 653 q 931 783 964 749 q 849 817 897 817 l 442 817 q 376 803 407 817 q 323 767 346 790 q 287 714 300 744 q 274 649 274 683 l 274 585 m 633 1367 q 692 1390 657 1390 q 751 1367 726 1390 q 775 1307 775 1342 q 751 1249 775 1272 l 603 1100 q 544 1076 576 1076 q 485 1100 508 1076 q 461 1160 461 1125 q 485 1218 461 1194 l 633 1367 l 633 1367 z "},"":{"ha":1238,"x_min":97,"x_max":1140,"o":"m 274 408 l 274 343 q 287 278 274 308 q 322 226 300 249 q 375 191 344 204 q 439 178 406 178 l 979 178 q 1041 152 1015 178 q 1067 90 1067 126 q 1041 27 1067 53 q 979 1 1015 1 l 439 1 q 308 27 369 1 q 197 101 246 53 q 123 212 149 150 q 97 343 97 274 l 97 649 q 124 781 97 718 q 199 892 150 843 q 310 967 247 940 q 442 993 372 993 l 849 993 q 962 970 908 993 q 1055 907 1015 947 q 1117 813 1094 867 q 1140 700 1140 760 q 1117 587 1140 640 q 1055 494 1094 533 q 962 431 1015 454 q 849 408 908 408 l 274 408 m 274 585 l 849 585 q 931 619 897 585 q 964 700 964 653 q 931 783 964 749 q 849 817 897 817 l 442 817 q 376 803 407 817 q 323 767 346 790 q 287 714 300 744 q 274 649 274 683 l 274 585 m 760 1224 q 786 1161 786 1197 q 760 1099 786 1125 q 697 1074 732 1074 q 664 1080 681 1074 q 635 1099 647 1086 l 478 1256 q 451 1319 451 1282 q 478 1381 451 1356 q 540 1407 504 1407 q 603 1381 576 1407 l 760 1224 z "},"":{"ha":1238,"x_min":97,"x_max":1140,"o":"m 593 817 q 469 792 526 817 q 367 723 411 767 q 299 621 324 679 q 274 497 274 563 q 299 373 274 431 q 367 272 324 315 q 469 203 411 228 q 593 178 526 178 l 1051 178 q 1114 152 1088 178 q 1140 90 1140 126 q 1114 27 1140 53 q 1051 1 1088 1 l 593 1 q 400 40 490 1 q 243 146 311 78 q 136 304 174 215 q 97 497 97 394 q 136 690 97 600 q 243 847 174 778 q 400 954 310 917 q 593 993 494 993 l 1051 993 q 1114 967 1088 993 q 1140 904 1140 940 q 1114 842 1140 868 q 1051 817 1088 817 l 593 817 l 593 817 m 703 164 q 799 110 754 146 q 878 26 844 75 q 928 -78 914 -24 q 936 -182 943 -132 q 857 -317 924 -267 q 686 -372 793 -365 l 682 -372 q 625 -350 649 -372 q 599 -294 601 -328 q 619 -234 596 -260 q 678 -207 643 -208 q 756 -185 733 -203 q 771 -160 769 -175 q 765 -116 774 -140 q 740 -68 757 -92 q 698 -22 722 -42 q 649 6 674 -3 q 601 48 617 17 q 597 111 586 79 q 640 160 608 144 q 703 164 671 175 z "},"":{"ha":1343,"x_min":97,"x_max":1246,"o":"m 1104 849 q 1211 688 1172 782 q 1238 595 1229 643 q 1246 497 1246 547 q 1211 306 1246 393 q 1166 219 1192 260 q 1104 146 1140 179 q 930 38 1031 75 q 707 1 829 1 l 636 1 q 413 38 514 1 q 239 146 313 75 q 132 306 168 213 q 97 497 97 393 q 106 595 97 547 q 132 688 114 643 q 239 849 168 779 q 413 956 313 919 q 636 993 514 993 l 707 993 q 930 956 829 993 q 1104 849 1031 919 m 707 178 q 858 200 790 178 q 972 264 925 222 q 1044 365 1019 306 q 1069 497 1069 424 q 1044 630 1069 571 q 972 731 1019 689 q 858 794 925 772 q 707 817 790 817 l 636 817 q 485 794 553 817 q 371 731 418 772 q 299 630 324 689 q 274 497 274 571 q 299 365 274 424 q 371 264 324 306 q 485 200 418 222 q 636 178 553 178 l 707 178 m 531 1299 q 610 1266 578 1299 q 642 1188 642 1233 q 610 1108 642 1140 q 531 1076 578 1076 q 452 1108 485 1076 q 419 1188 419 1140 q 452 1266 419 1233 q 531 1299 485 1299 m 811 1299 q 890 1266 857 1299 q 922 1188 922 1233 q 890 1108 922 1140 q 811 1076 857 1076 q 733 1108 765 1076 q 700 1188 700 1140 q 733 1266 700 1233 q 811 1299 765 1299 z "},"":{"ha":1343,"x_min":97,"x_max":1246,"o":"m 1104 849 q 1211 688 1172 782 q 1238 595 1229 643 q 1246 497 1246 547 q 1211 306 1246 393 q 1166 219 1192 260 q 1104 146 1140 179 q 930 38 1031 75 q 707 1 829 1 l 636 1 q 413 38 514 1 q 239 146 313 75 q 132 306 168 213 q 97 497 97 393 q 106 595 97 547 q 132 688 114 643 q 239 849 168 779 q 413 956 313 919 q 636 993 514 993 l 707 993 q 930 956 829 993 q 1104 849 1031 919 m 707 178 q 858 200 790 178 q 972 264 925 222 q 1044 365 1019 306 q 1069 497 1069 424 q 1044 630 1069 571 q 972 731 1019 689 q 858 794 925 772 q 707 817 790 817 l 636 817 q 485 794 553 817 q 371 731 418 772 q 299 630 324 689 q 274 497 274 571 q 299 365 274 424 q 371 264 324 306 q 485 200 418 222 q 636 178 553 178 l 707 178 m 1013 1172 q 930 1101 978 1125 q 825 1076 882 1076 q 712 1101 760 1076 q 625 1151 664 1126 q 563 1188 589 1175 q 507 1201 538 1201 q 461 1179 478 1201 q 453 1166 456 1172 q 449 1154 451 1160 q 444 1143 446 1149 l 444 1144 q 398 1084 429 1099 q 338 1077 367 1069 q 290 1111 308 1085 q 281 1174 272 1138 q 290 1208 282 1181 q 319 1268 297 1236 q 400 1342 351 1317 q 507 1368 449 1368 q 627 1342 576 1368 q 718 1290 678 1317 q 775 1256 751 1268 q 825 1243 799 1243 q 849 1247 836 1243 q 876 1268 863 1251 q 885 1282 882 1275 q 892 1294 889 1289 q 896 1307 894 1300 l 896 1306 q 940 1358 908 1343 q 1001 1367 971 1374 q 1049 1335 1031 1361 q 1057 1264 1068 1308 q 1046 1231 1056 1257 q 1013 1172 1036 1204 z "},"":{"ha":1343,"x_min":97,"x_max":1246,"o":"m 1104 849 q 1211 688 1172 782 q 1238 595 1229 643 q 1246 497 1246 547 q 1211 306 1246 393 q 1166 219 1192 260 q 1104 146 1140 179 q 930 38 1031 75 q 707 1 829 1 l 636 1 q 413 38 514 1 q 239 146 313 75 q 132 306 168 213 q 97 497 97 393 q 106 595 97 547 q 132 688 114 643 q 239 849 168 779 q 413 956 313 919 q 636 993 514 993 l 707 993 q 930 956 829 993 q 1104 849 1031 919 m 707 178 q 858 200 790 178 q 972 264 925 222 q 1044 365 1019 306 q 1069 497 1069 424 q 1044 630 1069 571 q 972 731 1019 689 q 858 794 925 772 q 707 817 790 817 l 636 817 q 485 794 553 817 q 371 731 418 772 q 299 630 324 689 q 274 497 274 571 q 299 365 274 424 q 371 264 324 306 q 485 200 418 222 q 636 178 553 178 l 707 178 m 972 1229 q 1009 1176 1001 1210 q 997 1114 1017 1142 q 966 1085 985 1094 q 928 1076 947 1076 q 882 1089 903 1076 l 671 1228 l 460 1089 q 414 1076 439 1076 q 375 1085 394 1076 q 344 1114 356 1094 q 332 1176 325 1142 q 368 1229 339 1210 l 624 1396 q 671 1411 644 1411 q 718 1396 697 1411 l 972 1229 l 972 1229 z "},"":{"ha":1343,"x_min":97,"x_max":1246,"o":"m 1104 849 q 1211 688 1172 782 q 1238 595 1229 643 q 1246 497 1246 547 q 1211 306 1246 393 q 1166 219 1192 260 q 1104 146 1140 179 q 930 38 1031 75 q 707 1 829 1 l 636 1 q 413 38 514 1 q 239 146 313 75 q 132 306 168 213 q 97 497 97 393 q 106 595 97 547 q 132 688 114 643 q 239 849 168 779 q 413 956 313 919 q 636 993 514 993 l 707 993 q 930 956 829 993 q 1104 849 1031 919 m 707 178 q 858 200 790 178 q 972 264 925 222 q 1044 365 1019 306 q 1069 497 1069 424 q 1044 630 1069 571 q 972 731 1019 689 q 858 794 925 772 q 707 817 790 817 l 636 817 q 485 794 553 817 q 371 731 418 772 q 299 630 324 689 q 274 497 274 571 q 299 365 274 424 q 371 264 324 306 q 485 200 418 222 q 636 178 553 178 l 707 178 m 686 1367 q 744 1390 710 1390 q 804 1367 779 1390 q 828 1307 828 1342 q 804 1249 828 1272 l 656 1100 q 597 1076 629 1076 q 538 1100 561 1076 q 514 1160 514 1125 q 538 1218 514 1194 l 686 1367 l 686 1367 z "},"":{"ha":1343,"x_min":97,"x_max":1246,"o":"m 1104 849 q 1211 688 1172 782 q 1238 595 1229 643 q 1246 497 1246 547 q 1211 306 1246 393 q 1166 219 1192 260 q 1104 146 1140 179 q 930 38 1031 75 q 707 1 829 1 l 636 1 q 413 38 514 1 q 239 146 313 75 q 132 306 168 213 q 97 497 97 393 q 106 595 97 547 q 132 688 114 643 q 239 849 168 779 q 413 956 313 919 q 636 993 514 993 l 707 993 q 930 956 829 993 q 1104 849 1031 919 m 707 178 q 858 200 790 178 q 972 264 925 222 q 1044 365 1019 306 q 1069 497 1069 424 q 1044 630 1069 571 q 972 731 1019 689 q 858 794 925 772 q 707 817 790 817 l 636 817 q 485 794 553 817 q 371 731 418 772 q 299 630 324 689 q 274 497 274 571 q 299 365 274 424 q 371 264 324 306 q 485 200 418 222 q 636 178 553 178 l 707 178 m 813 1224 q 839 1161 839 1197 q 813 1099 839 1125 q 750 1074 785 1074 q 717 1080 733 1074 q 688 1099 700 1086 l 531 1256 q 504 1319 504 1282 q 531 1381 504 1356 q 593 1407 557 1407 q 656 1381 629 1407 l 813 1224 z "},"":{"ha":1238,"x_min":97,"x_max":1140,"o":"m 1011 864 q 1106 724 1072 800 q 1140 551 1140 642 l 1140 90 q 1115 27 1140 53 q 1053 1 1089 1 q 990 27 1015 1 q 964 90 964 53 l 964 551 q 943 654 964 606 q 886 739 922 703 q 801 796 850 775 q 699 817 753 817 l 539 817 q 436 796 485 817 q 351 739 388 775 q 294 654 315 703 q 274 551 274 606 l 274 90 q 248 27 274 53 q 186 1 222 1 q 124 27 150 1 q 97 90 97 53 l 97 551 q 106 639 97 596 q 132 724 115 682 q 226 864 165 800 q 367 958 288 925 q 539 993 451 993 l 699 993 q 871 958 786 993 q 1011 864 950 925 m 960 1172 q 877 1101 925 1125 q 772 1076 829 1076 q 659 1101 707 1076 q 572 1151 611 1126 q 510 1188 536 1175 q 454 1201 485 1201 q 408 1179 425 1201 q 401 1166 403 1172 q 396 1154 399 1160 q 392 1143 393 1149 l 392 1144 q 345 1084 376 1099 q 285 1077 314 1069 q 238 1111 256 1085 q 228 1174 219 1138 q 237 1208 229 1181 q 267 1268 244 1236 q 347 1342 299 1317 q 454 1368 396 1368 q 574 1342 524 1368 q 665 1290 625 1317 q 722 1256 699 1268 q 772 1243 746 1243 q 797 1247 783 1243 q 824 1268 810 1251 q 833 1282 829 1275 q 839 1294 836 1289 q 843 1307 842 1300 l 843 1306 q 887 1358 856 1343 q 948 1367 918 1374 q 997 1335 978 1361 q 1004 1264 1015 1308 q 993 1231 1003 1257 q 960 1172 983 1204 z "},"":{"ha":1238,"x_min":96,"x_max":1140,"o":"m 1053 993 q 1115 967 1089 993 q 1140 904 1140 940 l 1140 443 q 1046 136 1140 250 q 699 1 931 1 l 449 1 q 269 40 354 1 q 119 149 183 78 q 97 213 96 176 q 126 274 99 249 q 191 296 154 297 q 251 267 228 294 q 340 201 289 224 q 449 178 392 178 l 699 178 q 911 250 850 178 q 964 443 964 314 l 964 474 q 699 408 858 408 l 539 408 q 193 543 307 408 q 97 850 97 656 l 97 904 q 124 967 97 940 q 186 993 150 993 q 248 967 222 993 q 274 904 274 940 l 274 850 q 328 657 274 719 q 539 585 389 585 l 699 585 q 911 657 850 585 q 964 850 964 721 l 964 904 q 990 967 964 940 q 1053 993 1017 993 m 633 1367 q 692 1390 657 1390 q 751 1367 726 1390 q 775 1307 775 1342 q 751 1249 775 1272 l 603 1100 q 544 1076 576 1076 q 485 1100 508 1076 q 461 1160 461 1125 q 485 1218 461 1194 l 633 1367 l 633 1367 z "},"":{"ha":1238,"x_min":97,"x_max":1140,"o":"m 1053 993 q 1115 967 1089 993 q 1140 904 1140 940 l 1140 497 q 1133 400 1140 447 q 1110 310 1125 353 q 1015 149 1079 218 q 856 39 949 76 q 650 1 763 1 l 588 1 q 383 39 475 1 q 224 149 290 76 q 128 310 161 217 q 97 497 97 399 l 97 904 q 124 967 97 940 q 186 993 150 993 q 248 967 222 993 q 274 904 274 940 l 274 497 q 290 382 274 439 q 344 280 307 325 q 442 206 382 235 q 588 178 501 178 l 650 178 q 797 206 738 178 q 894 280 857 235 q 947 382 931 325 q 964 497 964 439 l 964 904 q 990 967 964 940 q 1053 993 1017 993 m 478 1299 q 557 1266 525 1299 q 589 1188 589 1233 q 557 1108 589 1140 q 478 1076 525 1076 q 399 1108 432 1076 q 367 1188 367 1140 q 399 1266 367 1233 q 478 1299 432 1299 m 758 1299 q 837 1266 804 1299 q 869 1188 869 1233 q 837 1108 869 1140 q 758 1076 804 1076 q 680 1108 713 1076 q 647 1188 647 1140 q 680 1266 647 1233 q 758 1299 713 1299 z "},"":{"ha":1238,"x_min":97,"x_max":1140,"o":"m 1053 993 q 1115 967 1089 993 q 1140 904 1140 940 l 1140 497 q 1133 400 1140 447 q 1110 310 1125 353 q 1015 149 1079 218 q 856 39 949 76 q 650 1 763 1 l 588 1 q 383 39 475 1 q 224 149 290 76 q 128 310 161 217 q 97 497 97 399 l 97 904 q 124 967 97 940 q 186 993 150 993 q 248 967 222 993 q 274 904 274 940 l 274 497 q 290 382 274 439 q 344 280 307 325 q 442 206 382 235 q 588 178 501 178 l 650 178 q 797 206 738 178 q 894 280 857 235 q 947 382 931 325 q 964 497 964 439 l 964 904 q 990 967 964 940 q 1053 993 1017 993 m 919 1229 q 956 1176 949 1210 q 944 1114 964 1142 q 913 1085 932 1094 q 875 1076 894 1076 q 829 1089 850 1076 l 618 1228 l 407 1089 q 361 1076 386 1076 q 322 1085 342 1076 q 292 1114 303 1094 q 279 1176 272 1142 q 315 1229 286 1210 l 571 1396 q 618 1411 592 1411 q 665 1396 644 1411 l 919 1229 l 919 1229 z "},"":{"ha":1238,"x_min":97,"x_max":1140,"o":"m 1053 993 q 1115 967 1089 993 q 1140 904 1140 940 l 1140 497 q 1133 400 1140 447 q 1110 310 1125 353 q 1015 149 1079 218 q 856 39 949 76 q 650 1 763 1 l 588 1 q 383 39 475 1 q 224 149 290 76 q 128 310 161 217 q 97 497 97 399 l 97 904 q 124 967 97 940 q 186 993 150 993 q 248 967 222 993 q 274 904 274 940 l 274 497 q 290 382 274 439 q 344 280 307 325 q 442 206 382 235 q 588 178 501 178 l 650 178 q 797 206 738 178 q 894 280 857 235 q 947 382 931 325 q 964 497 964 439 l 964 904 q 990 967 964 940 q 1053 993 1017 993 m 633 1367 q 692 1390 657 1390 q 751 1367 726 1390 q 775 1307 775 1342 q 751 1249 775 1272 l 603 1100 q 544 1076 576 1076 q 485 1100 508 1076 q 461 1160 461 1125 q 485 1218 461 1194 l 633 1367 l 633 1367 z "},"":{"ha":1238,"x_min":97,"x_max":1140,"o":"m 1053 993 q 1115 967 1089 993 q 1140 904 1140 940 l 1140 497 q 1133 400 1140 447 q 1110 310 1125 353 q 1015 149 1079 218 q 856 39 949 76 q 650 1 763 1 l 588 1 q 383 39 475 1 q 224 149 290 76 q 128 310 161 217 q 97 497 97 399 l 97 904 q 124 967 97 940 q 186 993 150 993 q 248 967 222 993 q 274 904 274 940 l 274 497 q 290 382 274 439 q 344 280 307 325 q 442 206 382 235 q 588 178 501 178 l 650 178 q 797 206 738 178 q 894 280 857 235 q 947 382 931 325 q 964 497 964 439 l 964 904 q 990 967 964 940 q 1053 993 1017 993 m 760 1224 q 786 1161 786 1197 q 760 1099 786 1125 q 697 1074 732 1074 q 664 1080 681 1074 q 635 1099 647 1086 l 478 1256 q 451 1319 451 1282 q 478 1381 451 1356 q 540 1407 504 1407 q 603 1381 576 1407 l 760 1224 z "},"":{"ha":1238,"x_min":96,"x_max":1140,"o":"m 1053 993 q 1115 967 1089 993 q 1140 904 1140 940 l 1140 443 q 1046 136 1140 250 q 699 1 931 1 l 449 1 q 269 40 354 1 q 119 149 183 78 q 97 213 96 176 q 126 274 99 249 q 191 296 154 297 q 251 267 228 294 q 340 201 289 224 q 449 178 392 178 l 699 178 q 911 250 850 178 q 964 443 964 314 l 964 474 q 699 408 858 408 l 539 408 q 193 543 307 408 q 97 850 97 656 l 97 904 q 124 967 97 940 q 186 993 150 993 q 248 967 222 993 q 274 904 274 940 l 274 850 q 328 657 274 719 q 539 585 389 585 l 699 585 q 911 657 850 585 q 964 850 964 721 l 964 904 q 990 967 964 940 q 1053 993 1017 993 m 478 1299 q 557 1266 525 1299 q 589 1188 589 1233 q 557 1108 589 1140 q 478 1076 525 1076 q 399 1108 432 1076 q 367 1188 367 1140 q 399 1266 367 1233 q 478 1299 432 1299 m 758 1299 q 837 1266 804 1299 q 869 1188 869 1233 q 837 1108 869 1140 q 758 1076 804 1076 q 680 1108 713 1076 q 647 1188 647 1140 q 680 1266 647 1233 q 758 1299 713 1299 z "}}}
